{
.appVersion = "3260";
.formatVersion = 3;
DisplayStrings = (
"ħ",
h,
"ȷ",
j,
"¨",
"̈",
"̇",
"˙",
"̀",
"`",
"́"
);
axes = (
{
name = Weight;
tag = wght;
}
);
customParameters = (
{
name = glyphOrder;
value = (
A,
Aacute,
Abreve,
Acircumflex,
Adieresis,
Agrave,
Amacron,
Aogonek,
Aring,
Atilde,
AE,
AEacute,
B,
C,
Cacute,
Ccaron,
Ccedilla,
Cdotaccent,
D,
Eth,
Dcaron,
Dcroat,
E,
Eacute,
Ebreve,
Ecaron,
Ecircumflex,
Edieresis,
Edotaccent,
Egrave,
Emacron,
Eogonek,
Etilde,
F,
G,
Gbreve,
Gcommaaccent,
Gdotaccent,
H,
I,
Iacute,
Ibreve,
Icircumflex,
Idieresis,
Idotaccent,
Igrave,
Imacron,
Iogonek,
Itilde,
J,
K,
Kcommaaccent,
L,
Lacute,
Lcaron,
Lcommaaccent,
Ldot,
Lslash,
M,
N,
Nacute,
Ncaron,
Ncommaaccent,
Ntilde,
O,
Oacute,
Obreve,
Ocircumflex,
Odieresis,
Ograve,
Ohungarumlaut,
Omacron,
Oslash,
Otilde,
OE,
P,
Thorn,
Q,
R,
Racute,
Rcaron,
Rcommaaccent,
S,
Sacute,
Scaron,
Scedilla,
Scommaaccent,
T,
Tcaron,
Tcedilla,
Tcommaaccent,
U,
Uacute,
Ubreve,
Ucircumflex,
Udieresis,
Ugrave,
Uhungarumlaut,
Umacron,
Uogonek,
Uring,
Utilde,
V,
W,
Wacute,
Wcircumflex,
Wdieresis,
Wgrave,
X,
Y,
Yacute,
Ycircumflex,
Ydieresis,
Ygrave,
Ytilde,
Z,
Zacute,
Zcaron,
Zdotaccent,
a,
aacute,
abreve,
acircumflex,
adieresis,
agrave,
amacron,
aogonek,
aring,
atilde,
ae,
aeacute,
b,
c,
cacute,
ccaron,
ccedilla,
cdotaccent,
d,
eth,
dcaron,
dcroat,
e,
eacute,
ebreve,
ecaron,
ecircumflex,
edieresis,
edotaccent,
egrave,
emacron,
eogonek,
etilde,
f,
g,
gbreve,
gcommaaccent,
gdotaccent,
h,
i,
dotlessi,
iacute,
ibreve,
icircumflex,
idieresis,
igrave,
imacron,
iogonek,
itilde,
j,
k,
kcommaaccent,
l,
lacute,
lcaron,
lcommaaccent,
ldot,
lslash,
m,
n,
nacute,
ncaron,
ncommaaccent,
ntilde,
o,
oacute,
obreve,
ocircumflex,
odieresis,
ograve,
ohungarumlaut,
omacron,
oslash,
otilde,
oe,
p,
thorn,
q,
r,
racute,
rcaron,
rcommaaccent,
s,
sacute,
scaron,
scedilla,
scommaaccent,
germandbls,
t,
tcaron,
tcedilla,
tcommaaccent,
u,
uacute,
ubreve,
ucircumflex,
udieresis,
ugrave,
uhungarumlaut,
umacron,
uogonek,
uring,
utilde,

glyphs = (
{
color = 4;
glyphname = A;
lastChange = "2024-08-04 16:35:10 +0000";
layers = (
{
anchors = (
{
name = ogonek;
pos = (664,0);
},
{
name = top;
pos = (349,696);
}
);
layerId = "4D0F633C-81E1-4D6C-A640-637CE706A5C5";
shapes = (
{
closed = 1;
nodes = (
(283,695,l),
(34,0,l),
(153,0,l),
(375,634,l),
(322,634,l),
(544,0,l),
(664,0,l),
(415,695,l)
);
},
{
closed = 1;
nodes = (
(138,142,l),
(554,142,l),
(524,235,l),
(167,235,l)
);
}
);
width = 697;
},
{
anchors = (
{
name = ogonek;
pos = (747,0);
},
{
name = top;
pos = (378,707);
}
);
layerId = "86171893-955A-4CD1-BD1B-2F7A53CC85DC";
shapes = (
{
closed = 1;
nodes = (
(265,705,l),
(8,0,l),
(214,0,l),
(414,603,l),
(341,603,l),
(540,0,l),
(747,0,l),
(491,705,l)
);
},
{
closed = 1;
nodes = (
(120,115,l),
(615,115,l),
(566,265,l),
(169,265,l)
);
}
);
width = 755;
},
{
anchors = (
{
name = ogonek;
pos = (620,0);
},
{
name = top;
pos = (327,690);
}
);
layerId = "6D7935D2-FE9A-430A-A298-15DA7AF44FAE";
shapes = (
{
closed = 1;
nodes = (
(287,690,l),
(32,0,l),
(106,0,l),
(344,650,l),
(309,650,l),
(546,0,l),
(620,0,l),
(366,690,l)
);
},
{
closed = 1;
nodes = (
(128,166,l),
(521,166,l),
(502,224,l),
(146,224,l)
);
}
);
width = 652;
}
);
unicode = 65;
userData = {
com.schriftgestaltung.Glyphs.ColorIndex = 4;
com.typesupply.AccentFactory.yCoordinates = {
bottom = {
name = origin;
type = glyphMetric;
};
top = {
name = capHeight;
type = fontInfo;
};
};
};
},
{
color = 4;
glyphname = Aogonek;
lastChange = "2024-06-14 14:32:59 +0000";
layers = (
{
anchors = (
{
name = _ogonek;
pos = (664,0);
}
);
background = {
shapes = (
{
closed = 1;
nodes = (
(138,142,l),
(554,142,l),
(524,231,l),
(167,231,l)
);
},
{
closed = 1;
nodes = (
(34,0,l),
(153,0,l),
(359,586,l),
(339,586,l),
(553,-24,l),
(558,1,l),
(501,-7,o),
(464,-42,o),
(464,-96,cs),
(464,-165,o),
(521,-205,o),
(592,-205,cs),
(698,-205,l),
(698,-133,l),
(614,-133,ls),
(579,-133,o),
(558,-126,o),
(558,-96,cs),
(558,-66,o),
(579,-60,o),
(614,-60,cs),
(664,-60,l),
(664,1,l),
(415,696,l),
(283,696,l)
);
}
);
};
layerId = "4D0F633C-81E1-4D6C-A640-637CE706A5C5";
shapes = (
{
closed = 1;
nodes = (
(592,39,ls),
(498,-4,o),
(465,-52,o),
(465,-103,cs),
(465,-183,o),
(535,-211,o),
(598,-211,cs),
(627,-211,o),
(656,-205,o),
(679,-196,c),
(679,-123,l),
(656,-132,o),
(632,-137,o),
(613,-137,cs),
(579,-137,o),
(558,-119,o),
(558,-91,cs),
(558,-67,o),
(572,-47,o),
(615,-25,cs),
(664,0,l),
(634,58,l)
);
},
{
ref = A;
}
);
width = 697;
},
{
anchors = (
{
name = _ogonek;
pos = (747,0);
}
);
layerId = "86171893-955A-4CD1-BD1B-2F7A53CC85DC";
shapes = (
{
closed = 1;
nodes = (
(670,78,ls),
(529,20,o),
(491,-32,o),
(491,-98,cs),
(491,-178,o),
(553,-220,o),
(645,-220,cs),
(684,-220,o),
(720,-214,o),
(751,-204,c),
(751,-99,l),
(720,-109,o),
(694,-114,o),
(673,-114,cs),
(646,-114,o),
(631,-103,o),
(631,-84,cs),
(631,-66,o),
(644,-46,o),
(702,-20,cs),
(747,0,l),
(708,94,l)
);
},
{
alignment = -1;
ref = A;
}
);
width = 755;
},
{
anchors = (
{
name = _ogonek;
pos = (620,0);
}
);
layerId = "6D7935D2-FE9A-430A-A298-15DA7AF44FAE";
shapes = (
{
closed = 1;
nodes = (
(547,13,ls),
(468,-23,o),
(439,-64,o),
(439,-109,cs),
(439,-176,o),
(494,-201,o),
(552,-201,cs),
(576,-201,o),
(602,-196,o),
(624,-188,c),
(624,-139,l),
(602,-148,o),
(579,-153,o),
(559,-153,cs),
(523,-153,o),
(498,-135,o),
(498,-102,cs),
(498,-76,o),
(513,-52,o),
(561,-29,cs),
(620,0,l),
(601,38,l)
);
},
{
alignment = -1;
ref = A;
}
);
width = 652;
}
);
unicode = 260;
userData = {
com.schriftgestaltung.Glyphs.ColorIndex = 8;
com.typesupply.AccentFactory.compileType = manual;
};
},
{
color = 4;
glyphname = AE;
lastChange = "2024-08-04 17:20:29 +0000";
layers = (
{
layerId = "4D0F633C-81E1-4D6C-A640-637CE706A5C5";
shapes = (
{
closed = 1;
nodes = (
(152,142,l),
(525,142,l),
(525,231,l),
(202,231,l)
);
},
{
closed = 1;
nodes = (
(855,606,l),
(855,695,l),
(395,695,l),
(12,0,l),
(136,0,l),
(472,616,l),
(472,0,l),
(855,0,l),
(855,89,l),
(586,89,l),
(586,308,l),
(825,308,l),
(825,396,l),
(586,396,l),
(586,606,l)
);
}
);
width = 921;
},
{
layerId = "86171893-955A-4CD1-BD1B-2F7A53CC85DC";
shapes = (
{
closed = 1;
nodes = (
(154,108,l),
(581,108,l),
(581,256,l),
(237,256,l)
);
},
{
closed = 1;
nodes = (
(929,550,l),
(929,705,l),
(352,705,l),
(3,0,l),
(216,0,l),
(486,556,l),
(486,0,l),
(929,0,l),
(929,156,l),
(682,156,l),
(682,287,l),
(899,287,l),
(899,435,l),
(682,435,l),
(682,550,l)
);
}
);
width = 971;
},
{
layerId = "6D7935D2-FE9A-430A-A298-15DA7AF44FAE";
shapes = (
{
closed = 1;
nodes = (
(145,166,l),
(490,166,l),
(490,222,l),
(174,222,l)
);
},
{
closed = 1;
nodes = (
(823,634,l),
(823,690,l),
(417,690,l),
(11,0,l),
(88,0,l),
(458,630,l),
(458,0,l),
(823,0,l),
(823,56,l),
(528,56,l),
(528,319,l),
(793,319,l),
(793,375,l),
(528,375,l),
(528,634,l)
);
}
);
width = 882;
}
);
unicode = 198;
userData = {
com.schriftgestaltung.Glyphs.ColorIndex = 4;
com.typemytype.robofont.layerData = {
b = {
anchors = (
);
components = (
);
contours = (
{
points = (
{
segmentType = line;
smooth = 0;
x = 138;
y = 183;
},
{
segmentType = line;
smooth = 0;
x = 449;
y = 183;
},
{
segmentType = line;
smooth = 0;
x = 449;
y = 202;
},
{
segmentType = line;
smooth = 0;
x = 149;
y = 202;
}
);
},
{
points = (
{
segmentType = line;
smooth = 0;
x = 757;
y = 663;
},
{
segmentType = line;
smooth = 0;
x = 757;
y = 683;
},
{
segmentType = line;
smooth = 0;
x = 442;
y = 683;
},
{
segmentType = line;
smooth = 0;
x = 11;
y = 0;
},
{
segmentType = line;
smooth = 0;
x = 32;
y = 0;
},
{
segmentType = line;
smooth = 0;
x = 443;
y = 658;
},
{
segmentType = line;
smooth = 0;
x = 443;
y = 0;
},
{
segmentType = line;
smooth = 0;
x = 757;
y = 0;
},
{
segmentType = line;
smooth = 0;
x = 757;
y = 19;
},
{
segmentType = line;
smooth = 0;
x = 463;
y = 19;
},
{
segmentType = line;
smooth = 0;
x = 463;
y = 332;
},
{
segmentType = line;
smooth = 0;
x = 727;
y = 332;
},
{
segmentType = line;
smooth = 0;
x = 727;
y = 351;
},
{
segmentType = line;
smooth = 0;
x = 463;
y = 351;
},
{
segmentType = line;
smooth = 0;
x = 463;
y = 663;
}
);
}
);
lib = {
};
name = AE;
unicodes = (
);
width = 837;
};
};
com.typesupply.AccentFactory.yCoordinates = {
bottom = {
name = origin;
type = glyphMetric;
};
top = {
name = capHeight;
type = fontInfo;
};
};
};
},
{
color = 4;
glyphname = B;
lastChange = "2024-08-04 17:21:32 +0000";
layers = (
{
background = {
shapes = (
{
closed = 1;
nodes = (
(449,502,cs),
(449,438,o),
(404,400,o),
(330,400,cs),
(189,400,l),
(189,606,l),
(330,606,ls),
(404,606,o),
(449,567,o)
);
},
{
closed = 1;
nodes = (
(581,183,cs),
(581,275,o),
(511,356,o),
(403,359,c),
(386,347,l),
(495,364,o),
(565,417,o),
(565,511,cs),
(565,614,o),
(487,695,o),
(340,695,cs),
(75,695,l),
(75,0,l),
(353,0,ls),
(495,0,o),
(581,79,o)
);
},
{
closed = 1;
nodes = (
(467,199,cs),
(467,130,o),
(420,89,o),
(343,89,cs),
(189,89,l),
(189,311,l),
(339,311,ls),
(415,311,o),
(467,268,o)
);
}
);
};
layerId = "4D0F633C-81E1-4D6C-A640-637CE706A5C5";
shapes = (
{
closed = 1;
nodes = (
(449,502,cs),
(449,438,o),
(404,403,o),
(330,403,cs),
(189,403,l),
(189,602,l),
(330,602,ls),
(404,602,o),
(449,565,o)
);
},
{
closed = 1;
nodes = (
(581,187,cs),
(581,277,o),
(511,356,o),
(428,359,c),
(411,347,l),
(495,364,o),
(565,417,o),
(565,516,cs),
(565,614,o),
(487,695,o),
(340,695,cs),
(75,695,l),
(75,0,l),
(353,0,ls),
(495,0,o),
(581,81,o)
);
},
{
closed = 1;
nodes = (
(467,199,cs),
(467,132,o),
(420,93,o),
(343,93,cs),
(189,93,l),
(189,310,l),
(339,310,ls),
(415,310,o),
(467,268,o)
);
}
);
width = 630;
},
{
associatedMasterId = "4D0F633C-81E1-4D6C-A640-637CE706A5C5";
layerId = "C4420EFC-D5EF-4B28-ADC0-87A5182B2F17";
name = "Sep 19 17, 17:06";
shapes = (
{
closed = 1;
nodes = (
(449,502,cs),
(449,438,o),
(404,400,o),
(330,400,cs),
(189,400,l),
(189,606,l),
(330,606,ls),
(404,606,o),
(449,567,o)
);
},
{
closed = 1;
nodes = (
(581,183,cs),
(581,275,o),
(511,356,o),
(403,359,c),
(386,347,l),
(495,364,o),
(565,417,o),
(565,511,cs),
(565,614,o),
(487,695,o),
(340,695,cs),
(75,695,l),
(75,0,l),
(353,0,ls),
(495,0,o),
(581,79,o)
);
},
{
closed = 1;
nodes = (
(467,199,cs),
(467,130,o),
(420,89,o),
(343,89,cs),
(189,89,l),
(189,311,l),
(339,311,ls),
(415,311,o),
(467,268,o)
);
}
);
width = 630;
},
{
layerId = "86171893-955A-4CD1-BD1B-2F7A53CC85DC";
shapes = (
{
closed = 1;
nodes = (
(425,486,cs),
(425,445,o),
(399,425,o),
(351,425,cs),
(252,425,l),
(252,549,l),
(351,549,ls),
(399,549,o),
(425,527,o)
);
},
{
closed = 1;
nodes = (
(641,192,cs),
(641,283,o),
(575,362,o),
(469,367,c),
(452,355,l),
(547,355,o),
(625,416,o),
(625,522,cs),
(625,639,o),
(537,705,o),
(394,705,cs),
(56,705,l),
(56,0,l),
(405,0,ls),
(556,0,o),
(641,73,o)
);
},
{
closed = 1;
nodes = (
(440,220,cs),
(440,178,o),
(415,158,o),
(366,158,cs),
(252,158,l),
(252,286,l),
(365,286,ls),
(413,286,o),
(440,263,o)
);
}
);
width = 671;
},
{
layerId = "6D7935D2-FE9A-430A-A298-15DA7AF44FAE";
shapes = (
{
closed = 1;
nodes = (
(461,510,c),
(461,432,o),
(408,386,o),
(313,386,cs),
(150,386,l),
(150,631,l),
(310,631,ls),
(411,631,o),
(461,585,o)
);
},
{
closed = 1;
nodes = (
(548,185,cs),
(548,282,o),
(471,358,o),
(382,360,c),
(369,350,l),
(451,359,o),
(532,408,o),
(532,517,c),
(532,615,o),
(462,690,o),
(315,690,cs),
(80,690,l),
(80,0,l),
(322,0,ls),
(469,0,o),
(548,80,o)
);
},
{
closed = 1;
nodes = (
(478,192,cs),
(478,108,o),
(418,59,o),
(317,59,cs),
(150,59,l),
(150,328,l),
(314,328,ls),
(414,328,o),
(478,276,o)
);
}
);
width = 597;
}
);
unicode = 66;
userData = {
com.schriftgestaltung.Glyphs.ColorIndex = 4;
com.typesupply.AccentFactory.yCoordinates = {
bottom = {
name = origin;
type = glyphMetric;
};
top = {
name = capHeight;
type = fontInfo;
};
};
};
},
{
color = 4;
glyphname = C;
lastChange = "2024-08-04 20:52:10 +0000";
layers = (
{
layerId = "4D0F633C-81E1-4D6C-A640-637CE706A5C5";
shapes = (
{
closed = 1;
nodes = (
(532,-7,o),
(668,70,o),
(716,215,c),
(608,240,l),
(571,151,o),
(484,92,o),
(392,92,cs),
(254,92,o),
(154,191,o),
(154,348,cs),
(154,504,o),
(257,602,o),
(395,602,cs),
(495,602,o),
(567,543,o),
(602,449,c),
(708,482,l),
(664,624,o),
(541,702,o),
(392,702,cs),
(196,702,o),
(37,555,o),
(37,348,cs),
(37,139,o),
(196,-7,o),
(392,-7,cs)
);
}
);
width = 761;
},
{
layerId = "86171893-955A-4CD1-BD1B-2F7A53CC85DC";
shapes = (
{
closed = 1;
nodes = (
(554,-7,o),
(679,90,o),
(716,245,c),
(521,291,l),
(496,208,o),
(453,173,o),
(379,173,cs),
(288,173,o),
(232,244,o),
(232,353,cs),
(232,460,o),
(288,532,o),
(379,532,cs),
(441,532,o),
(491,506,o),
(517,418,c),
(710,478,l),
(666,620,o),
(545,712,o),
(382,712,cs),
(176,712,o),
(32,567,o),
(32,353,cs),
(32,145,o),
(168,-7,o),
(382,-7,cs)
);
}
);
width = 748;
},
{
layerId = "6D7935D2-FE9A-430A-A298-15DA7AF44FAE";
shapes = (
{
closed = 1;
nodes = (
(546,-7,o),
(662,74,o),
(712,208,c),
(644,223,l),
(599,115,o),
(509,55,o),
(390,55,cs),
(237,55,o),
(120,168,o),
(120,345,cs),
(120,523,o),
(237,635,o),
(390,635,cs),
(517,635,o),
(600,568,o),
(642,453,c),
(710,474,l),
(663,618,o),
(542,697,o),
(390,697,cs),
(196,697,o),
(48,550,o),
(48,345,cs),
(48,140,o),
(196,-7,o),
(390,-7,cs)
);
}
);
width = 771;
}
);
unicode = 67;
userData = {
com.schriftgestaltung.Glyphs.ColorIndex = 4;
com.typesupply.AccentFactory.yCoordinates = {
bottom = {
name = origin;
type = glyphMetric;
};
top = {
name = capHeight;
type = fontInfo;
};
};
};
},
{
color = 4;
glyphname = Cacute;
lastChange = "2024-08-04 20:52:25 +0000";
layers = (
{
layerId = "4D0F633C-81E1-4D6C-A640-637CE706A5C5";
shapes = (
{
closed = 1;
nodes = (
(274,827,l),
(274,743,l),
(495,852,l),
(495,949,l)
);
},
{
closed = 1;
nodes = (
(532,-7,o),
(668,70,o),
(716,215,c),
(608,240,l),
(571,151,o),
(484,92,o),
(392,92,cs),
(254,92,o),
(154,191,o),
(154,348,cs),
(154,504,o),
(257,602,o),
(395,602,cs),
(495,602,o),
(567,543,o),
(602,449,c),
(708,482,l),
(664,624,o),
(541,702,o),
(392,702,cs),
(196,702,o),
(37,555,o),
(37,348,cs),
(37,139,o),
(196,-7,o),
(392,-7,cs)
);
}
);
width = 761;
},
{
layerId = "86171893-955A-4CD1-BD1B-2F7A53CC85DC";
shapes = (
{
closed = 1;
nodes = (
(245,880,l),
(245,747,l),
(495,845,l),
(495,993,l)
);
},
{
closed = 1;
nodes = (
(554,-7,o),
(679,90,o),
(716,245,c),
(521,291,l),
(496,208,o),
(453,173,o),
(379,173,cs),
(288,173,o),
(232,244,o),
(232,353,cs),
(232,460,o),
(288,532,o),
(379,532,cs),
(441,532,o),
(491,506,o),
(517,418,c),
(710,478,l),
(666,620,o),
(545,712,o),
(382,712,cs),
(176,712,o),
(32,567,o),
(32,353,cs),
(32,145,o),
(168,-7,o),
(382,-7,cs)
);
}
);
width = 748;
},
{
layerId = "6D7935D2-FE9A-430A-A298-15DA7AF44FAE";
shapes = (
{
closed = 1;
nodes = (
(288,790,l),
(288,736,l),
(493,855,l),
(493,918,l)
);
},
{
closed = 1;
nodes = (
(546,-7,o),
(662,74,o),
(712,208,c),
(644,223,l),
(599,115,o),
(509,55,o),
(390,55,cs),
(237,55,o),
(120,168,o),
(120,345,cs),
(120,523,o),
(237,636,o),
(390,636,cs),
(517,636,o),
(600,568,o),
(642,453,c),
(710,474,l),
(663,618,o),
(542,697,o),
(390,697,cs),
(196,697,o),
(48,550,o),
(48,345,cs),
(48,140,o),
(196,-7,o),
(390,-7,cs)
);
}
);
width = 771;
}
);
unicode = 262;
userData = {
com.schriftgestaltung.Glyphs.ColorIndex = 8;
};
},
{
color = 4;
glyphname = Ccaron;
lastChange = "2024-08-04 20:52:30 +0000";
layers = (
{
layerId = "4D0F633C-81E1-4D6C-A640-637CE706A5C5";
shapes = (
{
closed = 1;
nodes = (
(392,829,l),
(249,915,l),
(249,826,l),
(392,743,l),
(535,826,l),
(535,915,l)
);
},
{
closed = 1;
nodes = (
(532,-7,o),
(668,70,o),
(716,215,c),
(608,240,l),
(571,151,o),
(484,92,o),
(392,92,cs),
(254,92,o),
(154,191,o),
(154,348,cs),
(154,504,o),
(257,602,o),
(395,602,cs),
(495,602,o),
(567,543,o),
(602,449,c),
(708,482,l),
(664,624,o),
(541,702,o),
(392,702,cs),
(196,702,o),
(37,555,o),
(37,348,cs),
(37,139,o),
(196,-7,o),
(392,-7,cs)
);
}
);
width = 761;
},
{
layerId = "86171893-955A-4CD1-BD1B-2F7A53CC85DC";
shapes = (
{
closed = 1;
nodes = (
(373,868,l),
(212,955,l),
(212,824,l),
(373,747,l),
(532,824,l),
(532,955,l)
);
},
{
closed = 1;
nodes = (
(554,-7,o),
(679,90,o),
(716,245,c),
(521,291,l),
(496,208,o),
(453,173,o),
(379,173,cs),
(288,173,o),
(232,244,o),
(232,353,cs),
(232,460,o),
(288,532,o),
(379,532,cs),
(441,532,o),
(491,506,o),
(517,418,c),
(710,478,l),
(666,620,o),
(545,712,o),
(382,712,cs),
(176,712,o),
(32,567,o),
(32,353,cs),
(32,145,o),
(168,-7,o),
(382,-7,cs)
);
}
);
width = 748;
},
{
layerId = "6D7935D2-FE9A-430A-A298-15DA7AF44FAE";
shapes = (
{
closed = 1;
nodes = (
(401,806,l),
(267,889,l),
(267,833,l),
(401,751,l),
(535,833,l),
(535,889,l)
);
},
{
closed = 1;
nodes = (
(546,-7,o),
(662,74,o),
(712,208,c),
(644,223,l),
(599,115,o),
(509,55,o),
(390,55,cs),
(237,55,o),
(120,168,o),
(120,345,cs),
(120,523,o),
(237,636,o),
(390,636,cs),
(517,636,o),
(600,568,o),
(642,453,c),
(710,474,l),
(663,618,o),
(542,697,o),
(390,697,cs),
(196,697,o),
(48,550,o),
(48,345,cs),
(48,140,o),
(196,-7,o),
(390,-7,cs)
);
}
);
width = 771;
}
);
unicode = 268;
userData = {
com.schriftgestaltung.Glyphs.ColorIndex = 8;
};
},
{
color = 4;
glyphname = Ccedilla;
lastChange = "2024-08-04 20:52:35 +0000";
layers = (
{
layerId = "4D0F633C-81E1-4D6C-A640-637CE706A5C5";
shapes = (
{
closed = 1;
nodes = (
(427,7,l),
(352,7,l),
(352,-116,l),
(407,-116,ls),
(442,-116,o),
(463,-123,o),
(463,-153,cs),
(463,-183,o),
(442,-190,o),
(407,-190,cs),
(298,-190,l),
(298,-262,l),
(430,-262,ls),
(501,-262,o),
(557,-221,o),
(557,-153,cs),
(557,-84,o),
(501,-48,o),
(427,-48,c)
);
},
{
closed = 1;
nodes = (
(532,-7,o),
(668,70,o),
(716,215,c),
(608,240,l),
(571,151,o),
(484,92,o),
(392,92,cs),
(254,92,o),
(154,191,o),
(154,348,cs),
(154,504,o),
(257,602,o),
(395,602,cs),
(495,602,o),
(567,543,o),
(602,449,c),
(708,482,l),
(664,624,o),
(541,702,o),
(392,702,cs),
(196,702,o),
(37,555,o),
(37,348,cs),
(37,139,o),
(196,-7,o),
(392,-7,cs)
);
}
);
width = 761;
},
{
layerId = "86171893-955A-4CD1-BD1B-2F7A53CC85DC";
shapes = (
{
closed = 1;
nodes = (
(437,7,l),
(321,7,l),
(321,-124,l),
(399,-124,ls),
(420,-124,o),
(432,-130,o),
(432,-145,cs),
(432,-159,o),
(420,-166,o),
(399,-166,cs),
(259,-166,l),
(259,-269,l),
(422,-269,ls),
(490,-269,o),
(567,-239,o),
(567,-150,cs),
(567,-61,o),
(491,-32,o),
(437,-32,c)
);
},
{
closed = 1;
nodes = (
(554,-7,o),
(679,90,o),
(716,245,c),
(521,291,l),
(496,208,o),
(453,173,o),
(379,173,cs),
(288,173,o),
(232,244,o),
(232,353,cs),
(232,460,o),
(288,532,o),
(379,532,cs),
(441,532,o),
(491,506,o),
(517,418,c),
(710,478,l),
(666,620,o),
(545,712,o),
(382,712,cs),
(176,712,o),
(32,567,o),
(32,353,cs),
(32,145,o),
(168,-7,o),
(382,-7,cs)
);
}
);
width = 748;
},
{
layerId = "6D7935D2-FE9A-430A-A298-15DA7AF44FAE";
shapes = (
{
closed = 1;
nodes = (
(420,7,l),
(371,7,l),
(371,-112,l),
(417,-112,ls),
(467,-112,o),
(489,-129,o),
(489,-160,cs),
(489,-194,o),
(467,-211,o),
(417,-211,cs),
(331,-211,l),
(331,-258,l),
(431,-258,ls),
(501,-258,o),
(548,-220,o),
(548,-160,cs),
(548,-98,o),
(498,-65,o),
(420,-67,c)
);
},
{
closed = 1;
nodes = (
(546,-7,o),
(662,74,o),
(712,208,c),
(644,223,l),
(599,115,o),
(509,55,o),
(390,55,cs),
(237,55,o),
(120,168,o),
(120,345,cs),
(120,523,o),
(237,636,o),
(390,636,cs),
(517,636,o),
(600,568,o),
(642,453,c),
(710,474,l),
(663,618,o),
(542,697,o),
(390,697,cs),
(196,697,o),
(48,550,o),
(48,345,cs),
(48,140,o),
(196,-7,o),
(390,-7,cs)
);
}
);
width = 771;
}
);
unicode = 199;
userData = {
com.schriftgestaltung.Glyphs.ColorIndex = 4;
};
},
{
color = 4;
glyphname = Cdotaccent;
lastChange = "2024-08-04 20:52:39 +0000";
layers = (
{
layerId = "4D0F633C-81E1-4D6C-A640-637CE706A5C5";
shapes = (
{
closed = 1;
nodes = (
(332,799,o),
(358,773,o),
(392,773,cs),
(425,773,o),
(452,799,o),
(452,833,cs),
(452,866,o),
(425,893,o),
(392,893,cs),
(358,893,o),
(332,866,o),
(332,833,cs)
);
},
{
closed = 1;
nodes = (
(532,-7,o),
(668,70,o),
(716,215,c),
(608,240,l),
(571,151,o),
(484,92,o),
(392,92,cs),
(254,92,o),
(154,191,o),
(154,348,cs),
(154,504,o),
(257,602,o),
(395,602,cs),
(495,602,o),
(567,543,o),
(602,449,c),
(708,482,l),
(664,624,o),
(541,702,o),
(392,702,cs),
(196,702,o),
(37,555,o),
(37,348,cs),
(37,139,o),
(196,-7,o),
(392,-7,cs)
);
}
);
width = 761;
},
{
layerId = "86171893-955A-4CD1-BD1B-2F7A53CC85DC";
shapes = (
{
closed = 1;
nodes = (
(292,802,o),
(326,768,o),
(371,768,cs),
(417,768,o),
(452,802,o),
(452,847,cs),
(452,893,o),
(417,928,o),
(371,928,cs),
(326,928,o),
(292,893,o),
(292,847,cs)
);
},
{
closed = 1;
nodes = (
(554,-7,o),
(679,90,o),
(716,245,c),
(521,291,l),
(496,208,o),
(453,173,o),
(379,173,cs),
(288,173,o),
(232,244,o),
(232,353,cs),
(232,460,o),
(288,532,o),
(379,532,cs),
(441,532,o),
(491,506,o),
(517,418,c),
(710,478,l),
(666,620,o),
(545,712,o),
(382,712,cs),
(176,712,o),
(32,567,o),
(32,353,cs),
(32,145,o),
(168,-7,o),
(382,-7,cs)
);
}
);
width = 748;
},
{
layerId = "6D7935D2-FE9A-430A-A298-15DA7AF44FAE";
shapes = (
{
closed = 1;
nodes = (
(355,828,o),
(376,807,o),
(401,807,cs),
(426,807,o),
(447,828,o),
(447,853,cs),
(447,878,o),
(426,899,o),
(401,899,cs),
(376,899,o),
(355,878,o),
(355,853,cs)
);
},
{
closed = 1;
nodes = (
(546,-7,o),
(662,74,o),
(712,208,c),
(644,223,l),
(599,115,o),
(509,55,o),
(390,55,cs),
(237,55,o),
(120,168,o),
(120,345,cs),
(120,523,o),
(237,636,o),
(390,636,cs),
(517,636,o),
(600,568,o),
(642,453,c),
(710,474,l),
(663,618,o),
(542,697,o),
(390,697,cs),
(196,697,o),
(48,550,o),
(48,345,cs),
(48,140,o),
(196,-7,o),
(390,-7,cs)
);
}
);
width = 771;
}
);
unicode = 266;
},
{
color = 4;
glyphname = D;
lastChange = "2024-08-04 17:24:52 +0000";
layers = (
{
anchors = (
{
name = top;
pos = (355,696);
}
);
layerId = "4D0F633C-81E1-4D6C-A640-637CE706A5C5";
shapes = (
{
closed = 1;
nodes = (
(302,695,cs),
(75,695,l),
(75,0,l),
(302,0,ls),
(525,0,o),
(671,131,o),
(671,345,cs),
(671,560,o),
(525,695,o)
);
},
{
closed = 1;
nodes = (
(189,93,l),
(189,602,l),
(302,602,ls),
(466,602,o),
(554,504,o),
(554,345,cs),
(554,187,o),
(466,93,o),
(302,93,cs)
);
}
);
width = 709;
},
{
anchors = (
{
name = top;
pos = (358,707);
}
);
layerId = "86171893-955A-4CD1-BD1B-2F7A53CC85DC";
shapes = (
{
closed = 1;
nodes = (
(335,705,cs),
(56,705,l),
(56,0,l),
(335,0,ls),
(560,0,o),
(703,149,o),
(703,353,cs),
(703,560,o),
(560,705,o)
);
},
{
closed = 1;
nodes = (
(252,173,l),
(252,535,l),
(320,535,ls),
(433,535,o),
(504,470,o),
(504,353,cs),
(504,237,o),
(433,173,o),
(320,173,cs)
);
}
);
width = 735;
},
{
anchors = (
{
name = top;
pos = (348,690);
}
);
layerId = "6D7935D2-FE9A-430A-A298-15DA7AF44FAE";
shapes = (
{
closed = 1;
nodes = (
(287,690,c),
(80,690,l),
(80,0,l),
(287,0,l),
(520,0,o),
(657,127,o),
(657,344,c),
(657,558,o),
(520,690,o)
);
},
{
closed = 1;
nodes = (
(150,58,l),
(150,632,l),
(287,632,l),
(485,632,o),
(586,520,o),
(586,344,c),
(586,164,o),
(485,58,o),
(287,58,c)
);
}
);
width = 706;
}
);
unicode = 68;
userData = {
com.schriftgestaltung.Glyphs.ColorIndex = 4;
com.typemytype.robofont.guides = (
{
angle = 0;
isGlobal = 0;
magnetic = 5;
x = 122;
y = 684;
}
);
com.typesupply.AccentFactory.yCoordinates = {
bottom = {
name = origin;
type = glyphMetric;
};
top = {
name = capHeight;
type = fontInfo;
};
};
};
},
{
color = 4;
glyphname = Eth;
lastChange = "2024-08-04 18:49:54 +0000";
layers = (
{
layerId = "4D0F633C-81E1-4D6C-A640-637CE706A5C5";
shapes = (
{
closed = 1;
nodes = (
(9,293,l),
(379,293,l),
(379,398,l),
(9,398,l)
);
},
{
closed = 1;
nodes = (
(314,695,cs),
(86,695,l),
(86,0,l),
(314,0,ls),
(537,0,o),
(682,131,o),
(682,345,cs),
(682,560,o),
(537,695,o)
);
},
{
closed = 1;
nodes = (
(201,87,l),
(201,603,l),
(314,603,ls),
(477,603,o),
(565,504,o),
(565,345,cs),
(565,187,o),
(477,87,o),
(314,87,cs)
);
}
);
width = 720;
},
{
layerId = "86171893-955A-4CD1-BD1B-2F7A53CC85DC";
shapes = (
{
closed = 1;
nodes = (
(2,274,l),
(397,274,l),
(397,433,l),
(2,433,l)
);
},
{
closed = 1;
nodes = (
(338,705,cs),
(58,705,l),
(58,0,l),
(338,0,ls),
(563,0,o),
(706,149,o),
(706,353,cs),
(706,560,o),
(563,705,o)
);
},
{
closed = 1;
nodes = (
(255,172,l),
(255,535,l),
(322,535,ls),
(436,535,o),
(506,470,o),
(506,353,cs),
(506,237,o),
(436,172,o),
(322,172,cs)
);
}
);
width = 738;
},
{
layerId = "6D7935D2-FE9A-430A-A298-15DA7AF44FAE";
shapes = (
{
closed = 1;
nodes = (
(9,316,l),
(379,316,l),
(379,381,l),
(9,381,l)
);
},
{
closed = 1;
nodes = (
(287,690,c),
(80,690,l),
(80,0,l),
(287,0,l),
(520,0,o),
(657,127,o),
(657,344,c),
(657,558,o),
(520,690,o)
);
},
{
closed = 1;
nodes = (
(150,58,l),
(150,632,l),
(287,632,l),
(485,632,o),
(586,520,o),
(586,344,c),
(586,164,o),
(485,58,o),
(287,58,c)
);
}
);
width = 705;
}
);
unicode = 208;
userData = {
com.schriftgestaltung.Glyphs.ColorIndex = 4;
};
},
{
color = 4;
glyphname = E;
lastChange = "2024-08-04 17:25:57 +0000";
layers = (
{
anchors = (
{
name = bottom;
pos = (262,0);
},
{
name = ogonek;
pos = (459,0);
},
{
name = top;
pos = (262,696);
}
);
layerId = "4D0F633C-81E1-4D6C-A640-637CE706A5C5";
shapes = (
{
closed = 1;
nodes = (
(459,695,l),
(75,695,l),
(75,0,l),
(459,0,l),
(459,93,l),
(189,93,l),
(189,306,l),
(429,306,l),
(429,399,l),
(189,399,l),
(189,602,l),
(459,602,l)
);
}
);
width = 524;
},
{
anchors = (
{
name = bottom;
pos = (277,0);
},
{
name = ogonek;
pos = (277,0);
},
{
name = top;
pos = (277,707);
}
);
layerId = "86171893-955A-4CD1-BD1B-2F7A53CC85DC";
shapes = (
{
closed = 1;
nodes = (
(507,705,l),
(56,705,l),
(56,0,l),
(507,0,l),
(507,157,l),
(252,157,l),
(252,284,l),
(477,284,l),
(477,433,l),
(252,433,l),
(252,548,l),
(507,548,l)
);
}
);
width = 548;
},
{
anchors = (
{
name = bottom;
pos = (248,0);
},
{
name = ogonek;
pos = (445,0);
},
{
name = top;
pos = (248,690);
}
);
layerId = "6D7935D2-FE9A-430A-A298-15DA7AF44FAE";
shapes = (
{
closed = 1;
nodes = (
(445,690,l),
(80,690,l),
(80,0,l),
(445,0,l),
(445,58,l),
(150,58,l),
(150,318,l),
(415,318,l),
(415,376,l),
(150,376,l),
(150,632,l),
(445,632,l)
);
}
);
width = 503;
}
);
unicode = 69;
userData = {
com.schriftgestaltung.Glyphs.ColorIndex = 4;
com.typesupply.AccentFactory.yCoordinates = {
bottom = {
name = origin;
type = glyphMetric;
};
top = {
name = capHeight;
type = fontInfo;
};
};
};
},
{
color = 4;
glyphname = F;
lastChange = "2024-08-04 17:26:47 +0000";
layers = (
{
layerId = "4D0F633C-81E1-4D6C-A640-637CE706A5C5";
shapes = (
{
closed = 1;
nodes = (
(75,0,l),
(189,0,l),
(189,304,l),
(419,304,l),
(419,397,l),
(189,397,l),
(189,602,l),
(484,602,l),
(484,695,l),
(75,695,l)
);
}
);
width = 515;
},
{
layerId = "86171893-955A-4CD1-BD1B-2F7A53CC85DC";
shapes = (
{
closed = 1;
nodes = (
(56,0,l),
(252,0,l),
(252,276,l),
(460,276,l),
(460,425,l),
(252,425,l),
(252,549,l),
(534,549,l),
(534,705,l),
(56,705,l)
);
}
);
width = 561;
},
{
layerId = "6D7935D2-FE9A-430A-A298-15DA7AF44FAE";
shapes = (
{
closed = 1;
nodes = (
(80,0,l),
(150,0,l),
(150,318,l),
(410,318,l),
(410,376,l),
(150,376,l),
(150,632,l),
(458,632,l),
(458,690,l),
(80,690,l)
);
}
);
width = 493;
}
);
unicode = 70;
userData = {
com.schriftgestaltung.Glyphs.ColorIndex = 4;
com.typesupply.AccentFactory.yCoordinates = {
bottom = {
name = origin;
type = glyphMetric;
};
top = {
name = capHeight;
type = fontInfo;
};
};
};
},
{
color = 4;
glyphname = G;
lastChange = "2024-08-04 17:32:36 +0000";
layers = (
{
anchors = (
{
name = bottom;
pos = (386,0);
},
{
name = top;
pos = (386,696);
}
);
layerId = "4D0F633C-81E1-4D6C-A640-637CE706A5C5";
shapes = (
{
closed = 1;
nodes = (
(702,503,l),
(657,628,o),
(542,702,o),
(392,702,cs),
(196,702,o),
(37,557,o),
(37,348,cs),
(37,139,o),
(198,-7,o),
(388,-7,c),
(545,-7,o),
(627,124,o),
(635,164,c),
(635,0,l),
(739,0,l),
(739,392,l),
(366,392,l),
(366,299,l),
(615,299,l),
(608,208,o),
(522,92,o),
(394,92,cs),
(239,92,o),
(154,196,o),
(154,348,cs),
(154,500,o),
(253,602,o),
(389,602,cs),
(484,602,o),
(558,550,o),
(588,462,c)
);
}
);
width = 776;
},
{
anchors = (
{
name = bottom;
pos = (379,0);
},
{
name = top;
pos = (379,707);
}
);
layerId = "86171893-955A-4CD1-BD1B-2F7A53CC85DC";
shapes = (
{
closed = 1;
nodes = (
(707,513,l),
(658,650,o),
(535,712,o),
(389,712,cs),
(182,712,o),
(32,568,o),
(32,354,cs),
(32,140,o),
(184,-7,o),
(360,-7,cs),
(466,-7,o),
(537,55,o),
(561,115,c),
(561,0,l),
(725,0,l),
(725,402,l),
(359,402,l),
(359,253,l),
(546,253,l),
(517,201,o),
(468,168,o),
(409,168,cs),
(313,168,o),
(232,233,o),
(232,354,cs),
(232,462,o),
(291,532,o),
(390,532,cs),
(458,532,o),
(499,497,o),
(518,444,c)
);
}
);
width = 757;
},
{
anchors = (
{
name = bottom;
pos = (398,0);
},
{
name = top;
pos = (398,690);
}
);
layerId = "6D7935D2-FE9A-430A-A298-15DA7AF44FAE";
shapes = (
{
closed = 1;
nodes = (
(704,493,l),
(650,622,o),
(534,697,o),
(394,697,cs),
(187,697,o),
(48,550,o),
(48,345,cs),
(48,140,o),
(196,-7,o),
(390,-7,c),
(547,-7,o),
(640,131,o),
(659,207,c),
(659,0,l),
(725,0,l),
(725,368,l),
(366,368,l),
(366,309,l),
(641,309,l),
(631,200,o),
(540,55,o),
(394,55,cs),
(241,55,o),
(120,169,o),
(120,345,cs),
(120,523,o),
(239,635,o),
(394,635,cs),
(528,635,o),
(611,531,o),
(635,468,c)
);
}
);
width = 773;
}
);
unicode = 71;
userData = {
com.schriftgestaltung.Glyphs.ColorIndex = 4;
com.typemytype.robofont.layerData = {
b = {
anchors = (
{
name = top;
x = 411;
y = 683;
},
{
name = bottom;
x = 411;
y = 0;
}
);
components = (
);
contours = (
{
points = (
{
segmentType = curve;
smooth = 1;
x = 60;
y = 341;
},
{
smooth = 0;
x = 60;
y = 138;
},
{
smooth = 0;
x = 214;
y = -6;
},
{
segmentType = curve;
smooth = 1;
x = 407;
y = -6;
},
{
smooth = 0;
x = 590;
y = -6;
},
{
smooth = 0;
x = 747;
y = 110;
},
{
segmentType = curve;
smooth = 0;
x = 764;
y = 341;
},
{
segmentType = line;
smooth = 0;
x = 764;
y = 360;
},
{
segmentType = line;
smooth = 0;
x = 381;
y = 360;
},
{
segmentType = line;
smooth = 0;
x = 381;
y = 341;
},
{
segmentType = line;
smooth = 0;
x = 747;
y = 341;
},
{
smooth = 0;
x = 733;
y = 132;
},
{
smooth = 0;
x = 600;
y = 6;
},
{
segmentType = curve;
smooth = 1;
x = 407;
y = 6;
},
{
smooth = 0;
x = 226;
y = 6;
},
{
smooth = 0;
x = 80;
y = 137;
},
{
segmentType = curve;
smooth = 1;
x = 80;
y = 341;
},
{
smooth = 0;
x = 80;
y = 547;
},
{
smooth = 0;
x = 226;
y = 677;
},
{
segmentType = curve;
smooth = 1;
x = 407;
y = 677;
},
{
smooth = 0;
x = 528;
y = 677;
},
{
smooth = 0;
x = 633;
y = 618;
},
{
segmentType = curve;
smooth = 0;
x = 683;
y = 525;
},
{
segmentType = line;
smooth = 0;
x = 709;
y = 525;
},
{
smooth = 0;
x = 648;
y = 637;
},
{
smooth = 0;
x = 537;
y = 690;
},
{
segmentType = curve;
smooth = 1;
x = 407;
y = 690;
},
{
smooth = 0;
x = 214;
y = 690;
},
{
smooth = 0;
x = 60;
y = 546;
}
);
}
);
lib = {
};
name = G;
unicodes = (
);
width = 792;
};
};
com.typesupply.AccentFactory.yCoordinates = {
bottom = {
name = origin;
type = glyphMetric;
};
top = {
name = capHeight;
type = fontInfo;
};
};
};
},
{
color = 4;
glyphname = Gcommaaccent;
lastChange = "2024-08-04 20:54:05 +0000";
layers = (
{
anchors = (
{
name = _bottom;
pos = (386,0);
}
);
layerId = "4D0F633C-81E1-4D6C-A640-637CE706A5C5";
shapes = (
{
closed = 1;
nodes = (
(399,-278,o),
(475,-224,o),
(475,-133,cs),
(475,-89,o),
(443,-45,o),
(396,-45,cs),
(356,-45,o),
(324,-72,o),
(324,-113,cs),
(324,-155,o),
(354,-172,o),
(386,-172,c),
(399,-172,o),
(413,-168,o),
(420,-161,c),
(418,-184,o),
(375,-224,o),
(321,-219,c),
(321,-271,l)
);
},
{
ref = G;
}
);
width = 776;
},
{
anchors = (
{
name = _bottom;
pos = (380,0);
}
);
layerId = "86171893-955A-4CD1-BD1B-2F7A53CC85DC";
shapes = (
{
closed = 1;
nodes = (
(385,-326,o),
(484,-273,o),
(484,-152,cs),
(484,-94,o),
(442,-38,o),
(382,-38,cs),
(329,-38,o),
(288,-73,o),
(288,-126,cs),
(288,-180,o),
(325,-202,o),
(369,-202,c),
(378,-202,o),
(386,-201,o),
(394,-198,c),
(378,-227,o),
(335,-243,o),
(284,-241,c),
(284,-318,l)
);
},
{
alignment = -1;
ref = G;
}
);
width = 757;
},
{
anchors = (
{
name = _bottom;
pos = (391,-4);
}
);
layerId = "6D7935D2-FE9A-430A-A298-15DA7AF44FAE";
shapes = (
{
closed = 1;
nodes = (
(401,-230,o),
(454,-186,o),
(454,-118,cs),
(454,-86,o),
(431,-51,o),
(398,-51,cs),
(368,-51,o),
(345,-72,o),
(345,-100,cs),
(345,-130,o),
(365,-143,o),
(391,-143,c),
(399,-143,o),
(408,-141,o),
(415,-136,c),
(411,-165,o),
(380,-188,o),
(344,-186,c),
(344,-226,l)
);
},
{
alignment = -1;
ref = G;
}
);
width = 773;
}
);
unicode = 290;
userData = {
com.schriftgestaltung.Glyphs.ColorIndex = 8;
com.typesupply.AccentFactory.compileType = manual;
};
},
{
color = 4;
glyphname = H;
lastChange = "2024-08-04 17:33:20 +0000";
layers = (
{
guides = (
{
pos = (132,695);
}
);
layerId = "4D0F633C-81E1-4D6C-A640-637CE706A5C5";
shapes = (
{
closed = 1;
nodes = (
(75,0,l),
(189,0,l),
(189,695,l),
(75,695,l)
);
},
{
closed = 1;
nodes = (
(516,0,l),
(630,0,l),
(630,695,l),
(516,695,l)
);
},
{
closed = 1;
nodes = (
(169,304,l),
(543,304,l),
(543,397,l),
(169,397,l)
);
}
);
width = 705;
},
{
layerId = "86171893-955A-4CD1-BD1B-2F7A53CC85DC";
shapes = (
{
closed = 1;
nodes = (
(56,0,l),
(252,0,l),
(252,705,l),
(56,705,l)
);
},
{
closed = 1;
nodes = (
(491,0,l),
(687,0,l),
(687,705,l),
(491,705,l)
);
},
{
closed = 1;
nodes = (
(232,283,l),
(514,283,l),
(514,440,l),
(232,440,l)
);
}
);
width = 743;
},
{
layerId = "6D7935D2-FE9A-430A-A298-15DA7AF44FAE";
shapes = (
{
closed = 1;
nodes = (
(80,0,l),
(150,0,l),
(150,690,l),
(80,690,l)
);
},
{
closed = 1;
nodes = (
(529,0,l),
(599,0,l),
(599,690,l),
(529,690,l)
);
},
{
closed = 1;
nodes = (
(134,323,l),
(549,323,l),
(549,381,l),
(134,381,l)
);
}
);
width = 679;
}
);
unicode = 72;
userData = {
com.schriftgestaltung.Glyphs.ColorIndex = 4;
com.typesupply.AccentFactory.yCoordinates = {
bottom = {
name = origin;
type = glyphMetric;
};
top = {
name = capHeight;
type = fontInfo;
};
};
};
},
{
color = 4;
glyphname = I;
lastChange = "2024-08-04 20:02:12 +0000";
layers = (
{
anchors = (
{
name = ogonek;
pos = (258,1);
},
{
name = top;
pos = (201,696);
}
);
layerId = "4D0F633C-81E1-4D6C-A640-637CE706A5C5";
shapes = (
{
closed = 1;
nodes = (
(337,0,l),
(337,93,l),
(258,93,l),
(258,602,l),
(337,602,l),
(337,695,l),
(65,695,l),
(65,602,l),
(144,602,l),
(144,93,l),
(65,93,l),
(65,0,l)
);
}
);
width = 402;
},
{
anchors = (
{
name = ogonek;
pos = (328,0);
},
{
name = top;
pos = (231,707);
}
);
layerId = "86171893-955A-4CD1-BD1B-2F7A53CC85DC";
shapes = (
{
closed = 1;
nodes = (
(404,0,l),
(404,156,l),
(328,156,l),
(328,549,l),
(404,549,l),
(404,705,l),
(56,705,l),
(56,549,l),
(132,549,l),
(132,156,l),
(56,156,l),
(56,0,l)
);
}
);
width = 460;
},
{
anchors = (
{
name = ogonek;
pos = (202,1);
},
{
name = top;
pos = (167,690);
}
);
layerId = "6D7935D2-FE9A-430A-A298-15DA7AF44FAE";
shapes = (
{
closed = 1;
nodes = (
(273,0,l),
(273,58,l),
(202,58,l),
(202,632,l),
(273,632,l),
(273,690,l),
(60,690,l),
(60,632,l),
(132,632,l),
(132,58,l),
(60,58,l),
(60,0,l)
);
}
);
width = 333;
}
);
unicode = 73;
userData = {
com.schriftgestaltung.Glyphs.ColorIndex = 4;
com.typemytype.robofont.guides = (
{
angle = 0;
isGlobal = 0;
magnetic = 5;
x = 83;
y = 684;
}
);
com.typesupply.AccentFactory.yCoordinates = {
bottom = {
name = origin;
type = glyphMetric;
};
top = {
name = capHeight;
type = fontInfo;
};
};
};
},
{
color = 4;
glyphname = J;
lastChange = "2024-08-04 17:34:13 +0000";
layers = (
{
layerId = "4D0F633C-81E1-4D6C-A640-637CE706A5C5";
shapes = (
{
closed = 1;
nodes = (
(369,-7,o),
(454,68,o),
(454,194,cs),
(454,695,l),
(339,695,l),
(339,194,ls),
(339,136,o),
(310,94,o),
(249,94,cs),
(201,94,o),
(165,135,o),
(152,204,c),
(44,170,l),
(59,78,o),
(129,-7,o),
(249,-7,cs)
);
}
);
width = 564;
},
{
layerId = "86171893-955A-4CD1-BD1B-2F7A53CC85DC";
shapes = (
{
closed = 1;
nodes = (
(429,-7,o),
(521,78,o),
(521,238,cs),
(521,705,l),
(324,705,l),
(324,238,ls),
(324,193,o),
(306,169,o),
(269,169,cs),
(230,169,o),
(209,195,o),
(200,255,c),
(18,200,l),
(39,70,o),
(136,-7,o),
(278,-7,cs)
);
}
);
width = 582;
},
{
layerId = "6D7935D2-FE9A-430A-A298-15DA7AF44FAE";
shapes = (
{
closed = 1;
nodes = (
(330,-7,o),
(402,64,o),
(402,170,cs),
(402,690,l),
(332,690,l),
(332,170,ls),
(332,112,o),
(302,55,o),
(224,55,cs),
(162,55,o),
(119,102,o),
(105,185,c),
(37,168,l),
(40,113,o),
(90,-7,o),
(227,-7,cs)
);
}
);
width = 498;
}
);
unicode = 74;
userData = {
com.schriftgestaltung.Glyphs.ColorIndex = 4;
com.typesupply.AccentFactory.yCoordinates = {
bottom = {
name = origin;
type = glyphMetric;
};
top = {
name = capHeight;
type = fontInfo;
};
};
};
},
{
color = 4;
glyphname = K;
lastChange = "2024-08-05 09:08:07 +0000";
layers = (
{
layerId = "4D0F633C-81E1-4D6C-A640-637CE706A5C5";
shapes = (
{
closed = 1;
nodes = (
(189,0,l),
(189,308,l),
(356,308,o),
(474,197,o),
(487,0,c),
(609,0,l),
(595,188,o),
(487,317,o),
(362,357,c),
(466,392,o),
(583,551,o),
(587,695,c),
(465,695,l),
(454,515,o),
(350,404,o),
(189,404,c),
(189,695,l),
(75,695,l),
(75,0,l)
);
}
);
width = 629;
},
{
layerId = "86171893-955A-4CD1-BD1B-2F7A53CC85DC";
shapes = (
{
closed = 1;
nodes = (
(252,0,l),
(252,277,l),
(395,277,o),
(487,175,o),
(498,0,c),
(710,0,l),
(682,193,o),
(582,325,o),
(441,356,c),
(580,403,o),
(672,533,o),
(687,705,c),
(475,705,l),
(466,539,o),
(383,437,o),
(252,437,c),
(252,705,l),
(56,705,l),
(56,0,l)
);
}
);
width = 722;
},
{
layerId = "6D7935D2-FE9A-430A-A298-15DA7AF44FAE";
shapes = (
{
closed = 1;
nodes = (
(150,0,l),
(150,324,l),
(346,313,o),
(476,217,o),
(486,0,c),
(560,0,l),
(545,193,o),
(435,328,o),
(284,356,c),
(420,388,o),
(517,538,o),
(535,690,c),
(461,690,l),
(439,521,o),
(356,394,o),
(150,384,c),
(150,690,l),
(80,690,l),
(80,0,l)
);
}
);
width = 583;
}
);
unicode = 75;
userData = {
com.schriftgestaltung.Glyphs.ColorIndex = 4;
com.typesupply.AccentFactory.yCoordinates = {
bottom = {
name = origin;
type = glyphMetric;
};
top = {
name = capHeight;
type = fontInfo;
};
};
};
},
{
color = 4;
glyphname = Kcommaaccent;
lastChange = "2024-07-30 13:44:24 +0000";
layers = (
{
anchors = (
{
name = _bottom;
pos = (317,0);
}
);
layerId = "4D0F633C-81E1-4D6C-A640-637CE706A5C5";
shapes = (
{
closed = 1;
nodes = (
(345,-278,o),
(421,-224,o),
(421,-133,cs),
(421,-89,o),
(389,-45,o),
(342,-45,cs),
(302,-45,o),
(270,-72,o),
(270,-113,cs),
(270,-155,o),
(300,-172,o),
(332,-172,c),
(345,-172,o),
(359,-168,o),
(366,-161,c),
(364,-184,o),
(321,-224,o),
(267,-219,c),
(267,-271,l)
);
},
{
ref = K;
}
);
width = 635;
},
{
anchors = (
{
name = _bottom;
pos = (380,0);
}
);
layerId = "86171893-955A-4CD1-BD1B-2F7A53CC85DC";
shapes = (
{
closed = 1;
nodes = (
(391,-326,o),
(490,-273,o),
(490,-152,cs),
(490,-94,o),
(448,-38,o),
(388,-38,cs),
(335,-38,o),
(294,-73,o),
(294,-126,cs),
(294,-180,o),
(331,-202,o),
(375,-202,c),
(384,-202,o),
(392,-201,o),
(400,-198,c),
(384,-227,o),
(341,-243,o),
(290,-241,c),
(290,-318,l)
);
},
{
alignment = -1;
ref = K;
}
);
width = 759;
},
{
anchors = (
{
name = _bottom;
pos = (281,0);
}
);
layerId = "6D7935D2-FE9A-430A-A298-15DA7AF44FAE";
shapes = (
{
closed = 1;
nodes = (
(305,-230,o),
(358,-186,o),
(358,-118,cs),
(358,-86,o),
(335,-51,o),
(302,-51,cs),
(272,-51,o),
(249,-72,o),
(249,-100,cs),
(249,-130,o),
(269,-143,o),
(295,-143,c),
(303,-143,o),
(312,-141,o),
(319,-136,c),
(315,-165,o),
(284,-188,o),
(248,-186,c),
(248,-226,l)
);
},
{
alignment = -1;
ref = K;
}
);
width = 583;
}
);
unicode = 310;
userData = {
com.schriftgestaltung.Glyphs.ColorIndex = 8;
com.typesupply.AccentFactory.compileType = manual;
};
},
{
color = 4;
glyphname = L;
lastChange = "2024-08-04 17:39:33 +0000";
layers = (
{
anchors = (
{
name = bottom;
pos = (248,0);
},
{
name = commaaccent;
pos = (248,10);
},
{
name = top;
pos = (222,696);
},
{
name = topright;
pos = (424,696);
}
);
layerId = "4D0F633C-81E1-4D6C-A640-637CE706A5C5";
shapes = (
{
closed = 1;
nodes = (
(75,695,l),
(75,0,l),
(424,0,l),
(424,92,l),
(189,92,l),
(189,695,l)
);
}
);
width = 444;
},
{
anchors = (
{
name = bottom;
pos = (261,0);
},
{
name = commaaccent;
pos = (261,10);
},
{
name = top;
pos = (229,707);
},
{
name = topright;
pos = (456,707);
}
);
layerId = "86171893-955A-4CD1-BD1B-2F7A53CC85DC";
shapes = (
{
closed = 1;
nodes = (
(56,705,l),
(56,0,l),
(471,0,l),
(471,150,l),
(252,150,l),
(252,705,l)
);
}
);
width = 491;
},
{
anchors = (
{
name = bottom;
pos = (235,0);
},
{
name = commaaccent;
pos = (235,10);
},
{
name = top;
pos = (213,690);
},
{
name = topright;
pos = (401,690);
}
);
layerId = "6D7935D2-FE9A-430A-A298-15DA7AF44FAE";
shapes = (
{
closed = 1;
nodes = (
(80,690,l),
(80,0,l),
(401,0,l),
(401,57,l),
(150,57,l),
(150,690,l)
);
}
);
width = 421;
}
);
unicode = 76;
userData = {
com.schriftgestaltung.Glyphs.ColorIndex = 4;
com.typesupply.AccentFactory.yCoordinates = {
bottom = {
name = origin;
type = glyphMetric;
};
top = {
name = capHeight;
type = fontInfo;
};
};
};
},
{
color = 4;
glyphname = Lcaron;
lastChange = "2024-07-30 11:35:41 +0000";
layers = (
{
anchors = (
{
name = _bottom;
pos = (352,741);
}
);
layerId = "4D0F633C-81E1-4D6C-A640-637CE706A5C5";
shapes = (
{
closed = 1;
nodes = (
(349,471,o),
(425,525,o),
(425,616,cs),
(425,660,o),
(393,704,o),
(346,704,cs),
(306,704,o),
(274,677,o),
(274,636,cs),
(274,594,o),
(304,577,o),
(336,577,cs),
(349,577,o),
(363,581,o),
(370,588,c),
(368,565,o),
(325,525,o),
(271,530,c),
(271,478,l)
);
},
{
ref = L;
}
);
width = 464;
},
{
anchors = (
{
name = _bottom;
pos = (426,743);
}
);
layerId = "86171893-955A-4CD1-BD1B-2F7A53CC85DC";
shapes = (
{
closed = 1;
nodes = (
(422,421,o),
(521,474,o),
(521,595,cs),
(521,653,o),
(479,709,o),
(419,709,cs),
(366,709,o),
(325,674,o),
(325,621,cs),
(325,567,o),
(362,545,o),
(406,545,cs),
(415,545,o),
(423,546,o),
(431,549,c),
(415,520,o),
(372,504,o),
(321,506,c),
(321,429,l)
);
},
{
alignment = -1;
ref = L;
}
);
width = 553;
},
{
anchors = (
{
name = _bottom;
pos = (308,741);
}
);
layerId = "6D7935D2-FE9A-430A-A298-15DA7AF44FAE";
shapes = (
{
closed = 1;
nodes = (
(314,524,o),
(367,568,o),
(367,636,cs),
(367,668,o),
(344,703,o),
(311,703,cs),
(281,703,o),
(258,682,o),
(258,654,cs),
(258,624,o),
(278,611,o),
(304,611,cs),
(312,611,o),
(321,613,o),
(328,618,c),
(324,589,o),
(293,566,o),
(257,568,c),
(257,528,l)
);
},
{
alignment = -1;
ref = L;
}
);
width = 431;
}
);
unicode = 317;
userData = {
com.schriftgestaltung.Glyphs.ColorIndex = 8;
com.typesupply.AccentFactory.compileType = manual;
};
},
{
color = 4;
glyphname = Lcommaaccent;
lastChange = "2024-08-04 20:57:25 +0000";
layers = (
{
anchors = (
{
name = _commaaccent;
pos = (248,0);
}
);
layerId = "4D0F633C-81E1-4D6C-A640-637CE706A5C5";
shapes = (
{
closed = 1;
nodes = (
(250,-278,o),
(326,-224,o),
(326,-133,cs),
(326,-89,o),
(294,-45,o),
(247,-45,cs),
(207,-45,o),
(175,-72,o),
(175,-113,cs),
(175,-155,o),
(205,-172,o),
(237,-172,c),
(250,-172,o),
(264,-168,o),
(271,-161,c),
(269,-184,o),
(226,-224,o),
(172,-219,c),
(172,-271,l)
);
},
{
ref = L;
}
);
width = 444;
},
{
anchors = (
{
name = _commaaccent;
pos = (280,8);
}
);
layerId = "86171893-955A-4CD1-BD1B-2F7A53CC85DC";
shapes = (
{
closed = 1;
nodes = (
(263,-326,o),
(362,-273,o),
(362,-152,cs),
(362,-94,o),
(320,-38,o),
(260,-38,cs),
(207,-38,o),
(166,-73,o),
(166,-126,cs),
(166,-180,o),
(203,-202,o),
(247,-202,c),
(256,-202,o),
(264,-201,o),
(272,-198,c),
(256,-227,o),
(213,-243,o),
(162,-241,c),
(162,-318,l)
);
},
{
alignment = -1;
ref = L;
}
);
width = 491;
},
{
anchors = (
{
name = _commaaccent;
pos = (240,0);
}
);
layerId = "6D7935D2-FE9A-430A-A298-15DA7AF44FAE";
shapes = (
{
closed = 1;
nodes = (
(245,-230,o),
(298,-186,o),
(298,-118,cs),
(298,-86,o),
(275,-51,o),
(242,-51,cs),
(212,-51,o),
(189,-72,o),
(189,-100,cs),
(189,-130,o),
(209,-143,o),
(235,-143,c),
(243,-143,o),
(252,-141,o),
(259,-136,c),
(255,-165,o),
(224,-188,o),
(188,-186,c),
(188,-226,l)
);
},
{
alignment = -1;
ref = L;
}
);
width = 421;
}
);
unicode = 315;
userData = {
com.schriftgestaltung.Glyphs.ColorIndex = 8;
com.typesupply.AccentFactory.compileType = manual;
};
},
{
color = 4;
glyphname = Ldot;
lastChange = "2024-08-04 20:57:34 +0000";
layers = (
{
layerId = "4D0F633C-81E1-4D6C-A640-637CE706A5C5";
shapes = (
{
closed = 1;
nodes = (
(424,0,l),
(424,92,l),
(189,92,l),
(189,695,l),
(75,695,l),
(75,0,l)
);
},
{
closed = 1;
nodes = (
(385,315,o),
(412,341,o),
(412,375,cs),
(412,408,o),
(385,435,o),
(352,435,cs),
(318,435,o),
(292,408,o),
(292,375,cs),
(292,341,o),
(318,315,o),
(352,315,cs)
);
}
);
width = 444;
},
{
layerId = "86171893-955A-4CD1-BD1B-2F7A53CC85DC";
shapes = (
{
closed = 1;
nodes = (
(471,0,l),
(471,150,l),
(252,150,l),
(252,705,l),
(56,705,l),
(56,0,l)
);
},
{
closed = 1;
nodes = (
(445,324,o),
(480,359,o),
(480,403,cs),
(480,449,o),
(445,484,o),
(399,484,cs),
(355,484,o),
(320,449,o),
(320,403,cs),
(320,359,o),
(355,324,o),
(399,324,cs)
);
}
);
width = 500;
},
{
layerId = "6D7935D2-FE9A-430A-A298-15DA7AF44FAE";
shapes = (
{
closed = 1;
nodes = (
(401,0,l),
(401,57,l),
(150,57,l),
(150,690,l),
(80,690,l),
(80,0,l)
);
},
{
closed = 1;
nodes = (
(363,330,o),
(384,351,o),
(384,376,cs),
(384,401,o),
(363,422,o),
(338,422,cs),
(312,422,o),
(292,401,o),
(292,376,cs),
(292,351,o),
(312,330,o),
(338,330,cs)
);
}
);
width = 421;
}
);
unicode = 319;
},
{
color = 4;
glyphname = Lslash;
lastChange = "2024-08-04 20:57:47 +0000";
layers = (
{
layerId = "4D0F633C-81E1-4D6C-A640-637CE706A5C5";
shapes = (
{
closed = 1;
nodes = (
(9,267,l),
(293,359,l),
(293,446,l),
(9,353,l)
);
},
{
closed = 1;
nodes = (
(86,695,l),
(86,0,l),
(435,0,l),
(435,87,l),
(201,87,l),
(201,695,l)
);
}
);
width = 444;
},
{
layerId = "86171893-955A-4CD1-BD1B-2F7A53CC85DC";
shapes = (
{
closed = 1;
nodes = (
(10,247,l),
(346,343,l),
(346,513,l),
(10,417,l)
);
},
{
closed = 1;
nodes = (
(70,705,l),
(70,0,l),
(485,0,l),
(485,149,l),
(267,149,l),
(267,705,l)
);
}
);
width = 505;
},
{
layerId = "6D7935D2-FE9A-430A-A298-15DA7AF44FAE";
shapes = (
{
closed = 1;
nodes = (
(9,289,l),
(290,399,l),
(290,454,l),
(9,344,l)
);
},
{
closed = 1;
nodes = (
(95,690,l),
(95,0,l),
(416,0,l),
(416,55,l),
(165,55,l),
(165,690,l)
);
}
);
width = 430;
}
);
unicode = 321;
userData = {
com.schriftgestaltung.Glyphs.ColorIndex = 4;
};
},
{
color = 4;
glyphname = M;
lastChange = "2024-08-04 19:01:31 +0000";
layers = (
{
layerId = "4D0F633C-81E1-4D6C-A640-637CE706A5C5";
shapes = (
{
closed = 1;
nodes = (
(75,0,l),
(189,0,l),
(189,584,l),
(143,579,l),
(402,0,l),
(481,0,l),
(739,579,l),
(693,584,l),
(693,0,l),
(807,0,l),
(807,695,l),
(685,695,l),
(421,104,l),
(462,104,l),
(198,695,l),
(75,695,l)
);
}
);
width = 882;
},
{
layerId = "86171893-955A-4CD1-BD1B-2F7A53CC85DC";
shapes = (
{
closed = 1;
nodes = (
(56,0,l),
(252,0,l),
(252,580,l),
(192,568,l),
(386,0,l),
(550,0,l),
(744,568,l),
(683,580,l),
(683,0,l),
(879,0,l),
(879,705,l),
(643,705,l),
(426,131,l),
(509,146,l),
(293,705,l),
(56,705,l)
);
}
);
width = 935;
},
{
layerId = "6D7935D2-FE9A-430A-A298-15DA7AF44FAE";
shapes = (
{
closed = 1;
nodes = (
(80,0,l),
(150,0,l),
(150,610,l),
(123,609,l),
(396,0,l),
(447,0,l),
(719,609,l),
(693,610,l),
(693,0,l),
(763,0,l),
(763,690,l),
(688,690,l),
(408,62,l),
(435,62,l),
(154,690,l),
(80,690,l)
);
}
);
width = 842;
}
);
unicode = 77;
userData = {
com.schriftgestaltung.Glyphs.ColorIndex = 4;
com.typesupply.AccentFactory.yCoordinates = {
bottom = {
name = origin;
type = glyphMetric;
};
top = {
name = capHeight;
type = fontInfo;
};
};
};
},
{
color = 4;
glyphname = N;
lastChange = "2024-08-04 19:01:28 +0000";
layers = (
{
anchors = (
{
name = bottom;
pos = (361,0);
},
{
name = top;
pos = (361,696);
}
);
layerId = "4D0F633C-81E1-4D6C-A640-637CE706A5C5";
shapes = (
{
closed = 1;
nodes = (
(532,695,l),
(532,177,l),
(189,695,l),
(75,695,l),
(75,0,l),
(189,0,l),
(189,519,l),
(532,0,l),
(646,0,l),
(646,695,l)
);
}
);
width = 721;
},
{
anchors = (
{
name = bottom;
pos = (382,0);
},
{
name = top;
pos = (382,707);
}
);
layerId = "86171893-955A-4CD1-BD1B-2F7A53CC85DC";
shapes = (
{
closed = 1;
nodes = (
(513,705,l),
(513,306,l),
(252,705,l),
(56,705,l),
(56,0,l),
(252,0,l),
(252,394,l),
(513,0,l),
(709,0,l),
(709,705,l)
);
}
);
width = 765;
},
{
anchors = (
{
name = bottom;
pos = (344,0);
},
{
name = top;
pos = (344,690);
}
);
layerId = "6D7935D2-FE9A-430A-A298-15DA7AF44FAE";
shapes = (
{
closed = 1;
nodes = (
(537,690,l),
(537,112,l),
(150,690,l),
(80,690,l),
(80,0,l),
(150,0,l),
(150,579,l),
(537,0,l),
(607,0,l),
(607,690,l)
);
}
);
width = 686;
}
);
unicode = 78;
userData = {
com.schriftgestaltung.Glyphs.ColorIndex = 4;
com.typesupply.AccentFactory.yCoordinates = {
bottom = {
name = origin;
type = glyphMetric;
};
top = {
name = capHeight;
type = fontInfo;
};
};
};
},
{
color = 4;
glyphname = Ncommaaccent;
lastChange = "2024-08-04 20:58:23 +0000";
layers = (
{
anchors = (
{
name = _bottom;
pos = (361,0);
}
);
layerId = "4D0F633C-81E1-4D6C-A640-637CE706A5C5";
shapes = (
{
closed = 1;
nodes = (
(372,-278,o),
(448,-224,o),
(448,-133,cs),
(448,-89,o),
(416,-45,o),
(369,-45,cs),
(329,-45,o),
(297,-72,o),
(297,-113,cs),
(297,-155,o),
(327,-172,o),
(359,-172,c),
(372,-172,o),
(386,-168,o),
(393,-161,c),
(391,-184,o),
(348,-224,o),
(294,-219,c),
(294,-271,l)
);
},
{
ref = N;
}
);
width = 721;
},
{
anchors = (
{
name = _bottom;
pos = (402,0);
}
);
layerId = "86171893-955A-4CD1-BD1B-2F7A53CC85DC";
shapes = (
{
closed = 1;
nodes = (
(403,-326,o),
(502,-273,o),
(502,-152,cs),
(502,-94,o),
(460,-38,o),
(400,-38,cs),
(347,-38,o),
(306,-73,o),
(306,-126,cs),
(306,-180,o),
(343,-202,o),
(387,-202,c),
(396,-202,o),
(404,-201,o),
(412,-198,c),
(396,-227,o),
(353,-243,o),
(302,-241,c),
(302,-318,l)
);
},
{
alignment = -1;
ref = N;
}
);
width = 765;
},
{
anchors = (
{
name = _bottom;
pos = (343,0);
}
);
layerId = "6D7935D2-FE9A-430A-A298-15DA7AF44FAE";
shapes = (
{
closed = 1;
nodes = (
(349,-230,o),
(402,-186,o),
(402,-118,cs),
(402,-86,o),
(379,-51,o),
(346,-51,cs),
(316,-51,o),
(293,-72,o),
(293,-100,cs),
(293,-130,o),
(313,-143,o),
(339,-143,c),
(347,-143,o),
(356,-141,o),
(363,-136,c),
(359,-165,o),
(328,-188,o),
(292,-186,c),
(292,-226,l)
);
},
{
alignment = -1;
ref = N;
}
);
width = 686;
}
);
unicode = 325;
userData = {
com.schriftgestaltung.Glyphs.ColorIndex = 8;
com.typesupply.AccentFactory.compileType = manual;
};
},
{
color = 4;
glyphname = O;
lastChange = "2024-08-04 17:41:33 +0000";
layers = (
{
anchors = (
{
name = top;
pos = (392,696);
}
);
layerId = "4D0F633C-81E1-4D6C-A640-637CE706A5C5";
shapes = (
{
closed = 1;
nodes = (
(590,-7,o),
(747,140,o),
(747,348,cs),
(747,555,o),
(590,702,o),
(392,702,cs),
(196,702,o),
(37,555,o),
(37,348,cs),
(37,140,o),
(196,-7,o),
(392,-7,cs)
);
},
{
closed = 1;
nodes = (
(254,92,o),
(154,192,o),
(154,348,cs),
(154,504,o),
(254,602,o),
(392,602,cs),
(530,602,o),
(630,504,o),
(630,348,cs),
(630,192,o),
(530,92,o),
(392,92,cs)
);
}
);
width = 784;
},
{
anchors = (
{
name = top;
pos = (394,707);
}
);
layerId = "86171893-955A-4CD1-BD1B-2F7A53CC85DC";
shapes = (
{
closed = 1;
nodes = (
(594,-7,o),
(755,143,o),
(755,353,cs),
(755,563,o),
(595,712,o),
(394,712,cs),
(194,712,o),
(32,563,o),
(32,353,cs),
(32,143,o),
(194,-7,o),
(394,-7,cs)
);
},
{
closed = 1;
nodes = (
(292,175,o),
(232,246,o),
(232,353,cs),
(232,462,o),
(292,532,o),
(394,532,cs),
(495,532,o),
(556,462,o),
(556,353,cs),
(556,246,o),
(495,175,o),
(394,175,cs)
);
}
);
width = 787;
},
{
anchors = (
{
name = top;
pos = (399,690);
}
);
layerId = "6D7935D2-FE9A-430A-A298-15DA7AF44FAE";
shapes = (
{
closed = 1;
nodes = (
(591,-7,o),
(740,135,o),
(740,345,c),
(740,549,o),
(591,697,o),
(394,697,c),
(198,697,o),
(48,549,o),
(48,345,c),
(48,135,o),
(198,-7,o),
(394,-7,cs)
);
},
{
closed = 1;
nodes = (
(239,55,o),
(120,162,o),
(120,345,c),
(120,523,o),
(239,635,o),
(394,635,c),
(549,635,o),
(668,523,o),
(668,345,c),
(668,162,o),
(549,55,o),
(394,55,c)
);
}
);
width = 788;
}
);
unicode = 79;
userData = {
com.schriftgestaltung.Glyphs.ColorIndex = 4;
com.typemytype.robofont.layerData = {
b = {
anchors = (
{
name = top;
x = 407;
y = 683;
}
);
components = (
);
contours = (
{
points = (
{
segmentType = curve;
smooth = 1;
x = 60;
y = 341;
},
{
smooth = 0;
x = 60;
y = 138;
},
{
smooth = 0;
x = 214;
y = -7;
},
{
segmentType = curve;
smooth = 1;
x = 407;
y = -7;
},
{
smooth = 0;
x = 601;
y = -7;
},
{
smooth = 0;
x = 754;
y = 138;
},
{
segmentType = curve;
smooth = 1;
x = 754;
y = 341;
},
{
smooth = 0;
x = 754;
y = 546;
},
{
smooth = 0;
x = 601;
y = 690;
},
{
segmentType = curve;
smooth = 1;
x = 407;
y = 690;
},
{
smooth = 0;
x = 214;
y = 690;
},
{
smooth = 0;
x = 60;
y = 546;
}
);
},
{
points = (
{
segmentType = curve;
smooth = 1;
x = 733;
y = 341;
},
{
smooth = 0;
x = 733;
y = 137;
},
{
smooth = 0;
x = 588;
y = 4;
},
{
segmentType = curve;
smooth = 1;
x = 407;
y = 4;
},
{
smooth = 0;
x = 226;
y = 4;
},
{
smooth = 0;
x = 80;
y = 137;
},
{
segmentType = curve;
smooth = 1;
x = 80;
y = 341;
},
{
smooth = 0;
x = 80;
y = 547;
},
{
smooth = 0;
x = 226;
y = 677;
},
{
segmentType = curve;
smooth = 1;
x = 407;
y = 677;
},
{
smooth = 0;
x = 588;
y = 677;
},
{
smooth = 0;
x = 733;
y = 547;
}
);
}
);
lib = {
};
name = O;
unicodes = (
);
width = 792;
};
};
com.typesupply.AccentFactory.yCoordinates = {
bottom = {
name = origin;
type = glyphMetric;
};
top = {
name = capHeight;
type = fontInfo;
};
};
};
},
{
color = 4;
glyphname = Oslash;
lastChange = "2024-08-04 17:42:44 +0000";
layers = (
{
layerId = "4D0F633C-81E1-4D6C-A640-637CE706A5C5";
shapes = (
{
closed = 1;
nodes = (
(26,0,l),
(117,0,l),
(758,695,l),
(667,695,l)
);
},
{
ref = O;
}
);
width = 784;
},
{
layerId = "86171893-955A-4CD1-BD1B-2F7A53CC85DC";
shapes = (
{
closed = 1;
nodes = (
(20,1,l),
(130,1,l),
(766,705,l),
(657,705,l)
);
},
{
alignment = -1;
pos = (-1,0);
ref = O;
}
);
width = 787;
},
{
layerId = "6D7935D2-FE9A-430A-A298-15DA7AF44FAE";
shapes = (
{
closed = 1;
nodes = (
(42,0,l),
(102,0,l),
(745,690,l),
(686,690,l)
);
},
{
alignment = -1;
ref = O;
}
);
width = 788;
}
);
unicode = 216;
userData = {
com.schriftgestaltung.Glyphs.ColorIndex = 4;
};
},
{
color = 4;
glyphname = OE;
lastChange = "2024-08-04 17:43:49 +0000";
layers = (
{
layerId = "4D0F633C-81E1-4D6C-A640-637CE706A5C5";
shapes = (
{
closed = 1;
nodes = (
(1014,606,l),
(1014,695,l),
(630,695,l),
(630,589,l),
(572,665,o),
(487,702,o),
(382,702,cs),
(197,702,o),
(37,557,o),
(37,348,cs),
(37,140,o),
(196,-7,o),
(383,-7,cs),
(487,-7,o),
(572,32,o),
(630,111,c),
(630,0,l),
(1014,0,l),
(1014,89,l),
(744,89,l),
(744,307,l),
(984,307,l),
(984,395,l),
(744,395,l),
(744,606,l)
);
},
{
closed = 1;
nodes = (
(154,500,o),
(254,598,o),
(392,598,cs),
(530,598,o),
(630,500,o),
(630,348,cs),
(630,196,o),
(530,96,o),
(392,96,cs),
(254,96,o),
(154,196,o),
(154,348,cs)
);
}
);
width = 1079;
},
{
layerId = "86171893-955A-4CD1-BD1B-2F7A53CC85DC";
shapes = (
{
closed = 1;
nodes = (
(1015,549,l),
(1015,705,l),
(564,705,l),
(564,652,l),
(516,694,o),
(449,712,o),
(379,712,cs),
(181,712,o),
(32,562,o),
(32,353,cs),
(32,143,o),
(181,-7,o),
(379,-7,cs),
(449,-5,o),
(516,12,o),
(564,54,c),
(564,0,l),
(1015,0,l),
(1015,156,l),
(760,156,l),
(760,284,l),
(985,284,l),
(985,432,l),
(760,432,l),
(760,549,l)
);
},
{
closed = 1;
nodes = (
(232,460,o),
(292,531,o),
(394,531,cs),
(495,531,o),
(556,460,o),
(556,353,cs),
(556,246,o),
(495,174,o),
(394,174,cs),
(292,174,o),
(232,246,o),
(232,353,cs)
);
}
);
width = 1056;
},
{
layerId = "6D7935D2-FE9A-430A-A298-15DA7AF44FAE";
shapes = (
{
closed = 1;
nodes = (
(1034,634,l),
(1034,690,l),
(668,690,l),
(668,530,l),
(623,635,o),
(517,697,o),
(389,697,c),
(198,697,o),
(48,550,o),
(48,345,c),
(48,135,o),
(198,-7,o),
(389,-7,c),
(517,-7,o),
(623,64,o),
(668,171,c),
(668,0,l),
(1034,0,l),
(1034,56,l),
(738,56,l),
(738,321,l),
(1004,321,l),
(1004,376,l),
(738,376,l),
(738,634,l)
);
},
{
closed = 1;
nodes = (
(120,521,o),
(239,633,o),
(394,633,c),
(549,633,o),
(668,526,o),
(668,345,c),
(668,164,o),
(549,55,o),
(394,55,c),
(239,55,o),
(120,164,o),
(120,345,c)
);
}
);
width = 1092;
}
);
metricLeft = O;
metricRight = E;
unicode = 338;
userData = {
com.schriftgestaltung.Glyphs.ColorIndex = 4;
com.typesupply.AccentFactory.yCoordinates = {
bottom = {
name = origin;
type = glyphMetric;
};
top = {
name = capHeight;
type = fontInfo;
};
};
};
},
{
color = 4;
glyphname = P;
lastChange = "2024-08-04 17:44:11 +0000";
layers = (
{
layerId = "4D0F633C-81E1-4D6C-A640-637CE706A5C5";
shapes = (
{
closed = 1;
nodes = (
(189,375,l),
(189,602,l),
(315,602,ls),
(404,602,o),
(444,560,o),
(444,488,cs),
(444,418,o),
(404,375,o),
(315,375,cs)
);
},
{
closed = 1;
nodes = (
(561,488,cs),
(561,601,o),
(480,695,o),
(315,695,cs),
(75,695,l),
(75,0,l),
(189,0,l),
(189,282,l),
(315,282,ls),
(496,282,o),
(561,389,o)
);
}
);
width = 595;
},
{
layerId = "86171893-955A-4CD1-BD1B-2F7A53CC85DC";
shapes = (
{
closed = 1;
nodes = (
(252,394,l),
(252,547,l),
(330,547,ls),
(389,547,o),
(413,517,o),
(413,470,cs),
(413,424,o),
(389,394,o),
(330,394,cs)
);
},
{
closed = 1;
nodes = (
(613,470,cs),
(613,606,o),
(524,705,o),
(349,705,cs),
(56,705,l),
(56,0,l),
(252,0,l),
(252,238,l),
(349,238,ls),
(528,238,o),
(613,347,o)
);
}
);
width = 636;
},
{
layerId = "6D7935D2-FE9A-430A-A298-15DA7AF44FAE";
shapes = (
{
closed = 1;
nodes = (
(150,349,l),
(150,631,l),
(291,631,ls),
(409,631,o),
(455,579,o),
(455,489,cs),
(455,403,o),
(409,349,o),
(291,349,cs)
);
},
{
closed = 1;
nodes = (
(527,489,cs),
(527,604,o),
(453,690,o),
(291,690,cs),
(80,690,l),
(80,0,l),
(150,0,l),
(150,289,l),
(291,289,ls),
(455,289,o),
(527,376,o)
);
}
);
width = 564;
}
);
unicode = 80;
userData = {
com.schriftgestaltung.Glyphs.ColorIndex = 4;
com.typesupply.AccentFactory.yCoordinates = {
bottom = {
name = origin;
type = glyphMetric;
};
top = {
name = capHeight;
type = fontInfo;
};
};
};
},
{
color = 4;
glyphname = Thorn;
lastChange = "2024-08-04 17:44:50 +0000";
layers = (
{
layerId = "4D0F633C-81E1-4D6C-A640-637CE706A5C5";
shapes = (
{
closed = 1;
nodes = (
(189,227,l),
(189,462,l),
(315,462,ls),
(404,462,o),
(444,415,o),
(444,344,cs),
(444,274,o),
(404,227,o),
(315,227,cs)
);
},
{
closed = 1;
nodes = (
(561,344,cs),
(561,457,o),
(480,551,o),
(315,551,cs),
(188,551,l),
(188,695,l),
(75,695,l),
(75,0,l),
(189,0,l),
(189,138,l),
(315,138,ls),
(496,138,o),
(561,245,o)
);
}
);
width = 595;
},
{
layerId = "86171893-955A-4CD1-BD1B-2F7A53CC85DC";
shapes = (
{
closed = 1;
nodes = (
(252,276,l),
(252,431,l),
(330,431,ls),
(389,431,o),
(413,400,o),
(413,353,cs),
(413,307,o),
(389,276,o),
(330,276,cs)
);
},
{
closed = 1;
nodes = (
(613,353,cs),
(613,485,o),
(524,580,o),
(349,580,cs),
(251,580,l),
(251,705,l),
(56,705,l),
(56,0,l),
(252,0,l),
(252,129,l),
(349,129,ls),
(528,129,o),
(613,234,o)
);
}
);
width = 636;
},
{
layerId = "6D7935D2-FE9A-430A-A298-15DA7AF44FAE";
shapes = (
{
closed = 1;
nodes = (
(150,201,l),
(150,488,l),
(291,488,ls),
(409,488,o),
(455,433,o),
(455,344,cs),
(455,258,o),
(409,201,o),
(291,201,cs)
);
},
{
closed = 1;
nodes = (
(527,344,cs),
(527,459,o),
(453,545,o),
(291,545,cs),
(149,545,l),
(149,690,l),
(80,690,l),
(80,0,l),
(150,0,l),
(150,144,l),
(291,144,ls),
(455,144,o),
(527,230,o)
);
}
);
width = 564;
}
);
unicode = 222;
userData = {
com.schriftgestaltung.Glyphs.ColorIndex = 4;
};
},
{
color = 4;
glyphname = Q;
lastChange = "2024-08-04 13:38:06 +0000";
layers = (
{
layerId = "4D0F633C-81E1-4D6C-A640-637CE706A5C5";
shapes = (
{
closed = 1;
nodes = (
(699,-118,o),
(719,-115,o),
(733,-109,c),
(733,-9,l),
(719,-12,o),
(703,-14,o),
(688,-14,cs),
(637,-14,o),
(601,7,o),
(579,62,c),
(487,15,l),
(522,-86,o),
(610,-118,o),
(677,-118,cs)
);
},
{
ref = O;
}
);
width = 776;
},
{
layerId = "86171893-955A-4CD1-BD1B-2F7A53CC85DC";
shapes = (
{
closed = 1;
nodes = (
(708,-140,o),
(730,-136,o),
(747,-130,c),
(747,39,l),
(732,35,o),
(718,34,o),
(706,34,cs),
(667,34,o),
(641,47,o),
(617,80,c),
(463,1,l),
(504,-105,o),
(615,-140,o),
(684,-140,cs)
);
},
{
alignment = -1;
ref = O;
}
);
width = 770;
},
{
layerId = "6D7935D2-FE9A-430A-A298-15DA7AF44FAE";
shapes = (
{
closed = 1;
nodes = (
(688,-118,o),
(705,-115,o),
(720,-109,c),
(720,-44,l),
(703,-48,o),
(687,-50,o),
(672,-50,cs),
(617,-50,o),
(572,-19,o),
(549,46,c),
(489,15,l),
(520,-76,o),
(602,-118,o),
(669,-118,cs)
);
},
{
alignment = -1;
ref = O;
}
);
width = 778;
}
);
unicode = 81;
userData = {
com.schriftgestaltung.Glyphs.ColorIndex = 4;
com.typesupply.AccentFactory.yCoordinates = {
bottom = {
name = origin;
type = glyphMetric;
};
top = {
name = capHeight;
type = fontInfo;
};
};
};
},
{
color = 4;
glyphname = R;
lastChange = "2024-08-04 21:00:30 +0000";
layers = (
{
layerId = "4D0F633C-81E1-4D6C-A640-637CE706A5C5";
shapes = (
{
closed = 1;
nodes = (
(189,0,l),
(189,276,l),
(264,276,o),
(323,259,o),
(368,230,cs),
(443,182,o),
(479,98,o),
(488,0,c),
(610,0,l),
(593,157,o),
(516,278,o),
(408,314,c),
(496,335,o),
(561,397,o),
(561,490,cs),
(561,602,o),
(479,695,o),
(315,695,cs),
(75,695,l),
(75,0,l)
);
},
{
closed = 1;
nodes = (
(189,602,l),
(315,602,ls),
(398,602,o),
(444,555,o),
(444,487,cs),
(444,422,o),
(398,369,o),
(315,369,cs),
(189,369,l)
);
}
);
width = 670;
},
{
layerId = "86171893-955A-4CD1-BD1B-2F7A53CC85DC";
shapes = (
{
closed = 1;
nodes = (
(252,0,l),
(252,244,l),
(308,242,o),
(350,227,o),
(381,200,cs),
(431,158,o),
(452,88,o),
(458,0,c),
(670,0,l),
(649,161,o),
(578,267,o),
(479,302,c),
(576,324,o),
(628,402,o),
(628,485,cs),
(628,623,o),
(530,705,o),
(365,705,cs),
(56,705,l),
(56,0,l)
);
},
{
closed = 1;
nodes = (
(252,547,l),
(349,547,ls),
(400,547,o),
(429,518,o),
(429,476,cs),
(429,430,o),
(402,400,o),
(349,400,cs),
(252,400,l)
);
}
);
width = 702;
},
{
layerId = "6D7935D2-FE9A-430A-A298-15DA7AF44FAE";
shapes = (
{
closed = 1;
nodes = (
(150,0,l),
(150,280,l),
(234,280,o),
(303,269,o),
(358,243,cs),
(439,203,o),
(487,128,o),
(498,0,c),
(572,0,l),
(552,177,o),
(471,265,o),
(364,300,c),
(462,318,o),
(528,391,o),
(528,489,cs),
(528,604,o),
(452,690,o),
(290,690,cs),
(80,690,l),
(80,0,l)
);
},
{
closed = 1;
nodes = (
(150,631,l),
(290,631,ls),
(408,631,o),
(456,577,o),
(456,489,cs),
(456,404,o),
(405,340,o),
(291,340,cs),
(150,340,l)
);
}
);
width = 623;
}
);
unicode = 82;
userData = {
com.schriftgestaltung.Glyphs.ColorIndex = 4;
com.typesupply.AccentFactory.yCoordinates = {
bottom = {
name = origin;
type = glyphMetric;
};
top = {
name = capHeight;
type = fontInfo;
};
};
};
},
{
color = 4;
glyphname = Racute;
lastChange = "2024-08-04 21:00:34 +0000";
layers = (
{
layerId = "4D0F633C-81E1-4D6C-A640-637CE706A5C5";
shapes = (
{
closed = 1;
nodes = (
(189,0,l),
(189,276,l),
(264,276,o),
(323,259,o),
(368,230,cs),
(443,182,o),
(479,98,o),
(488,0,c),
(610,0,l),
(593,157,o),
(516,278,o),
(408,314,c),
(496,335,o),
(561,397,o),
(561,490,cs),
(561,602,o),
(479,695,o),
(315,695,cs),
(75,695,l),
(75,0,l)
);
},
{
closed = 1;
nodes = (
(189,602,l),
(315,602,ls),
(398,602,o),
(444,555,o),
(444,487,cs),
(444,422,o),
(398,369,o),
(315,369,cs),
(189,369,l)
);
},
{
closed = 1;
nodes = (
(419,844,l),
(419,941,l),
(198,819,l),
(198,735,l)
);
}
);
width = 670;
},
{
layerId = "86171893-955A-4CD1-BD1B-2F7A53CC85DC";
shapes = (
{
closed = 1;
nodes = (
(252,0,l),
(252,244,l),
(308,242,o),
(350,227,o),
(381,200,cs),
(431,158,o),
(452,88,o),
(458,0,c),
(670,0,l),
(649,161,o),
(578,267,o),
(479,302,c),
(576,324,o),
(628,402,o),
(628,485,cs),
(628,623,o),
(530,705,o),
(365,705,cs),
(56,705,l),
(56,0,l)
);
},
{
closed = 1;
nodes = (
(252,547,l),
(349,547,ls),
(400,547,o),
(429,518,o),
(429,476,cs),
(429,430,o),
(402,400,o),
(349,400,cs),
(252,400,l)
);
},
{
closed = 1;
nodes = (
(445,844,l),
(445,992,l),
(195,879,l),
(195,746,l)
);
}
);
width = 702;
},
{
layerId = "6D7935D2-FE9A-430A-A298-15DA7AF44FAE";
shapes = (
{
closed = 1;
nodes = (
(150,0,l),
(150,280,l),
(234,280,o),
(303,269,o),
(358,243,cs),
(439,203,o),
(487,128,o),
(498,0,c),
(572,0,l),
(552,177,o),
(471,265,o),
(364,300,c),
(462,318,o),
(528,391,o),
(528,489,cs),
(528,604,o),
(452,690,o),
(290,690,cs),
(80,690,l),
(80,0,l)
);
},
{
closed = 1;
nodes = (
(150,631,l),
(290,631,ls),
(408,631,o),
(456,577,o),
(456,489,cs),
(456,404,o),
(405,340,o),
(291,340,cs),
(150,340,l)
);
},
{
closed = 1;
nodes = (
(399,851,l),
(399,914,l),
(194,786,l),
(194,732,l)
);
}
);
width = 623;
}
);
unicode = 340;
userData = {
com.schriftgestaltung.Glyphs.ColorIndex = 8;
};
},
{
color = 4;
glyphname = Rcaron;
lastChange = "2024-08-04 21:00:38 +0000";
layers = (
{
layerId = "4D0F633C-81E1-4D6C-A640-637CE706A5C5";
shapes = (
{
closed = 1;
nodes = (
(189,0,l),
(189,276,l),
(264,276,o),
(323,259,o),
(368,230,cs),
(443,182,o),
(479,98,o),
(488,0,c),
(610,0,l),
(593,157,o),
(516,278,o),
(408,314,c),
(496,335,o),
(561,397,o),
(561,490,cs),
(561,602,o),
(479,695,o),
(315,695,cs),
(75,695,l),
(75,0,l)
);
},
{
closed = 1;
nodes = (
(189,602,l),
(315,602,ls),
(398,602,o),
(444,555,o),
(444,487,cs),
(444,422,o),
(398,369,o),
(315,369,cs),
(189,369,l)
);
},
{
closed = 1;
nodes = (
(459,818,l),
(459,907,l),
(316,821,l),
(173,907,l),
(173,818,l),
(316,735,l)
);
}
);
width = 670;
},
{
layerId = "86171893-955A-4CD1-BD1B-2F7A53CC85DC";
shapes = (
{
closed = 1;
nodes = (
(252,0,l),
(252,244,l),
(308,242,o),
(350,227,o),
(381,200,cs),
(431,158,o),
(452,88,o),
(458,0,c),
(670,0,l),
(649,161,o),
(578,267,o),
(479,302,c),
(576,324,o),
(628,402,o),
(628,485,cs),
(628,623,o),
(530,705,o),
(365,705,cs),
(56,705,l),
(56,0,l)
);
},
{
closed = 1;
nodes = (
(252,547,l),
(349,547,ls),
(400,547,o),
(429,518,o),
(429,476,cs),
(429,430,o),
(402,400,o),
(349,400,cs),
(252,400,l)
);
},
{
closed = 1;
nodes = (
(482,823,l),
(482,954,l),
(323,867,l),
(162,954,l),
(162,823,l),
(323,746,l)
);
}
);
width = 702;
},
{
layerId = "6D7935D2-FE9A-430A-A298-15DA7AF44FAE";
shapes = (
{
closed = 1;
nodes = (
(150,0,l),
(150,280,l),
(234,280,o),
(303,269,o),
(358,243,cs),
(439,203,o),
(487,128,o),
(498,0,c),
(572,0,l),
(552,177,o),
(471,265,o),
(364,300,c),
(462,318,o),
(528,391,o),
(528,489,cs),
(528,604,o),
(452,690,o),
(290,690,cs),
(80,690,l),
(80,0,l)
);
},
{
closed = 1;
nodes = (
(150,631,l),
(290,631,ls),
(408,631,o),
(456,577,o),
(456,489,cs),
(456,404,o),
(405,340,o),
(291,340,cs),
(150,340,l)
);
},
{
closed = 1;
nodes = (
(440,829,l),
(440,885,l),
(306,802,l),
(172,885,l),
(172,829,l),
(306,747,l)
);
}
);
width = 623;
}
);
unicode = 344;
userData = {
com.schriftgestaltung.Glyphs.ColorIndex = 8;
};
},
{
color = 4;
glyphname = Rcommaaccent;
lastChange = "2024-08-04 21:00:42 +0000";
layers = (
{
anchors = (
{
name = _bottom;
pos = (316,0);
}
);
layerId = "4D0F633C-81E1-4D6C-A640-637CE706A5C5";
shapes = (
{
closed = 1;
nodes = (
(328,-278,o),
(404,-224,o),
(404,-133,cs),
(404,-89,o),
(372,-45,o),
(325,-45,cs),
(285,-45,o),
(253,-72,o),
(253,-113,cs),
(253,-155,o),
(283,-172,o),
(315,-172,c),
(328,-172,o),
(342,-168,o),
(349,-161,c),
(347,-184,o),
(304,-224,o),
(250,-219,c),
(250,-271,l)
);
},
{
ref = R;
}
);
width = 670;
},
{
anchors = (
{
name = _bottom;
pos = (342,0);
}
);
layerId = "86171893-955A-4CD1-BD1B-2F7A53CC85DC";
shapes = (
{
closed = 1;
nodes = (
(348,-326,o),
(447,-273,o),
(447,-152,cs),
(447,-94,o),
(405,-38,o),
(345,-38,cs),
(292,-38,o),
(251,-73,o),
(251,-126,cs),
(251,-180,o),
(288,-202,o),
(332,-202,c),
(341,-202,o),
(349,-201,o),
(357,-198,c),
(341,-227,o),
(298,-243,o),
(247,-241,c),
(247,-318,l)
);
},
{
alignment = -1;
ref = R;
}
);
width = 702;
},
{
anchors = (
{
name = _bottom;
pos = (291,0);
}
);
layerId = "6D7935D2-FE9A-430A-A298-15DA7AF44FAE";
shapes = (
{
closed = 1;
nodes = (
(302,-230,o),
(355,-186,o),
(355,-118,cs),
(355,-86,o),
(332,-51,o),
(299,-51,cs),
(269,-51,o),
(246,-72,o),
(246,-100,cs),
(246,-130,o),
(266,-143,o),
(292,-143,c),
(300,-143,o),
(309,-141,o),
(316,-136,c),
(312,-165,o),
(281,-188,o),
(245,-186,c),
(245,-226,l)
);
},
{
alignment = -1;
ref = R;
}
);
width = 623;
}
);
unicode = 342;
userData = {
com.schriftgestaltung.Glyphs.ColorIndex = 8;
com.typesupply.AccentFactory.compileType = manual;
};
},
{
color = 4;
glyphname = S;
lastChange = "2024-08-04 17:51:11 +0000";
layers = (
{
anchors = (
{
name = bottom;
pos = (310,-7);
},
{
name = top;
pos = (305,702);
}
);
layerId = "4D0F633C-81E1-4D6C-A640-637CE706A5C5";
shapes = (
{
closed = 1;
nodes = (
(465,-7,o),
(550,92,o),
(550,196,cs),
(550,449,o),
(182,352,o),
(182,508,cs),
(182,575,o),
(233,605,o),
(299,605,cs),
(361,605,o),
(406,564,o),
(420,495,c),
(537,525,l),
(527,623,o),
(423,702,o),
(305,702,cs),
(163,702,o),
(66,626,o),
(66,504,cs),
(66,249,o),
(435,357,o),
(435,190,cs),
(435,131,o),
(390,92,o),
(310,92,cs),
(242,92,o),
(193,140,o),
(178,220,c),
(58,198,l),
(71,78,o),
(171,-7,o),
(310,-7,cs)
);
}
);
width = 610;
},
{
anchors = (
{
name = bottom;
pos = (334,-2);
},
{
name = top;
pos = (333,709);
}
);
layerId = "86171893-955A-4CD1-BD1B-2F7A53CC85DC";
shapes = (
{
closed = 1;
nodes = (
(480,-7,o),
(601,90,o),
(601,214,cs),
(601,436,o),
(252,403,o),
(252,508,cs),
(252,536,o),
(279,556,o),
(312,556,cs),
(354,556,o),
(384,529,o),
(394,479,c),
(582,528,l),
(558,643,o),
(463,712,o),
(315,712,cs),
(160,712,o),
(53,636,o),
(53,498,cs),
(53,275,o),
(395,304,o),
(395,201,cs),
(395,169,o),
(368,150,o),
(322,150,cs),
(274,150,o),
(237,185,o),
(223,244,c),
(35,200,l),
(66,71,o),
(178,-7,o),
(333,-7,cs)
);
}
);
width = 636;
},
{
anchors = (
{
name = bottom;
pos = (295,-4);
},
{
name = top;
pos = (292,694);
}
);
layerId = "6D7935D2-FE9A-430A-A298-15DA7AF44FAE";
shapes = (
{
closed = 1;
nodes = (
(448,-7,o),
(525,84,o),
(525,179,cs),
(525,439,o),
(141,312,o),
(141,514,cs),
(141,595,o),
(209,635,o),
(291,635,cs),
(370,635,o),
(432,579,o),
(445,503,c),
(515,521,l),
(499,605,o),
(427,697,o),
(294,697,c),
(159,697,o),
(70,620,o),
(70,512,cs),
(70,249,o),
(454,382,o),
(454,176,cs),
(454,104,o),
(397,55,o),
(300,55,cs),
(201,55,o),
(143,111,o),
(128,207,c),
(56,194,l),
(72,69,o),
(165,-7,o),
(300,-7,cs)
);
}
);
width = 580;
}
);
unicode = 83;
userData = {
com.schriftgestaltung.Glyphs.ColorIndex = 4;
com.typesupply.AccentFactory.yCoordinates = {
bottom = {
name = origin;
type = glyphMetric;
};
top = {
name = capHeight;
type = fontInfo;
};
};
};
},
{
color = 4;
glyphname = Scommaaccent;
lastChange = "2024-08-04 21:01:09 +0000";
layers = (
{
anchors = (
{
name = _bottom;
pos = (303,0);
}
);
layerId = "4D0F633C-81E1-4D6C-A640-637CE706A5C5";
shapes = (
{
closed = 1;
nodes = (
(308,-278,o),
(384,-224,o),
(384,-133,cs),
(384,-89,o),
(352,-45,o),
(305,-45,cs),
(265,-45,o),
(233,-72,o),
(233,-113,cs),
(233,-155,o),
(263,-172,o),
(295,-172,c),
(308,-172,o),
(322,-168,o),
(329,-161,c),
(327,-184,o),
(284,-224,o),
(230,-219,c),
(230,-271,l)
);
},
{
ref = S;
}
);
width = 610;
},
{
anchors = (
{
name = _bottom;
pos = (334,0);
}
);
layerId = "86171893-955A-4CD1-BD1B-2F7A53CC85DC";
shapes = (
{
closed = 1;
nodes = (
(313,-326,o),
(412,-273,o),
(412,-152,cs),
(412,-94,o),
(370,-38,o),
(310,-38,cs),
(257,-38,o),
(216,-73,o),
(216,-126,cs),
(216,-180,o),
(253,-202,o),
(297,-202,c),
(306,-202,o),
(314,-201,o),
(322,-198,c),
(306,-227,o),
(263,-243,o),
(212,-241,c),
(212,-318,l)
);
},
{
alignment = -1;
ref = S;
}
);
width = 636;
},
{
anchors = (
{
name = _bottom;
pos = (297,-3);
}
);
layerId = "6D7935D2-FE9A-430A-A298-15DA7AF44FAE";
shapes = (
{
closed = 1;
nodes = (
(302,-230,o),
(355,-186,o),
(355,-118,cs),
(355,-86,o),
(332,-51,o),
(299,-51,cs),
(269,-51,o),
(246,-72,o),
(246,-100,cs),
(246,-130,o),
(266,-143,o),
(292,-143,c),
(300,-143,o),
(309,-141,o),
(316,-136,c),
(312,-165,o),
(281,-188,o),
(245,-186,c),
(245,-226,l)
);
},
{
alignment = -1;
ref = S;
}
);
width = 580;
}
);
unicode = 536;
userData = {
com.schriftgestaltung.Glyphs.ColorIndex = 8;
com.typesupply.AccentFactory.compileType = manual;
};
},
{
color = 4;
glyphname = T;
lastChange = "2024-08-04 19:04:20 +0000";
layers = (
{
anchors = (
{
name = bottom;
pos = (280,0);
},
{
name = top;
pos = (282,696);
}
);
layerId = "4D0F633C-81E1-4D6C-A640-637CE706A5C5";
shapes = (
{
closed = 1;
nodes = (
(39,602,l),
(225,602,l),
(225,0,l),
(339,0,l),
(339,602,l),
(524,602,l),
(524,695,l),
(39,695,l)
);
}
);
width = 564;
},
{
anchors = (
{
name = bottom;
pos = (298,0);
},
{
name = top;
pos = (298,707);
}
);
layerId = "86171893-955A-4CD1-BD1B-2F7A53CC85DC";
shapes = (
{
closed = 1;
nodes = (
(17,549,l),
(203,549,l),
(203,0,l),
(399,0,l),
(399,549,l),
(587,549,l),
(587,705,l),
(17,705,l)
);
}
);
width = 604;
},
{
anchors = (
{
name = bottom;
pos = (258,0);
},
{
name = top;
pos = (260,690);
}
);
layerId = "6D7935D2-FE9A-430A-A298-15DA7AF44FAE";
shapes = (
{
closed = 1;
nodes = (
(30,632,l),
(225,632,l),
(225,0,l),
(295,0,l),
(295,632,l),
(489,632,l),
(489,690,l),
(30,690,l)
);
}
);
width = 520;
}
);
unicode = 84;
userData = {
com.schriftgestaltung.Glyphs.ColorIndex = 4;
com.typesupply.AccentFactory.yCoordinates = {
bottom = {
name = origin;
type = glyphMetric;
};
top = {
name = capHeight;
type = fontInfo;
};
};
};
},
{
color = 4;
glyphname = Tcedilla;
lastChange = "2024-08-04 19:04:28 +0000";
layers = (
{
background = {
shapes = (
{
closed = 1;
nodes = (
(39,606,l),
(225,606,l),
(225,-68,l),
(310,-68,ls),
(344,-68,o),
(361,-81,o),
(361,-107,cs),
(361,-133,o),
(344,-145,o),
(310,-145,cs),
(166,-145,l),
(166,-217,l),
(328,-217,ls),
(403,-217,o),
(455,-175,o),
(455,-107,cs),
(455,-34,o),
(396,4,o),
(311,-1,c),
(339,-21,l),
(339,606,l),
(524,606,l),
(524,695,l),
(39,695,l)
);
}
);
};
layerId = "4D0F633C-81E1-4D6C-A640-637CE706A5C5";
shapes = (
{
ref = T;
},
{
pos = (182,0);
ref = cedilla;
}
);
width = 564;
},
{
layerId = "86171893-955A-4CD1-BD1B-2F7A53CC85DC";
shapes = (
{
ref = T;
},
{
pos = (176,-5);
ref = cedilla;
}
);
width = 604;
},
{
layerId = "6D7935D2-FE9A-430A-A298-15DA7AF44FAE";
shapes = (
{
ref = T;
},
{
pos = (173,0);
ref = cedilla;
}
);
width = 520;
}
);
unicode = 354;
userData = {
com.schriftgestaltung.Glyphs.ColorIndex = 8;
};
},
{
color = 4;
glyphname = Tcommaaccent;
lastChange = "2024-08-04 19:04:39 +0000";
layers = (
{
layerId = "4D0F633C-81E1-4D6C-A640-637CE706A5C5";
shapes = (
{
closed = 1;
nodes = (
(286,-278,o),
(362,-224,o),
(362,-133,cs),
(362,-89,o),
(330,-45,o),
(283,-45,cs),
(243,-45,o),
(211,-72,o),
(211,-113,cs),
(211,-155,o),
(241,-172,o),
(273,-172,c),
(286,-172,o),
(300,-168,o),
(307,-161,c),
(305,-184,o),
(262,-224,o),
(208,-219,c),
(208,-271,l)
);
},
{
ref = T;
}
);
width = 564;
},
{
layerId = "86171893-955A-4CD1-BD1B-2F7A53CC85DC";
shapes = (
{
closed = 1;
nodes = (
(302,-326,o),
(401,-273,o),
(401,-152,cs),
(401,-94,o),
(359,-38,o),
(299,-38,cs),
(246,-38,o),
(205,-73,o),
(205,-126,cs),
(205,-180,o),
(242,-202,o),
(286,-202,c),
(295,-202,o),
(303,-201,o),
(311,-198,c),
(295,-227,o),
(252,-243,o),
(201,-241,c),
(201,-318,l)
);
},
{
alignment = -1;
ref = T;
}
);
width = 604;
},
{
layerId = "6D7935D2-FE9A-430A-A298-15DA7AF44FAE";
shapes = (
{
closed = 1;
nodes = (
(265,-230,o),
(318,-186,o),
(318,-118,cs),
(318,-86,o),
(295,-51,o),
(262,-51,cs),
(232,-51,o),
(209,-72,o),
(209,-100,cs),
(209,-130,o),
(229,-143,o),
(255,-143,c),
(263,-143,o),
(272,-141,o),
(279,-136,c),
(275,-165,o),
(244,-188,o),
(208,-186,c),
(208,-226,l)
);
},
{
alignment = -1;
ref = T;
}
);
width = 520;
}
);
unicode = 538;
userData = {
com.schriftgestaltung.Glyphs.ColorIndex = 8;
com.typesupply.AccentFactory.compileType = manual;
};
},
{
color = 4;
glyphname = U;
lastChange = "2024-08-04 17:52:30 +0000";
layers = (
{
anchors = (
{
name = ogonek;
pos = (418,0);
},
{
name = top;
pos = (345,696);
}
);
layerId = "4D0F633C-81E1-4D6C-A640-637CE706A5C5";
shapes = (
{
closed = 1;
nodes = (
(74,254,ls),
(74,77,o),
(198,-7,o),
(344,-7,cs),
(489,-7,o),
(617,77,o),
(617,254,cs),
(617,695,l),
(503,695,l),
(503,252,ls),
(503,144,o),
(442,93,o),
(345,93,cs),
(249,93,o),
(188,144,o),
(188,252,cs),
(188,695,l),
(74,695,l)
);
}
);
width = 690;
},
{
anchors = (
{
name = ogonek;
pos = (442,2);
},
{
name = top;
pos = (356,707);
}
);
layerId = "86171893-955A-4CD1-BD1B-2F7A53CC85DC";
shapes = (
{
closed = 1;
nodes = (
(53,296,ls),
(53,95,o),
(181,-7,o),
(351,-7,cs),
(520,-7,o),
(660,95,o),
(660,296,cs),
(660,705,l),
(464,705,l),
(464,296,ls),
(464,223,o),
(429,177,o),
(355,177,cs),
(281,177,o),
(248,223,o),
(248,296,cs),
(248,705,l),
(53,705,l)
);
}
);
width = 712;
},
{
anchors = (
{
name = ogonek;
pos = (399,0);
},
{
name = top;
pos = (330,690);
}
);
layerId = "6D7935D2-FE9A-430A-A298-15DA7AF44FAE";
shapes = (
{
closed = 1;
nodes = (
(77,260,ls),
(77,75,o),
(189,-7,o),
(331,-7,cs),
(473,-7,o),
(585,75,o),
(585,260,cs),
(585,690,l),
(515,690,l),
(515,259,ls),
(515,114,o),
(441,55,o),
(332,55,cs),
(223,55,o),
(147,114,o),
(147,259,cs),
(147,690,l),
(77,690,l)
);
}
);
width = 661;
}
);
unicode = 85;
userData = {
com.schriftgestaltung.Glyphs.ColorIndex = 4;
com.typesupply.AccentFactory.yCoordinates = {
bottom = {
name = origin;
type = glyphMetric;
};
top = {
name = capHeight;
type = fontInfo;
};
};
};
},
{
color = 4;
glyphname = Uogonek;
lastChange = "2024-08-04 17:52:54 +0000";
layers = (
{
anchors = (
{
name = ogonek;
pos = (418,0);
},
{
name = top;
pos = (345,696);
}
);
background = {
shapes = (
{
closed = 1;
nodes = (
(74,254,ls),
(74,99,o),
(170,15,o),
(292,-3,c),
(288,-13,o),
(286,-24,o),
(286,-36,cs),
(286,-105,o),
(343,-145,o),
(414,-145,cs),
(520,-145,l),
(520,-74,l),
(428,-74,ls),
(396,-74,o),
(380,-61,o),
(380,-37,cs),
(380,-16,o),
(395,-6,o),
(440,6,cs),
(522,30,o),
(617,100,o),
(617,254,cs),
(617,695,l),
(503,695,l),
(503,254,ls),
(503,146,o),
(442,95,o),
(345,95,cs),
(249,95,o),
(188,146,o),
(188,254,cs),
(188,695,l),
(74,695,l)
);
}
);
};
layerId = "4D0F633C-81E1-4D6C-A640-637CE706A5C5";
shapes = (
{
closed = 1;
nodes = (
(74,254,ls),
(74,77,o),
(198,-7,o),
(344,-7,cs),
(489,-7,o),
(617,77,o),
(617,254,cs),
(617,695,l),
(503,695,l),
(503,252,ls),
(503,144,o),
(442,93,o),
(345,93,cs),
(249,93,o),
(188,144,o),
(188,252,cs),
(188,695,l),
(74,695,l)
);
},
{
closed = 1;
nodes = (
(346,41,ls),
(252,-2,o),
(219,-50,o),
(219,-101,cs),
(219,-181,o),
(289,-211,o),
(352,-211,cs),
(381,-211,o),
(410,-205,o),
(433,-196,c),
(433,-123,l),
(410,-132,o),
(386,-137,o),
(367,-137,cs),
(333,-137,o),
(312,-119,o),
(312,-91,cs),
(312,-67,o),
(326,-45,o),
(369,-23,cs),
(418,2,l),
(388,60,l)
);
}
);
width = 690;
},
{
anchors = (
{
name = ogonek;
pos = (442,2);
},
{
name = top;
pos = (356,707);
}
);
layerId = "86171893-955A-4CD1-BD1B-2F7A53CC85DC";
shapes = (
{
closed = 1;
nodes = (
(53,296,ls),
(53,95,o),
(181,-7,o),
(351,-7,cs),
(520,-7,o),
(660,95,o),
(660,296,cs),
(660,705,l),
(464,705,l),
(464,296,ls),
(464,223,o),
(429,177,o),
(355,177,cs),
(281,177,o),
(248,223,o),
(248,296,cs),
(248,705,l),
(53,705,l)
);
},
{
closed = 1;
nodes = (
(365,74,ls),
(224,15,o),
(186,-37,o),
(186,-99,cs),
(186,-174,o),
(248,-218,o),
(341,-218,cs),
(379,-218,o),
(415,-212,o),
(446,-202,c),
(446,-97,l),
(415,-107,o),
(388,-112,o),
(365,-112,cs),
(341,-112,o),
(326,-101,o),
(326,-85,cs),
(326,-64,o),
(346,-44,o),
(398,-18,cs),
(442,4,l),
(403,90,l)
);
}
);
width = 712;
},
{
anchors = (
{
name = ogonek;
pos = (399,0);
},
{
name = top;
pos = (330,690);
}
);
layerId = "6D7935D2-FE9A-430A-A298-15DA7AF44FAE";
shapes = (
{
closed = 1;
nodes = (
(77,260,ls),
(77,75,o),
(189,-7,o),
(331,-7,cs),
(473,-7,o),
(585,75,o),
(585,260,cs),
(585,690,l),
(515,690,l),
(515,259,ls),
(515,114,o),
(441,55,o),
(332,55,cs),
(223,55,o),
(147,114,o),
(147,259,cs),
(147,690,l),
(77,690,l)
);
},
{
closed = 1;
nodes = (
(325,13,ls),
(246,-23,o),
(217,-64,o),
(217,-109,cs),
(217,-176,o),
(273,-201,o),
(330,-201,cs),
(354,-201,o),
(380,-196,o),
(402,-188,c),
(402,-139,l),
(380,-148,o),
(357,-153,o),
(338,-153,cs),
(301,-153,o),
(276,-135,o),
(276,-102,cs),
(276,-76,o),
(292,-52,o),
(339,-29,cs),
(399,0,l),
(380,38,l)
);
}
);
width = 661;
}
);
unicode = 370;
userData = {
com.schriftgestaltung.Glyphs.ColorIndex = 8;
};
},
{
color = 4;
glyphname = V;
lastChange = "2024-08-04 21:04:17 +0000";
layers = (
{
layerId = "4D0F633C-81E1-4D6C-A640-637CE706A5C5";
shapes = (
{
closed = 1;
nodes = (
(347,117,l),
(141,695,l),
(19,695,l),
(281,0,l),
(413,0,l),
(674,695,l),
(554,695,l)
);
}
);
width = 694;
},
{
layerId = "86171893-955A-4CD1-BD1B-2F7A53CC85DC";
shapes = (
{
closed = 1;
nodes = (
(374,196,l),
(214,705,l),
(4,705,l),
(248,0,l),
(499,0,l),
(742,705,l),
(533,705,l)
);
}
);
width = 746;
},
{
layerId = "6D7935D2-FE9A-430A-A298-15DA7AF44FAE";
shapes = (
{
closed = 1;
nodes = (
(329,76,l),
(100,690,l),
(24,690,l),
(289,0,l),
(369,0,l),
(634,690,l),
(560,690,l)
);
}
);
width = 659;
}
);
unicode = 86;
userData = {
com.schriftgestaltung.Glyphs.ColorIndex = 4;
com.typesupply.AccentFactory.yCoordinates = {
bottom = {
name = origin;
type = glyphMetric;
};
top = {
name = capHeight;
type = fontInfo;
};
};
};
},
{
color = 4;
glyphname = W;
lastChange = "2024-08-04 17:53:58 +0000";
layers = (
{
layerId = "4D0F633C-81E1-4D6C-A640-637CE706A5C5";
shapes = (
{
closed = 1;
nodes = (
(216,-1,l),
(344,0,l),
(514,578,l),
(484,578,l),
(645,0,l),
(774,0,l),
(980,695,l),
(858,695,l),
(696,66,l),
(730,65,l),
(568,695,l),
(440,695,l),
(267,67,l),
(300,67,l),
(140,695,l),
(19,695,l)
);
}
);
width = 999;
},
{
layerId = "86171893-955A-4CD1-BD1B-2F7A53CC85DC";
shapes = (
{
closed = 1;
nodes = (
(198,0,l),
(439,0,l),
(549,481,l),
(527,481,l),
(635,0,l),
(876,0,l),
(1049,705,l),
(837,705,l),
(733,101,l),
(783,101,l),
(647,705,l),
(432,705,l),
(293,101,l),
(342,101,l),
(239,705,l),
(27,705,l)
);
}
);
width = 1076;
},
{
layerId = "6D7935D2-FE9A-430A-A298-15DA7AF44FAE";
shapes = (
{
closed = 1;
nodes = (
(220,-1,l),
(296,0,l),
(488,625,l),
(465,625,l),
(652,0,l),
(730,0,l),
(928,690,l),
(853,690,l),
(681,42,l),
(705,42,l),
(518,690,l),
(440,690,l),
(248,43,l),
(272,43,l),
(101,690,l),
(26,690,l)
);
}
);
width = 955;
}
);
unicode = 87;
userData = {
com.schriftgestaltung.Glyphs.ColorIndex = 4;
com.typemytype.robofont.layerData = {
b = {
anchors = (
);
components = (
);
contours = (
{
points = (
{
segmentType = line;
smooth = 0;
x = 229;
y = -2;
},
{
segmentType = line;
smooth = 0;
x = 245;
y = 0;
},
{
segmentType = line;
smooth = 0;
x = 473;
y = 727;
},
{
segmentType = line;
smooth = 0;
x = 435;
y = 727;
},
{
segmentType = line;
smooth = 0;
x = 638;
y = 0;
},
{
segmentType = line;
smooth = 0;
x = 654;
y = 0;
},
{
segmentType = line;
smooth = 0;
x = 877;
y = 684;
},
{
segmentType = line;
smooth = 0;
x = 860;
y = 684;
},
{
segmentType = line;
smooth = 0;
x = 636;
y = 7;
},
{
segmentType = line;
smooth = 0;
x = 650;
y = 5;
},
{
segmentType = line;
smooth = 0;
x = 459;
y = 684;
},
{
segmentType = line;
smooth = 0;
x = 442;
y = 684;
},
{
segmentType = line;
smooth = 0;
x = 230;
y = 10;
},
{
segmentType = line;
smooth = 0;
x = 239;
y = 10;
},
{
segmentType = line;
smooth = 0;
x = 54;
y = 684;
},
{
segmentType = line;
smooth = 0;
x = 36;
y = 684;
}
);
}
);
lib = {
};
name = W;
unicodes = (
);
width = 904;
};
};
com.typesupply.AccentFactory.yCoordinates = {
bottom = {
name = origin;
type = glyphMetric;
};
top = {
name = capHeight;
type = fontInfo;
};
};
};
},
{
color = 4;
glyphname = X;
lastChange = "2024-08-04 17:54:37 +0000";
layers = (
{
layerId = "4D0F633C-81E1-4D6C-A640-637CE706A5C5";
shapes = (
{
closed = 1;
nodes = (
(482,0,l),
(610,0,l),
(178,695,l),
(50,695,l)
);
},
{
closed = 1;
nodes = (
(286,378,l),
(51,0,l),
(178,0,l),
(347,290,l)
);
},
{
closed = 1;
nodes = (
(376,317,l),
(611,695,l),
(484,695,l),
(315,405,l)
);
}
);
width = 660;
},
{
layerId = "86171893-955A-4CD1-BD1B-2F7A53CC85DC";
shapes = (
{
closed = 1;
nodes = (
(497,0,l),
(728,0,l),
(243,705,l),
(12,705,l)
);
},
{
closed = 1;
nodes = (
(278,407,l),
(20,0,l),
(243,0,l),
(392,254,l)
);
},
{
closed = 1;
nodes = (
(455,299,l),
(713,705,l),
(490,705,l),
(342,452,l)
);
}
);
width = 739;
},
{
layerId = "6D7935D2-FE9A-430A-A298-15DA7AF44FAE";
shapes = (
{
closed = 1;
nodes = (
(466,0,l),
(544,0,l),
(119,690,l),
(41,690,l)
);
},
{
closed = 1;
nodes = (
(266,366,l),
(41,0,l),
(119,0,l),
(306,314,l)
);
},
{
closed = 1;
nodes = (
(321,322,l),
(545,690,l),
(467,690,l),
(281,374,l)
);
}
);
width = 585;
}
);
unicode = 88;
userData = {
com.schriftgestaltung.Glyphs.ColorIndex = 4;
com.typemytype.robofont.guides = (
{
angle = 90;
isGlobal = 0;
magnetic = 5;
x = 50;
y = 16;
},
{
angle = 90;
isGlobal = 0;
magnetic = 5;
x = 490;
y = 36;
},
{
angle = 0;
isGlobal = 0;
magnetic = 5;
x = 511;
y = 352;
}
);
com.typesupply.AccentFactory.yCoordinates = {
bottom = {
name = origin;
type = glyphMetric;
};
top = {
name = capHeight;
type = fontInfo;
};
};
};
},
{
color = 4;
glyphname = Y;
lastChange = "2024-08-04 17:55:07 +0000";
layers = (
{
anchors = (
{
name = top;
pos = (303,696);
}
);
layerId = "4D0F633C-81E1-4D6C-A640-637CE706A5C5";
shapes = (
{
closed = 1;
nodes = (
(246,252,l),
(246,0,l),
(360,0,l),
(360,252,l),
(590,695,l),
(464,695,l),
(278,300,l),
(329,300,l),
(142,695,l),
(15,695,l)
);
}
);
width = 605;
},
{
anchors = (
{
name = top;
pos = (351,707);
}
);
layerId = "86171893-955A-4CD1-BD1B-2F7A53CC85DC";
shapes = (
{
closed = 1;
nodes = (
(252,224,l),
(252,0,l),
(449,0,l),
(449,224,l),
(697,705,l),
(476,705,l),
(315,352,l),
(389,352,l),
(228,705,l),
(4,705,l)
);
}
);
width = 701;
},
{
anchors = (
{
name = top;
pos = (283,690);
}
);
layerId = "6D7935D2-FE9A-430A-A298-15DA7AF44FAE";
shapes = (
{
closed = 1;
nodes = (
(248,272,l),
(248,0,l),
(318,0,l),
(318,272,l),
(542,690,l),
(464,690,l),
(267,304,l),
(299,304,l),
(101,690,l),
(22,690,l)
);
}
);
width = 564;
}
);
unicode = 89;
userData = {
com.schriftgestaltung.Glyphs.ColorIndex = 4;
com.typesupply.AccentFactory.yCoordinates = {
bottom = {
name = origin;
type = glyphMetric;
};
top = {
name = capHeight;
type = fontInfo;
};
};
};
},
{
color = 4;
glyphname = Z;
lastChange = "2024-08-04 17:55:30 +0000";
layers = (
{
anchors = (
{
name = top;
pos = (279,696);
}
);
background = {
shapes = (
{
closed = 1;
nodes = (
(508,695,l),
(50,695,l),
(50,606,l),
(376,606,l),
(50,89,l),
(50,0,l),
(508,0,l),
(508,89,l),
(181,89,l),
(508,606,l)
);
}
);
};
layerId = "4D0F633C-81E1-4D6C-A640-637CE706A5C5";
shapes = (
{
closed = 1;
nodes = (
(508,695,l),
(50,695,l),
(50,596,l),
(372,596,l),
(50,89,l),
(50,0,l),
(508,0,l),
(508,99,l),
(185,99,l),
(508,606,l)
);
}
);
width = 558;
},
{
anchors = (
{
name = top;
pos = (307,707);
}
);
layerId = "86171893-955A-4CD1-BD1B-2F7A53CC85DC";
shapes = (
{
closed = 1;
nodes = (
(563,705,l),
(50,705,l),
(50,547,l),
(340,547,l),
(50,149,l),
(50,0,l),
(563,0,l),
(563,159,l),
(270,159,l),
(563,556,l)
);
}
);
width = 613;
},
{
anchors = (
{
name = top;
pos = (263,690);
}
);
layerId = "6D7935D2-FE9A-430A-A298-15DA7AF44FAE";
shapes = (
{
closed = 1;
nodes = (
(477,690,l),
(49,690,l),
(49,628,l),
(395,628,l),
(43,56,l),
(43,0,l),
(482,0,l),
(482,62,l),
(125,62,l),
(477,634,l)
);
}
);
width = 525;
}
);
unicode = 90;
userData = {
com.schriftgestaltung.Glyphs.ColorIndex = 4;
com.typesupply.AccentFactory.yCoordinates = {
bottom = {
name = origin;
type = glyphMetric;
};
top = {
name = capHeight;
type = fontInfo;
};
};
};
},
{
color = 4;
glyphname = a;
lastChange = "2024-08-04 17:56:22 +0000";
layers = (
{
anchors = (
{
name = bottom;
pos = (339,0);
},
{
name = ogonek;
pos = (610,10);
},
{
name = top;
pos = (339,551);
}
);
background = {
shapes = (
{
closed = 1;
nodes = (
(37,278,cs),
(37,108,o),
(152,-9,o),
(295,-9,cs),
(387,-9,o),
(453,37,o),
(488,86,c),
(488,0,l),
(603,0,l),
(603,551,l),
(488,551,l),
(488,467,l),
(454,514,o),
(390,560,o),
(297,560,cs),
(152,560,o),
(37,448,o)
);
},
{
closed = 1;
nodes = (
(488,276,cs),
(488,157,o),
(407,90,o),
(321,90,cs),
(236,90,o),
(154,159,o),
(154,278,cs),
(154,397,o),
(236,461,o),
(321,461,cs),
(407,461,o),
(488,394,o)
);
}
);
};
guides = (
{
pos = (549,86);
},
{
pos = (407,466);
}
);
layerId = "4D0F633C-81E1-4D6C-A640-637CE706A5C5";
shapes = (
{
closed = 1;
nodes = (
(385,-7,o),
(457,41,o),
(488,120,c),
(488,64,ls),
(488,26,o),
(514,0,o),
(552,0,cs),
(603,0,l),
(603,551,l),
(488,551,l),
(488,432,l),
(457,510,o),
(385,558,o),
(295,558,cs),
(151,558,o),
(37,446,o),
(37,276,cs),
(37,106,o),
(151,-7,o),
(295,-7,cs)
);
},
{
closed = 1;
nodes = (
(236,92,o),
(154,157,o),
(154,276,cs),
(154,395,o),
(236,459,o),
(321,459,cs),
(406,459,o),
(488,395,o),
(488,276,cs),
(488,157,o),
(406,92,o),
(321,92,cs)
);
}
);
width = 678;
},
{
anchors = (
{
name = ogonek;
pos = (603,0);
},
{
name = top;
pos = (339,551);
}
);
associatedMasterId = "4D0F633C-81E1-4D6C-A640-637CE706A5C5";
background = {
shapes = (
{
closed = 1;
nodes = (
(37,278,cs),
(37,108,o),
(152,-9,o),
(295,-9,cs),
(387,-9,o),
(453,37,o),
(488,86,c),
(488,0,l),
(603,0,l),
(603,551,l),
(488,551,l),
(488,467,l),
(454,514,o),
(390,560,o),
(297,560,cs),
(152,560,o),
(37,448,o)
);
},
{
closed = 1;
nodes = (
(488,276,cs),
(488,157,o),
(407,90,o),
(321,90,cs),
(236,90,o),
(154,159,o),
(154,278,cs),
(154,397,o),
(236,461,o),
(321,461,cs),
(407,461,o),
(488,394,o)
);
}
);
};
guides = (
{
pos = (549,86);
},
{
pos = (407,466);
}
);
layerId = "89DB5EE2-4F3F-4894-A273-E2AC796B90BE";
name = "Sep 19 17, 18:23";
shapes = (
{
closed = 1;
nodes = (
(37,278,cs),
(37,108,o),
(152,-9,o),
(295,-9,cs),
(387,-9,o),
(453,37,o),
(488,86,c),
(488,0,l),
(603,0,l),
(603,551,l),
(488,551,l),
(488,467,l),
(454,514,o),
(390,560,o),
(297,560,cs),
(152,560,o),
(37,448,o)
);
},
{
closed = 1;
nodes = (
(488,276,cs),
(488,157,o),
(407,90,o),
(321,90,cs),
(236,90,o),
(154,159,o),
(154,278,cs),
(154,397,o),
(236,461,o),
(321,461,cs),
(407,461,o),
(488,394,o)
);
}
);
width = 678;
},
{
anchors = (
{
name = bottom;
pos = (340,0);
},
{
name = ogonek;
pos = (611,10);
},
{
name = top;
pos = (340,561);
}
);
layerId = "86171893-955A-4CD1-BD1B-2F7A53CC85DC";
shapes = (
{
closed = 1;
nodes = (
(338,-7,o),
(403,41,o),
(427,125,c),
(427,96,ls),
(427,34,o),
(461,0,o),
(523,0,cs),
(623,0,l),
(623,561,l),
(427,561,l),
(427,435,l),
(403,519,o),
(338,568,o),
(256,568,cs),
(108,568,o),
(24,436,o),
(24,280,cs),
(24,124,o),
(108,-7,o),
(256,-7,cs)
);
},
{
closed = 1;
nodes = (
(267,165,o),
(224,208,o),
(224,280,cs),
(224,352,o),
(267,397,o),
(325,397,cs),
(383,397,o),
(427,352,o),
(427,280,cs),
(427,208,o),
(383,165,o),
(325,165,cs)
);
}
);
width = 679;
},
{
anchors = (
{
name = bottom;
pos = (338,0);
},
{
name = ogonek;
pos = (608,10);
},
{
name = top;
pos = (338,546);
}
);
layerId = "6D7935D2-FE9A-430A-A298-15DA7AF44FAE";
shapes = (
{
closed = 1;
nodes = (
(403,-7,o),
(490,45,o),
(525,124,c),
(525,44,ls),
(525,16,o),
(541,0,o),
(569,0,cs),
(595,0,l),
(595,546,l),
(525,546,l),
(525,424,l),
(491,503,o),
(407,553,o),
(305,553,cs),
(163,553,o),
(48,440,o),
(48,274,cs),
(48,108,o),
(163,-7,o),
(305,-7,cs)
);
},
{
closed = 1;
nodes = (
(208,54,o),
(119,140,o),
(119,274,cs),
(119,408,o),
(208,492,o),
(322,492,cs),
(436,492,o),
(525,408,o),
(525,274,cs),
(525,140,o),
(436,54,o),
(322,54,cs)
);
}
);
width = 675;
}
);
unicode = 97;
userData = {
com.schriftgestaltung.Glyphs.ColorIndex = 4;
com.typemytype.robofont.guides = (
{
angle = 90;
isGlobal = 0;
magnetic = 5;
x = 306;
y = 501;
},
{
angle = 0;
isGlobal = 0;
magnetic = 5;
x = 88;
y = 270;
}
);
com.typesupply.AccentFactory.yCoordinates = {
bottom = {
name = origin;
type = glyphMetric;
};
top = {
name = xHeight;
type = fontInfo;
};
};
};
},
{
color = 4;
glyphname = aogonek;
lastChange = "2024-08-04 21:39:38 +0000";
layers = (
{
anchors = (
{
name = bottom;
pos = (339,0);
},
{
name = ogonek;
pos = (610,10);
},
{
name = top;
pos = (339,551);
}
);
layerId = "4D0F633C-81E1-4D6C-A640-637CE706A5C5";
shapes = (
{
closed = 1;
nodes = (
(385,-7,o),
(457,41,o),
(488,120,c),
(488,64,ls),
(488,26,o),
(514,0,o),
(552,0,cs),
(603,0,l),
(603,551,l),
(488,551,l),
(488,432,l),
(457,510,o),
(385,558,o),
(295,558,cs),
(151,558,o),
(37,446,o),
(37,276,cs),
(37,106,o),
(151,-7,o),
(295,-7,cs)
);
},
{
closed = 1;
nodes = (
(236,92,o),
(154,157,o),
(154,276,cs),
(154,395,o),
(236,459,o),
(321,459,cs),
(406,459,o),
(488,395,o),
(488,276,cs),
(488,157,o),
(406,92,o),
(321,92,cs)
);
},
{
closed = 1;
nodes = (
(531,43,ls),
(433,8,o),
(404,-46,o),
(404,-97,cs),
(404,-175,o),
(474,-203,o),
(537,-203,cs),
(566,-203,o),
(595,-197,o),
(618,-188,c),
(618,-115,l),
(595,-124,o),
(571,-129,o),
(552,-129,cs),
(518,-129,o),
(497,-115,o),
(497,-89,cs),
(497,-65,o),
(511,-47,o),
(554,-25,cs),
(603,0,l),
(573,58,l)
);
}
);
width = 678;
},
{
anchors = (
{
name = bottom;
pos = (340,0);
},
{
name = ogonek;
pos = (611,10);
},
{
name = top;
pos = (340,561);
}
);
layerId = "86171893-955A-4CD1-BD1B-2F7A53CC85DC";
shapes = (
{
closed = 1;
nodes = (
(338,-7,o),
(403,41,o),
(427,125,c),
(427,96,ls),
(427,34,o),
(461,0,o),
(523,0,cs),
(623,0,l),
(623,561,l),
(427,561,l),
(427,435,l),
(403,519,o),
(338,568,o),
(256,568,cs),
(108,568,o),
(24,436,o),
(24,280,cs),
(24,124,o),
(108,-7,o),
(256,-7,cs)
);
},
{
closed = 1;
nodes = (
(267,165,o),
(224,208,o),
(224,280,cs),
(224,352,o),
(267,397,o),
(325,397,cs),
(383,397,o),
(427,352,o),
(427,280,cs),
(427,208,o),
(383,165,o),
(325,165,cs)
);
},
{
closed = 1;
nodes = (
(546,70,ls),
(405,11,o),
(367,-41,o),
(367,-103,cs),
(367,-178,o),
(429,-220,o),
(522,-220,cs),
(560,-220,o),
(596,-214,o),
(627,-204,c),
(627,-99,l),
(596,-109,o),
(569,-114,o),
(546,-114,cs),
(522,-114,o),
(507,-103,o),
(507,-87,cs),
(507,-66,o),
(527,-48,o),
(579,-22,cs),
(623,0,l),
(584,86,l)
);
}
);
width = 679;
},
{
anchors = (
{
name = bottom;
pos = (338,0);
},
{
name = ogonek;
pos = (608,10);
},
{
name = top;
pos = (338,546);
}
);
layerId = "6D7935D2-FE9A-430A-A298-15DA7AF44FAE";
shapes = (
{
closed = 1;
nodes = (
(403,-8,o),
(490,45,o),
(525,124,c),
(525,44,ls),
(525,16,o),
(541,0,o),
(569,0,cs),
(595,0,l),
(595,546,l),
(525,546,l),
(525,424,l),
(491,503,o),
(407,554,o),
(305,554,cs),
(163,554,o),
(48,440,o),
(48,274,cs),
(48,108,o),
(163,-8,o),
(305,-8,cs)
);
},
{
closed = 1;
nodes = (
(208,53,o),
(119,140,o),
(119,274,cs),
(119,408,o),
(208,493,o),
(322,493,cs),
(436,493,o),
(525,408,o),
(525,274,cs),
(525,140,o),
(436,53,o),
(322,53,cs)
);
},
{
closed = 1;
nodes = (
(521,13,ls),
(442,-23,o),
(413,-64,o),
(413,-109,cs),
(413,-176,o),
(469,-201,o),
(526,-201,cs),
(550,-201,o),
(576,-196,o),
(598,-188,c),
(598,-139,l),
(576,-148,o),
(553,-153,o),
(534,-153,cs),
(497,-153,o),
(472,-135,o),
(472,-102,cs),
(472,-76,o),
(488,-52,o),
(535,-29,cs),
(595,0,l),
(576,38,l)
);
}
);
width = 675;
}
);
unicode = 261;
userData = {
com.schriftgestaltung.Glyphs.ColorIndex = 8;
com.typesupply.AccentFactory.compileType = manual;
};
},
{
color = 4;
glyphname = ae;
lastChange = "2024-08-05 09:36:18 +0000";
layers = (
{
background = {
shapes = (
{
closed = 1;
nodes = (
(596,237,l),
(1047,237,l),
(1050,256,o),
(1051,274,o),
(1051,291,cs),
(1051,447,o),
(945,560,o),
(792,560,cs),
(714,560,o),
(652,536,o),
(599,473,c),
(599,551,l),
(489,551,l),
(489,473,l),
(444,532,o),
(381,560,o),
(303,560,cs),
(152,560,o),
(37,448,o),
(37,278,cs),
(37,108,o),
(152,-9,o),
(297,-9,cs),
(381,-9,o),
(448,32,o),
(489,83,c),
(489,0,l),
(599,0,l),
(599,83,l),
(638,30,o),
(711,-9,o),
(792,-9,cs),
(920,-9,o),
(1005,68,o),
(1035,164,c),
(911,164,l),
(894,120,o),
(848,87,o),
(777,87,cs),
(697,87,o),
(614,147,o),
(614,265,cs),
(614,290,ls),
(614,394,o),
(691,464,o),
(779,464,cs),
(868,464,o),
(931,407,o),
(933,319,c),
(596,319,l)
);
},
{
closed = 1;
nodes = (
(154,278,cs),
(154,397,o),
(236,461,o),
(321,461,cs),
(407,461,o),
(488,394,o),
(488,276,cs),
(488,157,o),
(407,90,o),
(321,90,cs),
(236,90,o),
(154,159,o)
);
}
);
};
layerId = "4D0F633C-81E1-4D6C-A640-637CE706A5C5";
shapes = (
{
closed = 1;
nodes = (
(385,-7,o),
(457,41,o),
(488,120,c),
(488,64,ls),
(488,26,o),
(514,0,o),
(552,0,cs),
(603,0,l),
(603,551,l),
(488,551,l),
(488,432,l),
(457,511,o),
(385,558,o),
(295,558,cs),
(151,558,o),
(37,445,o),
(37,275,cs),
(37,105,o),
(151,-7,o),
(295,-7,cs)
);
},
{
closed = 1;
nodes = (
(236,92,o),
(154,156,o),
(154,275,cs),
(154,394,o),
(236,459,o),
(321,459,cs),
(406,459,o),
(488,395,o),
(488,276,cs),
(488,157,o),
(406,92,o),
(321,92,cs)
);
},
{
closed = 1;
nodes = (
(922,-7,o),
(1015,32,o),
(1082,121,c),
(997,182,l),
(959,127,o),
(889,89,o),
(821,89,cs),
(736,89,o),
(663,138,o),
(649,205,c),
(651,205,o),
(692,203,o),
(713,202,cs),
(869,195,o),
(1054,234,o),
(1054,376,cs),
(1054,477,o),
(957,558,o),
(819,558,cs),
(663,558,o),
(527,445,o),
(527,272,cs),
(527,113,o),
(642,-7,o),
(821,-7,cs)
);
},
{
closed = 1;
nodes = (
(689,293,o),
(660,294,o),
(642,296,c),
(645,384,o),
(721,462,o),
(825,462,cs),
(894,462,o),
(941,425,o),
(941,380,cs),
(941,308,o),
(821,293,o),
(723,293,cs)
);
}
);
width = 1119;
},
{
associatedMasterId = "4D0F633C-81E1-4D6C-A640-637CE706A5C5";
guides = (
{
angle = 180;
pos = (765,473);
}
);
layerId = "F28C00FA-FD86-4707-9CBE-AF1AB7E52689";
name = "Sep 20 17, 15:51";
shapes = (
{
closed = 1;
nodes = (
(596,237,l),
(1047,237,l),
(1050,256,o),
(1051,274,o),
(1051,291,cs),
(1051,447,o),
(945,560,o),
(792,560,cs),
(714,560,o),
(652,536,o),
(599,473,c),
(599,551,l),
(489,551,l),
(489,473,l),
(444,532,o),
(381,560,o),
(303,560,cs),
(152,560,o),
(37,448,o),
(37,278,cs),
(37,108,o),
(152,-9,o),
(297,-9,cs),
(381,-9,o),
(448,32,o),
(489,83,c),
(489,0,l),
(599,0,l),
(599,83,l),
(638,30,o),
(711,-9,o),
(792,-9,cs),
(920,-9,o),
(1005,68,o),
(1035,164,c),
(911,164,l),
(894,120,o),
(848,87,o),
(777,87,cs),
(697,87,o),
(614,147,o),
(614,265,cs),
(614,290,ls),
(614,394,o),
(691,464,o),
(779,464,cs),
(868,464,o),
(931,407,o),
(933,319,c),
(596,319,l)
);
},
{
closed = 1;
nodes = (
(154,278,cs),
(154,397,o),
(236,461,o),
(321,461,cs),
(407,461,o),
(488,394,o),
(488,276,cs),
(488,157,o),
(407,90,o),
(321,90,cs),
(236,90,o),
(154,159,o)
);
}
);
width = 1088;
},
{
associatedMasterId = "4D0F633C-81E1-4D6C-A640-637CE706A5C5";
background = {
shapes = (
{
closed = 1;
nodes = (
(596,237,l),
(1047,237,l),
(1050,256,o),
(1051,274,o),
(1051,291,cs),
(1051,447,o),
(945,560,o),
(792,560,cs),
(714,560,o),
(652,536,o),
(599,473,c),
(599,551,l),
(489,551,l),
(489,473,l),
(444,532,o),
(381,560,o),
(303,560,cs),
(152,560,o),
(37,448,o),
(37,278,cs),
(37,108,o),
(152,-9,o),
(297,-9,cs),
(381,-9,o),
(448,32,o),
(489,83,c),
(489,0,l),
(599,0,l),
(599,83,l),
(638,30,o),
(711,-9,o),
(792,-9,cs),
(920,-9,o),
(1005,68,o),
(1035,164,c),
(911,164,l),
(894,120,o),
(848,87,o),
(777,87,cs),
(697,87,o),
(614,147,o),
(614,265,cs),
(614,290,ls),
(614,394,o),
(691,464,o),
(779,464,cs),
(868,464,o),
(931,407,o),
(933,319,c),
(596,319,l)
);
},
{
closed = 1;
nodes = (
(154,278,cs),
(154,397,o),
(236,461,o),
(321,461,cs),
(407,461,o),
(488,394,o),
(488,276,cs),
(488,157,o),
(407,90,o),
(321,90,cs),
(236,90,o),
(154,159,o)
);
}
);
};
guides = (
{
angle = 180;
pos = (765,473);
}
);
layerId = "B571E213-2767-49E5-BB94-1DA67743BFD7";
name = "Sep 20 17, 15:52";
shapes = (
{
closed = 1;
nodes = (
(596,237,l),
(1047,237,l),
(1050,256,o),
(1051,274,o),
(1051,291,cs),
(1051,447,o),
(945,560,o),
(792,560,cs),
(714,560,o),
(652,536,o),
(599,473,c),
(599,551,l),
(489,551,l),
(489,473,l),
(444,532,o),
(381,560,o),
(303,560,cs),
(152,560,o),
(37,448,o),
(37,278,cs),
(37,108,o),
(152,-9,o),
(297,-9,cs),
(381,-9,o),
(448,32,o),
(489,83,c),
(489,0,l),
(599,0,l),
(599,83,l),
(638,30,o),
(711,-9,o),
(792,-9,cs),
(920,-9,o),
(1005,68,o),
(1035,164,c),
(911,164,l),
(894,120,o),
(848,87,o),
(777,87,cs),
(697,87,o),
(614,147,o),
(614,265,cs),
(614,290,ls),
(614,394,o),
(691,464,o),
(779,464,cs),
(868,464,o),
(931,407,o),
(933,319,c),
(596,319,l)
);
},
{
closed = 1;
nodes = (
(154,278,cs),
(154,397,o),
(236,461,o),
(321,461,cs),
(407,461,o),
(488,394,o),
(488,276,cs),
(488,157,o),
(407,90,o),
(321,90,cs),
(236,90,o),
(154,159,o)
);
}
);
width = 1088;
},
{
layerId = "86171893-955A-4CD1-BD1B-2F7A53CC85DC";
shapes = (
{
closed = 1;
nodes = (
(338,-7,o),
(403,41,o),
(427,125,c),
(427,96,ls),
(427,34,o),
(461,0,o),
(523,0,cs),
(623,0,l),
(623,561,l),
(427,561,l),
(427,435,l),
(403,519,o),
(338,568,o),
(256,568,cs),
(108,568,o),
(24,436,o),
(24,280,cs),
(24,124,o),
(108,-7,o),
(256,-7,cs)
);
},
{
closed = 1;
nodes = (
(267,165,o),
(224,208,o),
(224,280,cs),
(224,352,o),
(267,397,o),
(325,397,cs),
(383,397,o),
(427,352,o),
(427,280,cs),
(427,208,o),
(383,165,o),
(325,165,cs)
);
},
{
closed = 1;
nodes = (
(913,-7,o),
(1019,31,o),
(1078,107,c),
(958,204,l),
(927,170,o),
(874,136,o),
(813,136,cs),
(756,136,o),
(702,165,o),
(693,200,c),
(705,199,o),
(717,199,o),
(730,199,cs),
(875,199,o),
(1051,242,o),
(1051,380,cs),
(1051,498,o),
(919,568,o),
(794,568,cs),
(632,568,o),
(498,447,o),
(498,276,cs),
(498,90,o),
(655,-7,o),
(809,-7,cs)
);
},
{
closed = 1;
nodes = (
(711,320,o),
(692,321,o),
(683,322,c),
(686,363,o),
(724,425,o),
(793,425,cs),
(827,425,o),
(865,408,o),
(865,380,cs),
(865,331,o),
(788,320,o),
(726,320,cs)
);
}
);
width = 1102;
},
{
layerId = "6D7935D2-FE9A-430A-A298-15DA7AF44FAE";
shapes = (
{
closed = 1;
nodes = (
(403,-7,o),
(490,45,o),
(525,124,c),
(525,44,ls),
(525,16,o),
(541,0,o),
(569,0,cs),
(595,0,l),
(595,546,l),
(525,546,l),
(525,424,l),
(491,503,o),
(407,553,o),
(305,553,cs),
(163,553,o),
(48,440,o),
(48,274,cs),
(48,108,o),
(163,-7,o),
(305,-7,cs)
);
},
{
closed = 1;
nodes = (
(208,54,o),
(119,140,o),
(119,274,cs),
(119,408,o),
(208,492,o),
(322,492,cs),
(436,492,o),
(525,408,o),
(525,274,cs),
(525,140,o),
(436,54,o),
(322,54,cs)
);
},
{
closed = 1;
nodes = (
(948,-7,o),
(1038,58,o),
(1079,112,c),
(1028,152,l),
(994,113,o),
(920,54,o),
(828,54,cs),
(703,54,o),
(620,133,o),
(611,224,c),
(647,219,o),
(691,215,o),
(738,215,cs),
(886,215,o),
(1051,249,o),
(1051,388,cs),
(1051,480,o),
(959,553,o),
(828,553,cs),
(678,553,o),
(539,429,o),
(539,269,cs),
(539,94,o),
(666,-7,o),
(828,-7,cs)
);
},
{
closed = 1;
nodes = (
(680,276,o),
(635,279,o),
(607,284,c),
(612,387,o),
(707,492,o),
(832,492,cs),
(914,492,o),
(983,446,o),
(983,382,cs),
(983,301,o),
(846,276,o),
(731,276,cs)
);
}
);
width = 1127;
}
);
unicode = 230;
userData = {
com.schriftgestaltung.Glyphs.ColorIndex = 4;
com.typemytype.robofont.layerData = {
b = {
anchors = (
);
components = (
);
contours = (
{
points = (
{
segmentType = line;
smooth = 0;
x = 547;
y = 261;
},
{
segmentType = line;
smooth = 0;
x = 1043;
y = 261;
},
{
smooth = 0;
x = 1046;
y = 280;
},
{
smooth = 0;
x = 1047;
y = 298;
},
{
segmentType = curve;
smooth = 1;
x = 1047;
y = 315;
},
{
smooth = 0;
x = 1047;
y = 439;
},
{
smooth = 0;
x = 956;
y = 552;
},
{
segmentType = curve;
smooth = 1;
x = 799;
y = 552;
},
{
smooth = 0;
x = 703;
y = 552;
},
{
smooth = 0;
x = 638;
y = 528;
},
{
segmentType = curve;
smooth = 0;
x = 582;
y = 437;
},
{
segmentType = line;
smooth = 0;
x = 582;
y = 540;
},
{
segmentType = line;
smooth = 0;
x = 562;
y = 540;
},
{
segmentType = line;
smooth = 0;
x = 562;
y = 437;
},
{
smooth = 0;
x = 508;
y = 528;
},
{
smooth = 0;
x = 432;
y = 552;
},
{
segmentType = curve;
smooth = 1;
x = 344;
y = 552;
},
{
smooth = 0;
x = 174;
y = 552;
},
{
smooth = 0;
x = 60;
y = 448;
},
{
segmentType = curve;
smooth = 1;
x = 60;
y = 278;
},
{
smooth = 0;
x = 60;
y = 108;
},
{
smooth = 0;
x = 174;
y = -12;
},
{
segmentType = curve;
smooth = 1;
x = 329;
y = -12;
},
{
smooth = 0;
x = 432;
y = -12;
},
{
smooth = 0;
x = 521;
y = 41;
},
{
segmentType = curve;
smooth = 0;
x = 562;
y = 105;
},
{
segmentType = line;
smooth = 0;
x = 562;
y = 0;
},
{
segmentType = line;
smooth = 0;
x = 582;
y = 0;
},
{
segmentType = line;
smooth = 0;
x = 582;
y = 103;
},
{
smooth = 0;
x = 627;
y = 34;
},
{
smooth = 0;
x = 696;
y = -12;
},
{
segmentType = curve;
smooth = 1;
x = 780;
y = -12;
},
{
smooth = 0;
x = 924;
y = -12;
},
{
smooth = 0;
x = 995;
y = 66;
},
{
segmentType = curve;
smooth = 0;
x = 1027;
y = 137;
},
{
segmentType = line;
smooth = 0;
x = 1007;
y = 137;
},
{
smooth = 0;
x = 982;
y = 60;
},
{
smooth = 0;
x = 917;
y = -1;
},
{
segmentType = curve;
smooth = 1;
x = 807;
y = -1;
},
{
smooth = 0;
x = 667;
y = -1;
},
{
smooth = 0;
x = 561;
y = 118;
},
{
segmentType = curve;
smooth = 1;
x = 561;
y = 274;
},
{
segmentType = line;
smooth = 1;
x = 561;
y = 259;
},
{
smooth = 0;
x = 561;
y = 432;
},
{
smooth = 0;
x = 674;
y = 541;
},
{
segmentType = curve;
smooth = 1;
x = 804;
y = 541;
},
{
smooth = 0;
x = 933;
y = 541;
},
{
smooth = 0;
x = 1030;
y = 448;
},
{
segmentType = curve;
smooth = 0;
x = 1027;
y = 290;
},
{
segmentType = line;
smooth = 0;
x = 552;
y = 290;
}
);
},
{
points = (
{
segmentType = curve;
smooth = 1;
x = 81;
y = 278;
},
{
smooth = 0;
x = 81;
y = 438;
},
{
smooth = 0;
x = 192;
y = 536;
},
{
segmentType = curve;
smooth = 1;
x = 323;
y = 536;
},
{
smooth = 0;
x = 456;
y = 536;
},
{
smooth = 0;
x = 567;
y = 430;
},
{
segmentType = curve;
smooth = 1;
x = 567;
y = 270;
},
{
smooth = 0;
x = 567;
y = 110;
},
{
smooth = 0;
x = 456;
y = 5;
},
{
segmentType = curve;
smooth = 1;
x = 323;
y = 5;
},
{
smooth = 0;
x = 192;
y = 5;
},
{
smooth = 0;
x = 81;
y = 118;
}
);
}
);
lib = {
};
name = ae;
unicodes = (
);
width = 1135;
};
};
com.typesupply.AccentFactory.yCoordinates = {
bottom = {
name = origin;
type = glyphMetric;
};
top = {
name = xHeight;
type = fontInfo;
};
};
};
},
{
color = 4;
glyphname = b;
lastChange = "2024-08-04 21:06:10 +0000";
layers = (
{
background = {
shapes = (
{
closed = 1;
nodes = (
(225,465,c),
(225,740,l),
(111,740,l),
(111,0,l),
(225,0,l),
(225,84,l),
(261,34,o),
(326,-9,o),
(417,-9,cs),
(562,-9,o),
(676,108,o),
(676,278,cs),
(676,448,o),
(563,560,o),
(417,560,cs),
(330,560,o),
(261,517,o)
);
},
{
closed = 1;
nodes = (
(560,278,cs),
(560,159,o),
(478,90,o),
(392,90,cs),
(307,90,o),
(225,157,o),
(225,276,cs),
(225,394,o),
(307,461,o),
(392,461,cs),
(478,461,o),
(560,397,o)
);
}
);
};
layerId = "4D0F633C-81E1-4D6C-A640-637CE706A5C5";
shapes = (
{
closed = 1;
nodes = (
(527,-7,o),
(641,106,o),
(641,276,cs),
(641,446,o),
(527,558,o),
(383,558,cs),
(293,558,o),
(221,510,o),
(190,432,c),
(190,740,l),
(75,740,l),
(75,0,l),
(126,0,ls),
(164,0,o),
(190,26,o),
(190,64,cs),
(190,120,l),
(221,41,o),
(293,-7,o),
(383,-7,cs)
);
},
{
closed = 1;
nodes = (
(272,92,o),
(190,157,o),
(190,276,cs),
(190,395,o),
(272,459,o),
(357,459,cs),
(442,459,o),
(524,395,o),
(524,276,cs),
(524,157,o),
(442,92,o),
(357,92,cs)
);
}
);
width = 679;
},
{
layerId = "86171893-955A-4CD1-BD1B-2F7A53CC85DC";
shapes = (
{
closed = 1;
nodes = (
(571,-7,o),
(655,124,o),
(655,280,c),
(655,436,o),
(571,568,o),
(423,568,c),
(341,568,o),
(276,519,o),
(252,435,c),
(252,740,l),
(56,740,l),
(56,0,l),
(156,0,ls),
(218,0,o),
(252,34,o),
(252,96,cs),
(252,125,l),
(276,41,o),
(341,-7,o),
(423,-7,c)
);
},
{
closed = 1;
nodes = (
(296,165,o),
(252,208,o),
(252,280,c),
(252,352,o),
(296,397,o),
(354,397,c),
(412,397,o),
(455,353,o),
(455,280,c),
(455,208,o),
(412,165,o),
(354,165,c)
);
}
);
width = 679;
},
{
layerId = "6D7935D2-FE9A-430A-A298-15DA7AF44FAE";
shapes = (
{
closed = 1;
nodes = (
(512,-7,o),
(627,108,o),
(627,274,cs),
(627,440,o),
(512,553,o),
(370,553,cs),
(268,553,o),
(184,503,o),
(150,424,c),
(150,740,l),
(80,740,l),
(80,0,l),
(106,0,ls),
(134,0,o),
(150,16,o),
(150,44,cs),
(150,124,l),
(184,45,o),
(272,-7,o),
(370,-7,cs)
);
},
{
closed = 1;
nodes = (
(239,54,o),
(150,140,o),
(150,274,cs),
(150,408,o),
(239,492,o),
(353,492,cs),
(467,492,o),
(556,408,o),
(556,274,cs),
(556,140,o),
(467,54,o),
(353,54,cs)
);
}
);
width = 676;
}
);
unicode = 98;
userData = {
com.schriftgestaltung.Glyphs.ColorIndex = 4;
com.typemytype.robofont.layerData = {
b = {
anchors = (
);
components = (
);
contours = (
{
points = (
{
segmentType = curve;
smooth = 0;
x = 105;
y = 398;
},
{
segmentType = line;
smooth = 0;
x = 105;
y = 740;
},
{
segmentType = line;
smooth = 0;
x = 85;
y = 740;
},
{
segmentType = line;
smooth = 0;
x = 85;
y = 0;
},
{
segmentType = line;
smooth = 0;
x = 105;
y = 0;
},
{
segmentType = line;
smooth = 0;
x = 105;
y = 140;
},
{
smooth = 0;
x = 137;
y = 60;
},
{
smooth = 0;
x = 223;
y = -12;
},
{
segmentType = curve;
smooth = 1;
x = 342;
y = -12;
},
{
smooth = 0;
x = 498;
y = -12;
},
{
smooth = 0;
x = 611;
y = 108;
},
{
segmentType = curve;
smooth = 1;
x = 611;
y = 278;
},
{
smooth = 0;
x = 611;
y = 448;
},
{
smooth = 0;
x = 498;
y = 552;
},
{
segmentType = curve;
smooth = 1;
x = 342;
y = 552;
},
{
smooth = 0;
x = 223;
y = 552;
},
{
smooth = 0;
x = 138;
y = 480;
}
);
},
{
points = (
{
segmentType = curve;
smooth = 1;
x = 590;
y = 278;
},
{
smooth = 0;
x = 590;
y = 118;
},
{
smooth = 0;
x = 480;
y = 5;
},
{
segmentType = curve;
smooth = 1;
x = 347;
y = 5;
},
{
smooth = 0;
x = 215;
y = 5;
},
{
smooth = 0;
x = 105;
y = 110;
},
{
segmentType = curve;
smooth = 1;
x = 105;
y = 270;
},
{
smooth = 0;
x = 105;
y = 430;
},
{
smooth = 0;
x = 215;
y = 536;
},
{
segmentType = curve;
smooth = 1;
x = 347;
y = 536;
},
{
smooth = 0;
x = 480;
y = 536;
},
{
smooth = 0;
x = 590;
y = 438;
}
);
}
);
lib = {
};
name = b;
unicodes = (
);
width = 671;
};
};
com.typesupply.AccentFactory.yCoordinates = {
bottom = {
name = origin;
type = glyphMetric;
};
top = {
name = ascender;
type = fontInfo;
};
};
};
},
{
color = 4;
glyphname = c;
lastChange = "2024-08-04 19:08:24 +0000";
layers = (
{
layerId = "4D0F633C-81E1-4D6C-A640-637CE706A5C5";
shapes = (
{
closed = 1;
nodes = (
(452,-7,o),
(530,76,o),
(561,181,c),
(455,206,l),
(434,134,o),
(384,89,o),
(307,89,cs),
(215,89,o),
(154,157,o),
(154,276,cs),
(154,395,o),
(215,462,o),
(307,462,cs),
(374,462,o),
(420,426,o),
(446,356,c),
(555,391,l),
(516,506,o),
(435,558,o),
(307,558,cs),
(149,558,o),
(37,447,o),
(37,276,cs),
(37,105,o),
(149,-7,o),
(307,-7,cs)
);
}
);
width = 600;
},
{
layerId = "86171893-955A-4CD1-BD1B-2F7A53CC85DC";
shapes = (
{
closed = 1;
nodes = (
(463,-7,o),
(554,94,o),
(577,192,c),
(378,239,l),
(375,198,o),
(354,158,o),
(304,158,cs),
(255,158,o),
(224,202,o),
(224,281,cs),
(224,360,o),
(256,401,o),
(304,401,cs),
(345,401,o),
(370,374,o),
(379,332,c),
(569,392,l),
(523,540,o),
(403,568,o),
(308,568,cs),
(136,568,o),
(24,453,o),
(24,281,cs),
(24,105,o),
(139,-7,o),
(308,-7,cs)
);
}
);
width = 602;
},
{
layerId = "6D7935D2-FE9A-430A-A298-15DA7AF44FAE";
shapes = (
{
closed = 1;
nodes = (
(446,-7,o),
(537,69,o),
(565,183,c),
(501,199,l),
(481,113,o),
(419,52,o),
(313,52,cs),
(206,52,o),
(119,125,o),
(119,273,cs),
(119,421,o),
(206,493,o),
(313,493,cs),
(405,493,o),
(464,446,o),
(490,365,c),
(554,386,l),
(521,499,o),
(430,553,o),
(313,553,cs),
(159,553,o),
(48,446,o),
(48,273,cs),
(48,100,o),
(159,-7,o),
(313,-7,cs)
);
}
);
width = 613;
}
);
unicode = 99;
userData = {
com.schriftgestaltung.Glyphs.ColorIndex = 4;
com.typemytype.robofont.guides = (
{
angle = 90;
isGlobal = 0;
magnetic = 5;
x = 287;
y = 532;
}
);
com.typesupply.AccentFactory.yCoordinates = {
bottom = {
name = origin;
type = glyphMetric;
};
top = {
name = xHeight;
type = fontInfo;
};
};
};
},
{
color = 4;
glyphname = cacute;
lastChange = "2024-08-04 19:08:30 +0000";
layers = (
{
layerId = "4D0F633C-81E1-4D6C-A640-637CE706A5C5";
shapes = (
{
closed = 1;
nodes = (
(452,-7,o),
(530,76,o),
(561,181,c),
(455,206,l),
(434,134,o),
(384,89,o),
(307,89,cs),
(215,89,o),
(154,157,o),
(154,276,cs),
(154,395,o),
(215,462,o),
(307,462,cs),
(374,462,o),
(420,426,o),
(446,356,c),
(555,391,l),
(516,506,o),
(435,558,o),
(307,558,cs),
(149,558,o),
(37,447,o),
(37,276,cs),
(37,105,o),
(149,-7,o),
(307,-7,cs)
);
},
{
closed = 1;
nodes = (
(403,699,l),
(403,796,l),
(182,674,l),
(182,590,l)
);
}
);
width = 600;
},
{
layerId = "86171893-955A-4CD1-BD1B-2F7A53CC85DC";
shapes = (
{
closed = 1;
nodes = (
(463,-7,o),
(554,94,o),
(577,192,c),
(378,239,l),
(375,198,o),
(354,158,o),
(304,158,cs),
(255,158,o),
(224,202,o),
(224,281,cs),
(224,360,o),
(256,401,o),
(304,401,cs),
(345,401,o),
(370,374,o),
(379,332,c),
(569,392,l),
(523,540,o),
(403,568,o),
(308,568,cs),
(136,568,o),
(24,453,o),
(24,281,cs),
(24,105,o),
(139,-7,o),
(308,-7,cs)
);
},
{
closed = 1;
nodes = (
(421,697,l),
(421,845,l),
(171,732,l),
(171,599,l)
);
}
);
width = 602;
},
{
layerId = "6D7935D2-FE9A-430A-A298-15DA7AF44FAE";
shapes = (
{
closed = 1;
nodes = (
(446,-7,o),
(537,69,o),
(565,183,c),
(501,199,l),
(481,113,o),
(419,52,o),
(313,52,cs),
(206,52,o),
(119,125,o),
(119,273,cs),
(119,421,o),
(206,493,o),
(313,493,cs),
(405,493,o),
(464,446,o),
(490,365,c),
(554,386,l),
(521,499,o),
(430,553,o),
(313,553,cs),
(159,553,o),
(48,446,o),
(48,273,cs),
(48,100,o),
(159,-7,o),
(313,-7,cs)
);
},
{
closed = 1;
nodes = (
(400,707,l),
(400,770,l),
(195,642,l),
(195,588,l)
);
}
);
width = 613;
}
);
unicode = 263;
userData = {
com.schriftgestaltung.Glyphs.ColorIndex = 8;
};
},
{
color = 4;
glyphname = ccaron;
lastChange = "2024-08-04 19:08:51 +0000";
layers = (
{
layerId = "4D0F633C-81E1-4D6C-A640-637CE706A5C5";
shapes = (
{
closed = 1;
nodes = (
(452,-7,o),
(530,76,o),
(561,181,c),
(455,206,l),
(434,134,o),
(384,89,o),
(307,89,cs),
(215,89,o),
(154,157,o),
(154,276,cs),
(154,395,o),
(215,462,o),
(307,462,cs),
(374,462,o),
(420,426,o),
(446,356,c),
(555,391,l),
(516,506,o),
(435,558,o),
(307,558,cs),
(149,558,o),
(37,447,o),
(37,276,cs),
(37,105,o),
(149,-7,o),
(307,-7,cs)
);
},
{
closed = 1;
nodes = (
(443,673,l),
(443,762,l),
(300,676,l),
(157,762,l),
(157,673,l),
(300,590,l)
);
}
);
width = 600;
},
{
layerId = "86171893-955A-4CD1-BD1B-2F7A53CC85DC";
shapes = (
{
closed = 1;
nodes = (
(463,-7,o),
(554,94,o),
(577,192,c),
(378,239,l),
(375,198,o),
(354,158,o),
(304,158,cs),
(255,158,o),
(224,202,o),
(224,281,cs),
(224,360,o),
(256,401,o),
(304,401,cs),
(345,401,o),
(370,374,o),
(379,332,c),
(569,392,l),
(523,540,o),
(403,568,o),
(308,568,cs),
(136,568,o),
(24,453,o),
(24,281,cs),
(24,105,o),
(139,-7,o),
(308,-7,cs)
);
},
{
closed = 1;
nodes = (
(460,676,l),
(460,807,l),
(301,720,l),
(140,807,l),
(140,676,l),
(301,599,l)
);
}
);
width = 602;
},
{
layerId = "6D7935D2-FE9A-430A-A298-15DA7AF44FAE";
shapes = (
{
closed = 1;
nodes = (
(446,-7,o),
(537,69,o),
(565,183,c),
(501,199,l),
(481,113,o),
(419,52,o),
(313,52,cs),
(206,52,o),
(119,125,o),
(119,273,cs),
(119,421,o),
(206,493,o),
(313,493,cs),
(405,493,o),
(464,446,o),
(490,365,c),
(554,386,l),
(521,499,o),
(430,553,o),
(313,553,cs),
(159,553,o),
(48,446,o),
(48,273,cs),
(48,100,o),
(159,-7,o),
(313,-7,cs)
);
},
{
closed = 1;
nodes = (
(442,685,l),
(442,741,l),
(308,658,l),
(174,741,l),
(174,685,l),
(308,603,l)
);
}
);
width = 613;
}
);
unicode = 269;
userData = {
com.schriftgestaltung.Glyphs.ColorIndex = 8;
};
},
{
color = 4;
glyphname = ccedilla;
lastChange = "2024-08-04 19:08:57 +0000";
layers = (
{
layerId = "4D0F633C-81E1-4D6C-A640-637CE706A5C5";
shapes = (
{
closed = 1;
nodes = (
(452,-7,o),
(530,76,o),
(561,181,c),
(455,206,l),
(434,134,o),
(384,89,o),
(307,89,cs),
(215,89,o),
(154,157,o),
(154,276,cs),
(154,395,o),
(215,462,o),
(307,462,cs),
(374,462,o),
(420,426,o),
(446,356,c),
(555,391,l),
(516,506,o),
(435,558,o),
(307,558,cs),
(149,558,o),
(37,447,o),
(37,276,cs),
(37,105,o),
(149,-7,o),
(307,-7,cs)
);
},
{
closed = 1;
nodes = (
(344,-262,ls),
(415,-262,o),
(471,-221,o),
(471,-153,cs),
(471,-84,o),
(415,-48,o),
(341,-48,c),
(341,7,l),
(266,7,l),
(266,-116,l),
(321,-116,ls),
(356,-116,o),
(377,-123,o),
(377,-153,cs),
(377,-183,o),
(356,-190,o),
(321,-190,cs),
(212,-190,l),
(212,-262,l)
);
}
);
width = 600;
},
{
layerId = "86171893-955A-4CD1-BD1B-2F7A53CC85DC";
shapes = (
{
closed = 1;
nodes = (
(463,-7,o),
(554,94,o),
(577,192,c),
(378,239,l),
(375,198,o),
(354,158,o),
(304,158,cs),
(255,158,o),
(224,202,o),
(224,281,cs),
(224,360,o),
(256,401,o),
(304,401,cs),
(345,401,o),
(370,374,o),
(379,332,c),
(569,392,l),
(523,540,o),
(403,568,o),
(308,568,cs),
(136,568,o),
(24,453,o),
(24,281,cs),
(24,105,o),
(139,-7,o),
(308,-7,cs)
);
},
{
closed = 1;
nodes = (
(351,-269,ls),
(419,-269,o),
(496,-239,o),
(496,-150,cs),
(496,-61,o),
(420,-32,o),
(366,-32,c),
(366,7,l),
(250,7,l),
(250,-124,l),
(328,-124,ls),
(349,-124,o),
(361,-130,o),
(361,-145,cs),
(361,-159,o),
(349,-166,o),
(328,-166,cs),
(188,-166,l),
(188,-269,l)
);
}
);
width = 602;
},
{
layerId = "6D7935D2-FE9A-430A-A298-15DA7AF44FAE";
shapes = (
{
closed = 1;
nodes = (
(446,-7,o),
(537,69,o),
(565,183,c),
(501,199,l),
(481,113,o),
(419,52,o),
(313,52,cs),
(206,52,o),
(119,125,o),
(119,273,cs),
(119,421,o),
(206,493,o),
(313,493,cs),
(405,493,o),
(464,446,o),
(490,365,c),
(554,386,l),
(521,499,o),
(430,553,o),
(313,553,cs),
(159,553,o),
(48,446,o),
(48,273,cs),
(48,100,o),
(159,-7,o),
(313,-7,cs)
);
},
{
closed = 1;
nodes = (
(347,-258,ls),
(417,-258,o),
(464,-220,o),
(464,-160,cs),
(464,-98,o),
(414,-65,o),
(336,-67,c),
(336,7,l),
(287,7,l),
(287,-112,l),
(333,-112,ls),
(383,-112,o),
(405,-129,o),
(405,-160,cs),
(405,-194,o),
(383,-211,o),
(333,-211,cs),
(247,-211,l),
(247,-258,l)
);
}
);
width = 613;
}
);
unicode = 231;
userData = {
com.schriftgestaltung.Glyphs.ColorIndex = 4;
};
},
{
color = 4;
glyphname = cdotaccent;
lastChange = "2024-08-04 19:09:01 +0000";
layers = (
{
layerId = "4D0F633C-81E1-4D6C-A640-637CE706A5C5";
shapes = (
{
closed = 1;
nodes = (
(452,-7,o),
(530,76,o),
(561,181,c),
(455,206,l),
(434,134,o),
(384,89,o),
(307,89,cs),
(215,89,o),
(154,157,o),
(154,276,cs),
(154,395,o),
(215,462,o),
(307,462,cs),
(374,462,o),
(420,426,o),
(446,356,c),
(555,391,l),
(516,506,o),
(435,558,o),
(307,558,cs),
(149,558,o),
(37,447,o),
(37,276,cs),
(37,105,o),
(149,-7,o),
(307,-7,cs)
);
},
{
closed = 1;
nodes = (
(333,620,o),
(360,646,o),
(360,680,cs),
(360,713,o),
(333,740,o),
(300,740,cs),
(266,740,o),
(240,713,o),
(240,680,cs),
(240,646,o),
(266,620,o),
(300,620,cs)
);
}
);
width = 600;
},
{
layerId = "86171893-955A-4CD1-BD1B-2F7A53CC85DC";
shapes = (
{
closed = 1;
nodes = (
(463,-7,o),
(554,94,o),
(577,192,c),
(378,239,l),
(375,198,o),
(354,158,o),
(304,158,cs),
(255,158,o),
(224,202,o),
(224,281,cs),
(224,360,o),
(256,401,o),
(304,401,cs),
(345,401,o),
(370,374,o),
(379,332,c),
(569,392,l),
(523,540,o),
(403,568,o),
(308,568,cs),
(136,568,o),
(24,453,o),
(24,281,cs),
(24,105,o),
(139,-7,o),
(308,-7,cs)
);
},
{
closed = 1;
nodes = (
(345,620,o),
(380,654,o),
(380,699,cs),
(380,745,o),
(345,780,o),
(299,780,cs),
(254,780,o),
(220,745,o),
(220,699,cs),
(220,654,o),
(254,620,o),
(299,620,cs)
);
}
);
width = 602;
},
{
layerId = "6D7935D2-FE9A-430A-A298-15DA7AF44FAE";
shapes = (
{
closed = 1;
nodes = (
(446,-7,o),
(537,69,o),
(565,183,c),
(501,199,l),
(481,113,o),
(419,52,o),
(313,52,cs),
(206,52,o),
(119,125,o),
(119,273,cs),
(119,421,o),
(206,493,o),
(313,493,cs),
(405,493,o),
(464,446,o),
(490,365,c),
(554,386,l),
(521,499,o),
(430,553,o),
(313,553,cs),
(159,553,o),
(48,446,o),
(48,273,cs),
(48,100,o),
(159,-7,o),
(313,-7,cs)
);
},
{
closed = 1;
nodes = (
(333,613,o),
(354,634,o),
(354,659,cs),
(354,684,o),
(333,705,o),
(308,705,cs),
(283,705,o),
(262,684,o),
(262,659,cs),
(262,634,o),
(283,613,o),
(308,613,cs)
);
}
);
width = 613;
}
);
unicode = 267;
},
{
color = 4;
glyphname = d;
lastChange = "2024-08-04 17:59:36 +0000";
layers = (
{
anchors = (
{
name = topright;
pos = (602,740);
}
);
background = {
shapes = (
{
closed = 1;
nodes = (
(36,278,cs),
(36,108,o),
(151,-9,o),
(296,-9,cs),
(386,-9,o),
(452,39,o),
(487,103,c),
(487,0,l),
(602,0,l),
(602,740,l),
(487,740,l),
(487,453,l),
(453,514,o),
(386,560,o),
(296,560,cs),
(151,560,o),
(36,448,o)
);
},
{
closed = 1;
nodes = (
(487,276,cs),
(487,157,o),
(406,90,o),
(320,90,cs),
(235,90,o),
(153,159,o),
(153,278,cs),
(153,397,o),
(235,461,o),
(320,461,cs),
(406,461,o),
(487,394,o)
);
}
);
};
layerId = "4D0F633C-81E1-4D6C-A640-637CE706A5C5";
shapes = (
{
closed = 1;
nodes = (
(385,-7,o),
(457,41,o),
(488,120,c),
(488,64,ls),
(488,26,o),
(514,0,o),
(552,0,cs),
(603,0,l),
(603,740,l),
(488,740,l),
(488,432,l),
(457,510,o),
(385,558,o),
(295,558,cs),
(151,558,o),
(37,446,o),
(37,276,cs),
(37,106,o),
(151,-7,o),
(295,-7,cs)
);
},
{
closed = 1;
nodes = (
(236,92,o),
(154,157,o),
(154,276,cs),
(154,395,o),
(236,459,o),
(321,459,cs),
(406,459,o),
(488,395,o),
(488,276,cs),
(488,157,o),
(406,92,o),
(321,92,cs)
);
}
);
width = 678;
},
{
anchors = (
{
name = topright;
pos = (624,740);
}
);
layerId = "86171893-955A-4CD1-BD1B-2F7A53CC85DC";
shapes = (
{
closed = 1;
nodes = (
(338,-7,o),
(403,41,o),
(427,125,c),
(427,96,ls),
(427,34,o),
(461,0,o),
(523,0,cs),
(623,0,l),
(623,740,l),
(427,740,l),
(427,435,l),
(403,519,o),
(338,568,o),
(256,568,c),
(108,568,o),
(24,436,o),
(24,280,c),
(24,124,o),
(108,-7,o),
(256,-7,c)
);
},
{
closed = 1;
nodes = (
(267,165,o),
(224,208,o),
(224,280,c),
(224,352,o),
(267,397,o),
(325,397,c),
(383,397,o),
(427,352,o),
(427,280,c),
(427,208,o),
(383,165,o),
(325,165,c)
);
}
);
width = 679;
},
{
anchors = (
{
name = topright;
pos = (596,740);
}
);
layerId = "6D7935D2-FE9A-430A-A298-15DA7AF44FAE";
shapes = (
{
closed = 1;
nodes = (
(403,-7,o),
(491,45,o),
(525,124,c),
(525,44,ls),
(525,16,o),
(541,0,o),
(569,0,cs),
(595,0,l),
(595,740,l),
(525,740,l),
(525,424,l),
(491,503,o),
(407,553,o),
(305,553,cs),
(163,553,o),
(48,440,o),
(48,274,cs),
(48,108,o),
(163,-7,o),
(305,-7,cs)
);
},
{
closed = 1;
nodes = (
(208,54,o),
(119,140,o),
(119,274,cs),
(119,408,o),
(208,492,o),
(322,492,cs),
(436,492,o),
(525,408,o),
(525,274,cs),
(525,140,o),
(436,54,o),
(322,54,cs)
);
}
);
width = 675;
}
);
unicode = 100;
userData = {
com.schriftgestaltung.Glyphs.ColorIndex = 4;
com.typesupply.AccentFactory.yCoordinates = {
bottom = {
name = origin;
type = glyphMetric;
};
top = {
name = ascender;
type = fontInfo;
};
};
};
},
{
color = 4;
glyphname = eth;
lastChange = "2024-08-04 17:59:55 +0000";
layers = (
{
layerId = "4D0F633C-81E1-4D6C-A640-637CE706A5C5";
shapes = (
{
closed = 1;
nodes = (
(264,649,l),
(264,588,l),
(551,682,l),
(551,743,l)
);
},
{
closed = 1;
nodes = (
(158,560,o),
(37,449,o),
(37,276,cs),
(37,103,o),
(156,-9,o),
(314,-9,cs),
(476,-9,o),
(599,101,o),
(599,317,cs),
(599,481,o),
(522,623,o),
(385,740,c),
(269,740,l),
(369,658,o),
(430,587,o),
(466,503,c),
(422,540,o),
(374,560,o),
(307,560,cs)
);
},
{
closed = 1;
nodes = (
(228,87,o),
(154,151,o),
(154,276,cs),
(154,401,o),
(231,464,o),
(316,464,cs),
(402,464,o),
(482,401,o),
(482,276,cs),
(482,151,o),
(399,87,o),
(314,87,cs)
);
}
);
width = 636;
},
{
layerId = "86171893-955A-4CD1-BD1B-2F7A53CC85DC";
shapes = (
{
closed = 1;
nodes = (
(264,657,l),
(264,588,l),
(534,667,l),
(534,737,l)
);
},
{
closed = 1;
nodes = (
(147,566,o),
(24,459,o),
(24,282,cs),
(24,105,o),
(162,-7,o),
(325,-7,cs),
(485,-7,o),
(617,106,o),
(617,317,cs),
(617,477,o),
(537,633,o),
(427,740,c),
(252,740,l),
(309,692,o),
(367,618,o),
(400,547,c),
(368,559,o),
(336,566,o),
(302,566,cs)
);
},
{
closed = 1;
nodes = (
(279,163,o),
(224,196,o),
(224,281,cs),
(224,365,o),
(275,398,o),
(322,398,cs),
(366,398,o),
(417,365,o),
(417,281,cs),
(417,196,o),
(371,163,o),
(325,163,cs)
);
}
);
width = 641;
},
{
layerId = "6D7935D2-FE9A-430A-A298-15DA7AF44FAE";
shapes = (
{
closed = 1;
nodes = (
(258,640,l),
(258,599,l),
(554,701,l),
(554,742,l)
);
},
{
closed = 1;
nodes = (
(160,553,o),
(48,445,o),
(48,279,cs),
(48,106,o),
(157,-7,o),
(318,-7,cs),
(477,-7,o),
(592,98,o),
(592,312,cs),
(592,481,o),
(518,617,o),
(366,740,c),
(294,740,l),
(427,634,o),
(486,548,o),
(515,432,c),
(475,517,o),
(402,553,o),
(314,553,cs)
);
},
{
closed = 1;
nodes = (
(206,52,o),
(119,131,o),
(119,279,cs),
(119,420,o),
(209,494,o),
(319,494,cs),
(427,494,o),
(521,419,o),
(521,273,cs),
(521,130,o),
(427,52,o),
(318,52,cs)
);
}
);
width = 640;
}
);
unicode = 240;
userData = {
com.schriftgestaltung.Glyphs.ColorIndex = 4;
};
},
{
color = 4;
glyphname = dcaron;
lastChange = "2024-08-04 15:20:10 +0000";
layers = (
{
layerId = "4D0F633C-81E1-4D6C-A640-637CE706A5C5";
shapes = (
{
closed = 1;
nodes = (
(709,514,o),
(785,568,o),
(785,659,cs),
(785,703,o),
(753,747,o),
(706,747,cs),
(666,747,o),
(634,720,o),
(634,679,cs),
(634,637,o),
(664,620,o),
(696,620,c),
(709,620,o),
(723,624,o),
(730,631,c),
(728,608,o),
(685,568,o),
(631,573,c),
(631,521,l)
);
},
{
ref = d;
}
);
width = 795;
},
{
layerId = "86171893-955A-4CD1-BD1B-2F7A53CC85DC";
shapes = (
{
closed = 1;
nodes = (
(759,461,o),
(858,514,o),
(858,635,cs),
(858,693,o),
(816,749,o),
(756,749,cs),
(703,749,o),
(662,714,o),
(662,661,cs),
(662,607,o),
(699,585,o),
(743,585,c),
(752,585,o),
(760,586,o),
(768,589,c),
(752,560,o),
(709,544,o),
(658,546,c),
(658,469,l)
);
},
{
alignment = -1;
ref = d;
}
);
width = 868;
},
{
layerId = "6D7935D2-FE9A-430A-A298-15DA7AF44FAE";
shapes = (
{
closed = 1;
nodes = (
(693,565,o),
(746,609,o),
(746,677,cs),
(746,709,o),
(723,744,o),
(690,744,cs),
(660,744,o),
(637,723,o),
(637,695,cs),
(637,665,o),
(657,652,o),
(683,652,c),
(691,652,o),
(700,654,o),
(707,659,c),
(703,630,o),
(672,607,o),
(636,609,c),
(636,569,l)
);
},
{
alignment = -1;
ref = d;
}
);
width = 756;
}
);
unicode = 271;
userData = {
com.schriftgestaltung.Glyphs.ColorIndex = 8;
com.typesupply.AccentFactory.compileType = manual;
};
},
{
color = 4;
glyphname = dcroat;
lastChange = "2024-06-17 15:24:55 +0000";
layers = (
{
layerId = "4D0F633C-81E1-4D6C-A640-637CE706A5C5";
shapes = (
{
closed = 1;
nodes = (
(406,590,l),
(662,590,l),
(662,656,l),
(406,656,l)
);
},
{
ref = d;
}
);
width = 678;
},
{
layerId = "86171893-955A-4CD1-BD1B-2F7A53CC85DC";
shapes = (
{
closed = 1;
nodes = (
(362,592,l),
(686,592,l),
(686,680,l),
(362,680,l)
);
},
{
alignment = -1;
ref = d;
}
);
width = 698;
},
{
layerId = "6D7935D2-FE9A-430A-A298-15DA7AF44FAE";
shapes = (
{
closed = 1;
nodes = (
(385,618,l),
(658,618,l),
(658,662,l),
(385,662,l)
);
},
{
alignment = -1;
ref = d;
}
);
width = 671;
}
);
unicode = 273;
userData = {
com.schriftgestaltung.Glyphs.ColorIndex = 8;
};
},
{
color = 4;
glyphname = e;
lastChange = "2024-08-05 09:09:30 +0000";
layers = (
{
anchors = (
{
name = bottom;
pos = (316,0);
},
{
name = top;
pos = (316,551);
}
);
layerId = "4D0F633C-81E1-4D6C-A640-637CE706A5C5";
shapes = (
{
closed = 1;
nodes = (
(432,-7,o),
(525,32,o),
(592,121,c),
(507,182,l),
(469,127,o),
(399,89,o),
(331,89,cs),
(246,89,o),
(173,138,o),
(159,205,c),
(161,205,o),
(202,203,o),
(223,202,cs),
(379,195,o),
(564,234,o),
(564,376,cs),
(564,477,o),
(467,558,o),
(329,558,cs),
(173,558,o),
(37,445,o),
(37,272,cs),
(37,113,o),
(152,-7,o),
(331,-7,cs)
);
},
{
closed = 1;
nodes = (
(199,293,o),
(170,294,o),
(152,296,c),
(155,384,o),
(231,462,o),
(335,462,cs),
(404,462,o),
(451,425,o),
(451,380,cs),
(451,308,o),
(331,293,o),
(233,293,cs)
);
}
);
width = 619;
},
{
anchors = (
{
name = bottom;
pos = (309,0);
},
{
name = top;
pos = (309,561);
}
);
layerId = "86171893-955A-4CD1-BD1B-2F7A53CC85DC";
shapes = (
{
closed = 1;
nodes = (
(439,-7,o),
(545,31,o),
(604,107,c),
(484,204,l),
(453,170,o),
(400,136,o),
(339,136,cs),
(282,136,o),
(228,165,o),
(219,200,c),
(231,199,o),
(243,199,o),
(256,199,cs),
(401,199,o),
(577,242,o),
(577,380,cs),
(577,498,o),
(445,568,o),
(320,568,cs),
(158,568,o),
(24,447,o),
(24,276,cs),
(24,90,o),
(181,-7,o),
(335,-7,cs)
);
},
{
closed = 1;
nodes = (
(237,320,o),
(218,321,o),
(209,322,c),
(212,363,o),
(250,425,o),
(319,425,cs),
(353,425,o),
(391,408,o),
(391,380,cs),
(391,331,o),
(314,320,o),
(252,320,cs)
);
}
);
width = 618;
},
{
anchors = (
{
name = bottom;
pos = (318,0);
},
{
name = top;
pos = (318,546);
}
);
layerId = "6D7935D2-FE9A-430A-A298-15DA7AF44FAE";
shapes = (
{
closed = 1;
nodes = (
(457,-7,o),
(547,58,o),
(588,112,c),
(537,152,l),
(503,113,o),
(429,54,o),
(337,54,cs),
(212,54,o),
(129,133,o),
(120,224,c),
(156,219,o),
(200,215,o),
(247,215,cs),
(395,215,o),
(560,249,o),
(560,388,cs),
(560,480,o),
(468,553,o),
(337,553,cs),
(187,553,o),
(48,429,o),
(48,269,cs),
(48,94,o),
(175,-7,o),
(337,-7,cs)
);
},
{
closed = 1;
nodes = (
(189,276,o),
(144,279,o),
(116,284,c),
(121,387,o),
(216,492,o),
(341,492,cs),
(423,492,o),
(492,446,o),
(492,382,cs),
(492,301,o),
(355,276,o),
(240,276,cs)
);
}
);
width = 626;
}
);
unicode = 101;
userData = {
com.schriftgestaltung.Glyphs.ColorIndex = 4;
com.typemytype.robofont.layerData = {
b = {
anchors = (
{
name = top;
x = 314;
y = 540;
},
{
name = ogonek;
x = 442;
y = 45;
},
{
name = bottom;
x = 314;
y = 0;
}
);
components = (
);
contours = (
{
points = (
{
segmentType = line;
smooth = 0;
x = 54;
y = 261;
},
{
segmentType = line;
smooth = 0;
x = 564;
y = 261;
},
{
smooth = 0;
x = 567;
y = 280;
},
{
smooth = 0;
x = 568;
y = 298;
},
{
segmentType = curve;
smooth = 1;
x = 568;
y = 315;
},
{
smooth = 0;
x = 568;
y = 434;
},
{
smooth = 0;
x = 482;
y = 552;
},
{
segmentType = curve;
smooth = 1;
x = 330;
y = 552;
},
{
smooth = 0;
x = 164;
y = 552;
},
{
smooth = 0;
x = 60;
y = 438;
},
{
segmentType = curve;
smooth = 1;
x = 60;
y = 270;
},
{
smooth = 0;
x = 60;
y = 103;
},
{
smooth = 0;
x = 164;
y = -12;
},
{
segmentType = curve;
smooth = 1;
x = 316;
y = -12;
},
{
smooth = 0;
x = 451;
y = -12;
},
{
smooth = 0;
x = 516;
y = 66;
},
{
segmentType = curve;
smooth = 0;
x = 548;
y = 137;
},
{
segmentType = line;
smooth = 0;
x = 528;
y = 137;
},
{
smooth = 0;
x = 505;
y = 60;
},
{
smooth = 0;
x = 424;
y = -1;
},
{
segmentType = curve;
smooth = 1;
x = 316;
y = -1;
},
{
smooth = 0;
x = 186;
y = -1;
},
{
smooth = 0;
x = 81;
y = 93;
},
{
segmentType = curve;
smooth = 1;
x = 81;
y = 269;
},
{
segmentType = line;
smooth = 1;
x = 81;
y = 274;
},
{
smooth = 0;
x = 81;
y = 447;
},
{
smooth = 0;
x = 183;
y = 541;
},
{
segmentType = curve;
smooth = 1;
x = 316;
y = 541;
},
{
smooth = 0;
x = 448;
y = 541;
},
{
smooth = 0;
x = 551;
y = 448;
},
{
segmentType = curve;
smooth = 0;
x = 549;
y = 290;
},
{
segmentType = line;
smooth = 0;
x = 53;
y = 290;
}
);
}
);
lib = {
};
name = e;
unicodes = (
);
width = 628;
};
};
com.typesupply.AccentFactory.yCoordinates = {
bottom = {
name = origin;
type = glyphMetric;
};
top = {
name = xHeight;
type = fontInfo;
};
};
};
},
{
color = 4;
glyphname = eogonek;
lastChange = "2024-08-04 21:07:19 +0000";
layers = (
{
background = {
shapes = (
{
closed = 1;
nodes = (
(37,276,cs),
(37,113,o),
(137,4,o),
(281,-8,c),
(279,-14,o),
(278,-22,o),
(278,-30,cs),
(278,-99,o),
(335,-139,o),
(406,-139,cs),
(512,-139,l),
(512,-67,l),
(428,-67,ls),
(393,-67,o),
(372,-60,o),
(372,-30,cs),
(372,-9,o),
(387,0,o),
(414,10,cs),
(481,35,o),
(537,90,o),
(561,164,c),
(438,164,l),
(417,121,o),
(377,87,o),
(307,87,cs),
(218,87,o),
(154,150,o),
(154,251,cs),
(154,295,ls),
(154,400,o),
(221,464,o),
(307,464,cs),
(392,464,o),
(459,407,o),
(461,315,c),
(143,315,l),
(142,237,l),
(576,237,l),
(579,256,o),
(580,274,o),
(580,291,cs),
(580,451,o),
(469,560,o),
(312,560,cs),
(149,560,o),
(37,449,o)
);
}
);
};
layerId = "4D0F633C-81E1-4D6C-A640-637CE706A5C5";
shapes = (
{
closed = 1;
nodes = (
(345,-211,o),
(374,-205,o),
(397,-196,c),
(397,-123,l),
(374,-132,o),
(350,-137,o),
(331,-137,cs),
(297,-137,o),
(276,-119,o),
(276,-91,cs),
(276,-67,o),
(290,-47,o),
(333,-25,cs),
(369,-7,l),
(459,1,o),
(547,41,o),
(607,120,c),
(522,181,l),
(484,123,o),
(404,88,o),
(336,88,cs),
(249,88,o),
(174,136,o),
(160,202,c),
(193,200,o),
(241,200,o),
(248,200,cs),
(410,200,o),
(577,250,o),
(577,375,cs),
(577,476,o),
(471,560,o),
(333,560,cs),
(177,560,o),
(37,445,o),
(37,272,cs),
(37,141,o),
(118,36,o),
(246,3,c),
(201,-30,o),
(183,-66,o),
(183,-103,cs),
(183,-183,o),
(253,-211,o),
(316,-211,cs)
);
},
{
closed = 1;
nodes = (
(201,295,o),
(175,296,o),
(150,298,c),
(153,386,o),
(234,464,o),
(339,464,cs),
(410,464,o),
(461,435,o),
(461,390,cs),
(461,316,o),
(345,295,o),
(227,295,cs)
);
}
);
width = 644;
},
{
layerId = "86171893-955A-4CD1-BD1B-2F7A53CC85DC";
shapes = (
{
closed = 1;
nodes = (
(342,-211,o),
(378,-205,o),
(409,-195,c),
(409,-90,l),
(378,-100,o),
(351,-105,o),
(328,-105,cs),
(304,-105,o),
(289,-94,o),
(289,-78,cs),
(289,-57,o),
(311,-36,o),
(361,-13,cs),
(382,-4,l),
(466,7,o),
(545,45,o),
(594,114,c),
(460,212,l),
(434,176,o),
(376,149,o),
(325,148,cs),
(282,148,o),
(239,164,o),
(224,205,c),
(235,205,o),
(249,205,o),
(262,206,cs),
(384,213,o),
(569,250,o),
(569,381,cs),
(569,499,o),
(445,568,o),
(320,568,cs),
(158,568,o),
(24,439,o),
(24,268,cs),
(24,130,o),
(107,46,o),
(211,12,c),
(205,9,o),
(149,-28,o),
(149,-94,cs),
(149,-169,o),
(211,-211,o),
(304,-211,cs)
);
},
{
closed = 1;
nodes = (
(217,366,o),
(254,422,o),
(319,422,cs),
(351,422,o),
(377,407,o),
(377,379,cs),
(377,341,o),
(321,330,o),
(269,326,cs),
(249,324,o),
(226,324,o),
(214,325,c)
);
}
);
width = 618;
},
{
layerId = "6D7935D2-FE9A-430A-A298-15DA7AF44FAE";
shapes = (
{
closed = 1;
nodes = (
(348,-201,o),
(374,-196,o),
(396,-188,c),
(396,-139,l),
(374,-148,o),
(351,-153,o),
(332,-153,cs),
(295,-153,o),
(270,-135,o),
(270,-102,cs),
(270,-76,o),
(286,-52,o),
(333,-29,cs),
(386,-3,l),
(463,8,o),
(535,46,o),
(588,112,c),
(533,155,l),
(470,85,o),
(401,56,o),
(335,56,cs),
(220,56,o),
(132,131,o),
(120,223,c),
(156,218,o),
(200,214,o),
(247,214,cs),
(395,214,o),
(560,251,o),
(560,388,cs),
(560,481,o),
(454,553,o),
(333,553,cs),
(181,553,o),
(48,431,o),
(48,269,cs),
(48,110,o),
(156,16,o),
(287,-3,c),
(232,-35,o),
(211,-71,o),
(211,-109,cs),
(211,-176,o),
(267,-201,o),
(324,-201,cs)
);
},
{
closed = 1;
nodes = (
(189,277,o),
(144,280,o),
(116,285,c),
(121,387,o),
(216,492,o),
(341,492,cs),
(423,492,o),
(492,447,o),
(492,384,cs),
(492,298,o),
(357,277,o),
(240,277,cs)
);
}
);
width = 636;
}
);
unicode = 281;
userData = {
com.schriftgestaltung.Glyphs.ColorIndex = 8;
};
},
{
color = 4;
glyphname = f;
lastChange = "2024-08-04 19:11:49 +0000";
layers = (
{
anchors = (
{
name = bottom;
pos = (166,0);
},
{
name = top;
pos = (166,740);
}
);
layerId = "4D0F633C-81E1-4D6C-A640-637CE706A5C5";
shapes = (
{
closed = 1;
nodes = (
(204,0,l),
(204,458,l),
(306,458,l),
(306,551,l),
(204,551,l),
(204,590,ls),
(204,654,o),
(229,677,o),
(298,677,c),
(298,772,l),
(154,772,o),
(89,717,o),
(89,590,cs),
(89,551,l),
(24,551,l),
(24,458,l),
(89,458,l),
(89,0,l)
);
}
);
width = 332;
},
{
anchors = (
{
name = bottom;
pos = (187,0);
},
{
name = top;
pos = (187,740);
}
);
layerId = "86171893-955A-4CD1-BD1B-2F7A53CC85DC";
shapes = (
{
closed = 1;
nodes = (
(271,0,l),
(271,398,l),
(359,398,l),
(359,561,l),
(271,561,l),
(271,570,ls),
(271,628,o),
(335,624,o),
(357,622,c),
(357,788,l),
(230,799,o),
(74,754,o),
(74,566,cs),
(74,561,l),
(13,561,l),
(13,398,l),
(74,398,l),
(74,0,l)
);
}
);
width = 373;
},
{
anchors = (
{
name = bottom;
pos = (162,0);
},
{
name = top;
pos = (162,740);
}
);
layerId = "6D7935D2-FE9A-430A-A298-15DA7AF44FAE";
shapes = (
{
closed = 1;
nodes = (
(168,0,l),
(168,487,l),
(295,487,l),
(295,546,l),
(168,546,l),
(168,584,ls),
(168,665,o),
(200,697,o),
(291,697,c),
(291,757,l),
(155,757,o),
(98,703,o),
(98,584,cs),
(98,546,l),
(22,546,l),
(22,487,l),
(98,487,l),
(98,0,l)
);
}
);
width = 325;
}
);
unicode = 102;
userData = {
com.schriftgestaltung.Glyphs.ColorIndex = 4;
com.typemytype.robofont.layerData = {
b = {
anchors = (
);
components = (
);
contours = (
{
points = (
{
segmentType = line;
smooth = 0;
x = 108;
y = 0;
},
{
segmentType = line;
smooth = 0;
x = 128;
y = 0;
},
{
segmentType = line;
smooth = 1;
x = 128;
y = 609;
},
{
smooth = 0;
x = 128;
y = 701;
},
{
smooth = 0;
x = 162;
y = 742;
},
{
segmentType = curve;
smooth = 0;
x = 275;
y = 742;
},
{
segmentType = line;
smooth = 0;
x = 275;
y = 753;
},
{
smooth = 0;
x = 158;
y = 753;
},
{
smooth = 0;
x = 108;
y = 711;
},
{
segmentType = curve;
smooth = 1;
x = 108;
y = 609;
}
);
}
);
lib = {
};
name = f;
unicodes = (
);
width = 318;
};
};
com.typesupply.AccentFactory.yCoordinates = {
bottom = {
name = origin;
type = glyphMetric;
};
top = {
name = ascender;
type = fontInfo;
};
};
};
},
{
color = 4;
glyphname = g;
lastChange = "2024-08-04 21:07:47 +0000";
layers = (
{
anchors = (
{
name = bottom;
pos = (339,-262);
},
{
name = top;
pos = (339,551);
}
);
background = {
shapes = (
{
closed = 1;
nodes = (
(152,560,o),
(37,448,o),
(37,278,cs),
(37,108,o),
(152,-9,o),
(297,-9,cs),
(387,-9,o),
(453,39,o),
(488,103,c),
(488,-9,ls),
(488,-119,o),
(422,-173,o),
(334,-173,cs),
(255,-173,o),
(194,-134,o),
(177,-77,c),
(64,-77,l),
(78,-199,o),
(187,-272,o),
(334,-272,cs),
(506,-272,o),
(603,-159,o),
(603,-9,cs),
(603,551,l),
(488,551,l),
(488,453,l),
(454,514,o),
(387,560,o),
(297,560,cs)
);
},
{
closed = 1;
nodes = (
(488,276,cs),
(488,157,o),
(407,90,o),
(321,90,cs),
(236,90,o),
(154,159,o),
(154,278,cs),
(154,397,o),
(236,461,o),
(321,461,cs),
(407,461,o),
(488,394,o)
);
}
);
};
layerId = "4D0F633C-81E1-4D6C-A640-637CE706A5C5";
shapes = (
{
closed = 1;
nodes = (
(502,-269,o),
(603,-160,o),
(603,-6,cs),
(603,551,l),
(488,551,l),
(488,432,l),
(457,510,o),
(385,558,o),
(295,558,cs),
(151,558,o),
(37,446,o),
(37,276,cs),
(37,106,o),
(151,-7,o),
(295,-7,cs),
(385,-7,o),
(457,41,o),
(488,120,c),
(488,-8,ls),
(488,-114,o),
(424,-169,o),
(330,-169,cs),
(252,-169,o),
(182,-122,o),
(151,-44,c),
(47,-86,l),
(88,-205,o),
(196,-269,o),
(330,-269,cs)
);
},
{
closed = 1;
nodes = (
(236,92,o),
(154,157,o),
(154,276,cs),
(154,395,o),
(236,459,o),
(321,459,cs),
(406,459,o),
(488,395,o),
(488,276,cs),
(488,157,o),
(406,92,o),
(321,92,cs)
);
}
);
width = 678;
},
{
anchors = (
{
name = bottom;
pos = (341,-268);
},
{
name = top;
pos = (341,561);
}
);
layerId = "86171893-955A-4CD1-BD1B-2F7A53CC85DC";
shapes = (
{
closed = 1;
nodes = (
(541,-274,o),
(623,-127,o),
(623,23,cs),
(623,561,l),
(428,561,l),
(428,435,l),
(404,519,o),
(341,568,o),
(259,568,cs),
(111,568,o),
(24,436,o),
(24,280,cs),
(24,124,o),
(111,-7,o),
(259,-7,cs),
(341,-7,o),
(404,41,o),
(428,125,c),
(428,23,ls),
(428,-57,o),
(392,-114,o),
(312,-114,cs),
(255,-114,o),
(216,-83,o),
(198,-39,c),
(30,-95,l),
(57,-216,o),
(186,-274,o),
(321,-274,cs)
);
},
{
closed = 1;
nodes = (
(268,164,o),
(224,208,o),
(224,280,cs),
(224,352,o),
(268,397,o),
(326,397,cs),
(384,397,o),
(428,352,o),
(428,280,cs),
(428,208,o),
(384,164,o),
(326,164,cs)
);
}
);
width = 679;
},
{
anchors = (
{
name = bottom;
pos = (338,-258);
},
{
name = top;
pos = (338,546);
}
);
layerId = "6D7935D2-FE9A-430A-A298-15DA7AF44FAE";
shapes = (
{
closed = 1;
nodes = (
(490,-265,o),
(595,-156,o),
(595,-11,cs),
(595,546,l),
(525,546,l),
(525,424,l),
(491,503,o),
(407,553,o),
(305,553,cs),
(155,553,o),
(48,440,o),
(48,274,cs),
(48,108,o),
(155,-7,o),
(305,-7,cs),
(403,-7,o),
(491,45,o),
(525,124,c),
(525,-11,ls),
(525,-128,o),
(446,-204,o),
(335,-204,cs),
(238,-204,o),
(168,-145,o),
(125,-57,c),
(63,-88,l),
(106,-185,o),
(195,-265,o),
(335,-265,cs)
);
},
{
closed = 1;
nodes = (
(208,54,o),
(119,140,o),
(119,274,cs),
(119,408,o),
(208,492,o),
(322,492,cs),
(436,492,o),
(525,408,o),
(525,274,cs),
(525,140,o),
(436,54,o),
(322,54,cs)
);
}
);
width = 675;
}
);
unicode = 103;
userData = {
com.schriftgestaltung.Glyphs.ColorIndex = 4;
com.typesupply.AccentFactory.yCoordinates = {
top = {
name = xHeight;
type = fontInfo;
};
};
};
},
{
color = 4;
glyphname = gcommaaccent;
lastChange = "2024-08-04 21:07:56 +0000";
layers = (
{
layerId = "4D0F633C-81E1-4D6C-A640-637CE706A5C5";
shapes = (
{
closed = 1;
nodes = (
(324,829,o),
(248,775,o),
(248,684,cs),
(248,640,o),
(280,596,o),
(327,596,cs),
(367,596,o),
(399,623,o),
(399,664,cs),
(399,706,o),
(369,723,o),
(337,723,c),
(324,723,o),
(310,719,o),
(303,712,c),
(305,735,o),
(348,775,o),
(402,770,c),
(402,822,l)
);
},
{
ref = g;
}
);
width = 678;
},
{
layerId = "86171893-955A-4CD1-BD1B-2F7A53CC85DC";
shapes = (
{
closed = 1;
nodes = (
(340,887,o),
(241,834,o),
(241,713,cs),
(241,655,o),
(283,599,o),
(343,599,cs),
(396,599,o),
(437,634,o),
(437,687,cs),
(437,741,o),
(400,763,o),
(356,763,c),
(347,763,o),
(339,762,o),
(331,759,c),
(347,788,o),
(390,804,o),
(441,802,c),
(441,879,l)
);
},
{
alignment = -1;
ref = g;
}
);
width = 679;
},
{
layerId = "6D7935D2-FE9A-430A-A298-15DA7AF44FAE";
shapes = (
{
closed = 1;
nodes = (
(329,774,o),
(276,730,o),
(276,662,cs),
(276,630,o),
(299,595,o),
(332,595,cs),
(362,595,o),
(385,616,o),
(385,644,cs),
(385,674,o),
(365,687,o),
(339,687,c),
(331,687,o),
(322,685,o),
(315,680,c),
(319,709,o),
(350,732,o),
(386,730,c),
(386,770,l)
);
},
{
alignment = -1;
ref = g;
}
);
width = 675;
}
);
unicode = 291;
userData = {
com.schriftgestaltung.Glyphs.ColorIndex = 8;
com.typesupply.AccentFactory.compileType = manual;
};
},
{
color = 4;
glyphname = h;
lastChange = "2024-08-04 18:04:22 +0000";
layers = (
{
background = {
shapes = (
{
closed = 1;
nodes = (
(75,0,l),
(189,0,l),
(189,740,l),
(75,740,l)
);
},
{
closed = 1;
nodes = (
(466,0,l),
(579,0,l),
(579,325,ls),
(579,479,o),
(483,560,o),
(360,560,cs),
(266,560,o),
(187,510,o),
(165,426,c),
(189,308,l),
(189,409,o),
(244,461,o),
(328,461,cs),
(411,461,o),
(466,409,o),
(466,308,cs)
);
}
);
};
layerId = "4D0F633C-81E1-4D6C-A640-637CE706A5C5";
shapes = (
{
closed = 1;
nodes = (
(189,0,l),
(189,288,ls),
(189,388,o),
(248,459,o),
(328,459,cs),
(410,459,o),
(466,398,o),
(466,298,cs),
(466,0,l),
(579,0,l),
(579,325,ls),
(579,473,o),
(494,558,o),
(368,558,cs),
(293,558,o),
(214,505,o),
(189,436,c),
(189,740,l),
(75,740,l),
(75,0,l)
);
}
);
width = 649;
},
{
layerId = "86171893-955A-4CD1-BD1B-2F7A53CC85DC";
shapes = (
{
closed = 1;
nodes = (
(252,0,l),
(252,291,ls),
(252,355,o),
(286,404,o),
(346,404,c),
(402,404,o),
(438,365,o),
(438,301,cs),
(438,0,l),
(634,0,l),
(634,329,ls),
(634,475,o),
(553,568,o),
(425,568,cs),
(347,568,o),
(276,521,o),
(252,440,c),
(252,740,l),
(56,740,l),
(56,0,l)
);
}
);
width = 686;
},
{
layerId = "6D7935D2-FE9A-430A-A298-15DA7AF44FAE";
shapes = (
{
closed = 1;
nodes = (
(150,0,l),
(150,281,ls),
(150,407,o),
(227,492,o),
(323,492,cs),
(421,492,o),
(489,422,o),
(489,301,cs),
(489,0,l),
(558,0,l),
(558,321,ls),
(558,455,o),
(478,553,o),
(344,553,cs),
(244,553,o),
(174,492,o),
(150,427,c),
(150,740,l),
(80,740,l),
(80,0,l)
);
}
);
width = 633;
}
);
unicode = 104;
userData = {
com.schriftgestaltung.Glyphs.ColorIndex = 4;
com.typesupply.AccentFactory.yCoordinates = {
bottom = {
name = origin;
type = glyphMetric;
};
top = {
name = ascender;
type = fontInfo;
};
};
};
},
{
color = 4;
glyphname = i;
lastChange = "2024-07-31 14:32:22 +0000";
layers = (
{
anchors = (
{
name = ogonek;
pos = (192,1);
}
);
layerId = "4D0F633C-81E1-4D6C-A640-637CE706A5C5";
shapes = (
{
closed = 1;
nodes = (
(192,0,l),
(192,551,l),
(78,551,l),
(78,0,l)
);
},
{
closed = 1;
nodes = (
(183,624,o),
(222,659,o),
(222,704,cs),
(222,749,o),
(183,785,o),
(136,785,cs),
(88,785,o),
(50,749,o),
(50,704,cs),
(50,659,o),
(88,624,o),
(136,624,cs)
);
}
);
width = 272;
},
{
anchors = (
{
name = ogonek;
pos = (245,-1);
}
);
layerId = "86171893-955A-4CD1-BD1B-2F7A53CC85DC";
shapes = (
{
closed = 1;
nodes = (
(245,0,l),
(245,561,l),
(49,561,l),
(49,0,l)
);
},
{
closed = 1;
nodes = (
(221,614,o),
(270,659,o),
(270,721,cs),
(270,784,o),
(221,830,o),
(148,830,cs),
(74,830,o),
(25,784,o),
(25,721,cs),
(25,659,o),
(74,614,o),
(148,614,cs)
);
}
);
width = 295;
},
{
anchors = (
{
name = ogonek;
pos = (155,1);
}
);
layerId = "6D7935D2-FE9A-430A-A298-15DA7AF44FAE";
shapes = (
{
closed = 1;
nodes = (
(155,0,l),
(155,546,l),
(85,546,l),
(85,0,l)
);
},
{
closed = 1;
nodes = (
(151,649,o),
(176,672,o),
(176,703,cs),
(176,733,o),
(151,755,o),
(120,755,cs),
(86,755,o),
(64,733,o),
(64,703,cs),
(64,672,o),
(90,649,o),
(120,649,cs)
);
}
);
width = 239;
}
);
unicode = 105;
userData = {
com.schriftgestaltung.Glyphs.ColorIndex = 4;
com.typemytype.robofont.guides = (
{
angle = 0;
isGlobal = 0;
magnetic = 5;
x = 82;
y = 540;
}
);
com.typesupply.AccentFactory.yCoordinates = {
bottom = {
name = origin;
type = glyphMetric;
};
};
};
},
{
color = 4;
glyphname = dotlessi;
lastChange = "2024-06-18 10:28:43 +0000";
layers = (
{
anchors = (
{
name = ogonek;
pos = (238,10);
},
{
name = top;
pos = (132,551);
}
);
layerId = "4D0F633C-81E1-4D6C-A640-637CE706A5C5";
shapes = (
{
closed = 1;
nodes = (
(75,0,l),
(189,0,l),
(189,551,l),
(75,551,l)
);
}
);
width = 264;
},
{
anchors = (
{
name = ogonek;
pos = (312,10);
},
{
name = top;
pos = (174,561);
}
);
layerId = "86171893-955A-4CD1-BD1B-2F7A53CC85DC";
shapes = (
{
closed = 1;
nodes = (
(75,0,l),
(272,0,l),
(272,561,l),
(75,561,l)
);
}
);
width = 347;
},
{
anchors = (
{
name = ogonek;
pos = (203,10);
},
{
name = top;
pos = (115,546);
}
);
layerId = "6D7935D2-FE9A-430A-A298-15DA7AF44FAE";
shapes = (
{
closed = 1;
nodes = (
(80,0,l),
(150,0,l),
(150,546,l),
(80,546,l)
);
}
);
width = 229;
}
);
unicode = 305;
userData = {
com.schriftgestaltung.Glyphs.ColorIndex = 4;
com.typesupply.AccentFactory.yCoordinates = {
bottom = {
name = origin;
type = glyphMetric;
};
top = {
name = xHeight;
type = fontInfo;
};
};
};
},
{
color = 4;
glyphname = j;
lastChange = "2024-08-04 21:10:23 +0000";
layers = (
{
layerId = "4D0F633C-81E1-4D6C-A640-637CE706A5C5";
shapes = (
{
closed = 1;
nodes = (
(121,-269,o),
(199,-208,o),
(199,-93,cs),
(199,551,l),
(85,551,l),
(85,-76,ls),
(85,-126,o),
(57,-155,o),
(20,-155,cs),
(9,-155,o),
(-4,-152,o),
(-17,-146,c),
(-62,-233,l),
(-32,-257,o),
(4,-269,o),
(40,-269,cs)
);
},
{
closed = 1;
nodes = (
(190,624,o),
(229,659,o),
(229,704,cs),
(229,749,o),
(190,785,o),
(143,785,cs),
(95,785,o),
(57,749,o),
(57,704,cs),
(57,659,o),
(95,624,o),
(143,624,cs)
);
}
);
width = 288;
},
{
layerId = "86171893-955A-4CD1-BD1B-2F7A53CC85DC";
shapes = (
{
closed = 1;
nodes = (
(155,-274,o),
(262,-193,o),
(262,-48,cs),
(262,561,l),
(66,561,l),
(66,-26,ls),
(66,-72,o),
(40,-94,o),
(7,-94,cs),
(-8,-94,o),
(-25,-89,o),
(-41,-79,c),
(-124,-211,l),
(-76,-254,o),
(-17,-274,o),
(40,-274,cs)
);
},
{
closed = 1;
nodes = (
(238,614,o),
(287,659,o),
(287,721,cs),
(287,784,o),
(238,830,o),
(165,830,cs),
(91,830,o),
(42,784,o),
(42,721,cs),
(42,659,o),
(91,614,o),
(165,614,cs)
);
}
);
width = 326;
},
{
layerId = "6D7935D2-FE9A-430A-A298-15DA7AF44FAE";
shapes = (
{
closed = 1;
nodes = (
(102,-265,o),
(156,-218,o),
(156,-129,cs),
(156,546,l),
(86,546,l),
(86,-113,ls),
(86,-167,o),
(64,-199,o),
(25,-199,cs),
(12,-199,o),
(-2,-196,o),
(-18,-189,c),
(-40,-242,l),
(-14,-258,o),
(13,-265,o),
(38,-265,cs)
);
},
{
closed = 1;
nodes = (
(148,649,o),
(173,672,o),
(173,703,cs),
(173,733,o),
(148,755,o),
(117,755,cs),
(83,755,o),
(61,733,o),
(61,703,cs),
(61,672,o),
(87,649,o),
(117,649,cs)
);
}
);
width = 237;
}
);
unicode = 106;
userData = {
com.schriftgestaltung.Glyphs.ColorIndex = 4;
com.typesupply.AccentFactory.yCoordinates = {
bottom = {
name = origin;
type = glyphMetric;
};
};
};
},
{
color = 4;
glyphname = k;
lastChange = "2024-08-04 21:10:52 +0000";
layers = (
{
anchors = (
{
name = bottom;
pos = (277,0);
}
);
layerId = "4D0F633C-81E1-4D6C-A640-637CE706A5C5";
shapes = (
{
closed = 1;
nodes = (
(189,0,l),
(189,227,l),
(296,215,o),
(411,127,o),
(439,0,c),
(559,0,l),
(539,130,o),
(419,247,o),
(318,277,c),
(419,317,o),
(516,419,o),
(547,551,c),
(427,551,l),
(396,415,o),
(295,338,o),
(189,320,c),
(189,740,l),
(75,740,l),
(75,0,l)
);
}
);
width = 566;
},
{
anchors = (
{
name = bottom;
pos = (330,0);
}
);
layerId = "86171893-955A-4CD1-BD1B-2F7A53CC85DC";
shapes = (
{
closed = 1;
nodes = (
(252,0,l),
(252,200,l),
(340,187,o),
(411,109,o),
(435,0,c),
(646,0,l),
(619,127,o),
(516,252,o),
(404,279,c),
(510,322,o),
(609,441,o),
(642,561,c),
(433,561,l),
(415,466,o),
(338,372,o),
(252,350,c),
(252,740,l),
(56,740,l),
(56,0,l)
);
}
);
width = 650;
},
{
anchors = (
{
name = bottom;
pos = (243,0);
}
);
layerId = "6D7935D2-FE9A-430A-A298-15DA7AF44FAE";
shapes = (
{
closed = 1;
nodes = (
(150,0,l),
(150,239,l),
(285,229,o),
(418,110,o),
(442,0,c),
(520,0,l),
(493,140,o),
(341,258,o),
(250,277,c),
(346,306,o),
(465,403,o),
(494,546,c),
(416,546,l),
(390,423,o),
(289,334,o),
(150,307,c),
(150,740,l),
(80,740,l),
(80,0,l)
);
}
);
width = 530;
}
);
unicode = 107;
userData = {
com.schriftgestaltung.Glyphs.ColorIndex = 4;
com.typemytype.robofont.guides = (
{
angle = 0;
isGlobal = 0;
magnetic = 5;
x = 86;
y = 740;
}
);
com.typesupply.AccentFactory.yCoordinates = {
bottom = {
name = origin;
type = glyphMetric;
};
top = {
name = ascender;
type = fontInfo;
};
};
};
},
{
color = 4;
glyphname = kcommaaccent;
lastChange = "2024-08-04 21:11:08 +0000";
layers = (
{
layerId = "4D0F633C-81E1-4D6C-A640-637CE706A5C5";
shapes = (
{
closed = 1;
nodes = (
(293,-278,o),
(369,-224,o),
(369,-133,cs),
(369,-89,o),
(337,-45,o),
(290,-45,cs),
(250,-45,o),
(218,-72,o),
(218,-113,cs),
(218,-155,o),
(248,-172,o),
(280,-172,c),
(293,-172,o),
(307,-168,o),
(314,-161,c),
(312,-184,o),
(269,-224,o),
(215,-219,c),
(215,-271,l)
);
},
{
ref = k;
}
);
width = 566;
},
{
layerId = "86171893-955A-4CD1-BD1B-2F7A53CC85DC";
shapes = (
{
closed = 1;
nodes = (
(327,-326,o),
(426,-273,o),
(426,-152,cs),
(426,-94,o),
(384,-38,o),
(324,-38,cs),
(271,-38,o),
(230,-73,o),
(230,-126,cs),
(230,-180,o),
(267,-202,o),
(311,-202,c),
(320,-202,o),
(328,-201,o),
(336,-198,c),
(320,-227,o),
(277,-243,o),
(226,-241,c),
(226,-318,l)
);
},
{
alignment = -1;
ref = k;
}
);
width = 650;
},
{
layerId = "6D7935D2-FE9A-430A-A298-15DA7AF44FAE";
shapes = (
{
closed = 1;
nodes = (
(265,-230,o),
(318,-186,o),
(318,-118,cs),
(318,-86,o),
(295,-51,o),
(262,-51,cs),
(232,-51,o),
(209,-72,o),
(209,-100,cs),
(209,-130,o),
(229,-143,o),
(255,-143,c),
(263,-143,o),
(272,-141,o),
(279,-136,c),
(275,-165,o),
(244,-188,o),
(208,-186,c),
(208,-226,l)
);
},
{
alignment = -1;
ref = k;
}
);
width = 530;
}
);
unicode = 311;
userData = {
com.schriftgestaltung.Glyphs.ColorIndex = 8;
com.typesupply.AccentFactory.compileType = manual;
};
},
{
color = 4;
glyphname = l;
lastChange = "2024-08-04 20:16:56 +0000";
layers = (
{
anchors = (
{
name = bottom;
pos = (132,0);
},
{
name = commaaccent;
pos = (132,10);
},
{
name = top;
pos = (132,740);
},
{
name = topright;
pos = (244,551);
}
);
layerId = "4D0F633C-81E1-4D6C-A640-637CE706A5C5";
shapes = (
{
closed = 1;
nodes = (
(75,31,o),
(145,-7,o),
(209,-7,cs),
(235,-7,o),
(259,-1,o),
(278,10,c),
(254,94,l),
(247,91,o),
(240,90,o),
(233,90,cs),
(209,90,o),
(189,107,o),
(189,136,cs),
(189,740,l),
(75,740,l),
(75,126,l)
);
}
);
width = 298;
},
{
anchors = (
{
name = bottom;
pos = (154,0);
},
{
name = commaaccent;
pos = (154,10);
},
{
name = top;
pos = (154,740);
},
{
name = topright;
pos = (306,561);
}
);
layerId = "86171893-955A-4CD1-BD1B-2F7A53CC85DC";
shapes = (
{
closed = 1;
nodes = (
(56,43,o),
(155,-7,o),
(249,-7,cs),
(285,-7,o),
(321,0,o),
(350,12,c),
(321,165,l),
(313,162,o),
(305,161,o),
(297,161,cs),
(273,161,o),
(252,174,o),
(252,203,cs),
(252,740,l),
(56,740,l),
(56,196,l)
);
}
);
width = 362;
},
{
anchors = (
{
name = bottom;
pos = (115,0);
},
{
name = commaaccent;
pos = (115,10);
},
{
name = top;
pos = (115,740);
},
{
name = topright;
pos = (205,546);
}
);
layerId = "6D7935D2-FE9A-430A-A298-15DA7AF44FAE";
shapes = (
{
closed = 1;
nodes = (
(80,21,o),
(133,-7,o),
(181,-7,cs),
(200,-7,o),
(219,-2,o),
(232,6,c),
(216,59,l),
(208,56,o),
(201,55,o),
(194,55,cs),
(170,55,o),
(150,70,o),
(150,102,cs),
(150,740,l),
(80,740,l),
(80,96,l)
);
}
);
width = 264;
}
);
unicode = 108;
userData = {
com.schriftgestaltung.Glyphs.ColorIndex = 4;
com.typesupply.AccentFactory.yCoordinates = {
bottom = {
name = origin;
type = glyphMetric;
};
top = {
name = ascender;
type = fontInfo;
};
};
};
},
{
color = 4;
glyphname = lcaron;
lastChange = "2024-07-30 13:50:13 +0000";
layers = (
{
layerId = "4D0F633C-81E1-4D6C-A640-637CE706A5C5";
shapes = (
{
closed = 1;
nodes = (
(314,514,o),
(390,568,o),
(390,659,cs),
(390,703,o),
(358,747,o),
(311,747,cs),
(271,747,o),
(239,720,o),
(239,679,cs),
(239,637,o),
(269,620,o),
(301,620,c),
(314,620,o),
(328,624,o),
(335,631,c),
(333,608,o),
(290,568,o),
(236,573,c),
(236,521,l)
);
},
{
ref = l;
}
);
width = 433;
},
{
layerId = "86171893-955A-4CD1-BD1B-2F7A53CC85DC";
shapes = (
{
closed = 1;
nodes = (
(405,460,o),
(504,513,o),
(504,634,cs),
(504,692,o),
(462,748,o),
(402,748,cs),
(349,748,o),
(308,713,o),
(308,660,cs),
(308,606,o),
(345,584,o),
(389,584,c),
(398,584,o),
(406,585,o),
(414,588,c),
(398,559,o),
(355,543,o),
(304,545,c),
(304,468,l)
);
},
{
alignment = -1;
ref = l;
}
);
width = 522;
},
{
layerId = "6D7935D2-FE9A-430A-A298-15DA7AF44FAE";
shapes = (
{
closed = 1;
nodes = (
(253,565,o),
(306,609,o),
(306,677,cs),
(306,709,o),
(283,744,o),
(250,744,cs),
(220,744,o),
(197,723,o),
(197,695,cs),
(197,665,o),
(217,652,o),
(243,652,c),
(251,652,o),
(260,654,o),
(267,659,c),
(263,630,o),
(232,607,o),
(196,609,c),
(196,569,l)
);
},
{
alignment = -1;
ref = l;
}
);
width = 314;
}
);
unicode = 318;
userData = {
com.schriftgestaltung.Glyphs.ColorIndex = 8;
com.typesupply.AccentFactory.compileType = manual;
};
},
{
color = 4;
glyphname = lcommaaccent;
lastChange = "2024-08-04 19:17:52 +0000";
layers = (
{
layerId = "4D0F633C-81E1-4D6C-A640-637CE706A5C5";
shapes = (
{
closed = 1;
nodes = (
(163,-278,o),
(239,-224,o),
(239,-133,cs),
(239,-89,o),
(207,-45,o),
(160,-45,cs),
(120,-45,o),
(88,-72,o),
(88,-113,cs),
(88,-155,o),
(118,-172,o),
(150,-172,c),
(163,-172,o),
(177,-168,o),
(184,-161,c),
(182,-184,o),
(139,-224,o),
(85,-219,c),
(85,-271,l)
);
},
{
ref = l;
}
);
width = 347;
},
{
layerId = "86171893-955A-4CD1-BD1B-2F7A53CC85DC";
shapes = (
{
closed = 1;
nodes = (
(193,-326,o),
(292,-273,o),
(292,-152,cs),
(292,-94,o),
(250,-38,o),
(190,-38,cs),
(137,-38,o),
(96,-73,o),
(96,-126,cs),
(96,-180,o),
(133,-202,o),
(177,-202,c),
(186,-202,o),
(194,-201,o),
(202,-198,c),
(186,-227,o),
(143,-243,o),
(92,-241,c),
(92,-318,l)
);
},
{
alignment = -1;
ref = l;
}
);
width = 406;
},
{
layerId = "6D7935D2-FE9A-430A-A298-15DA7AF44FAE";
shapes = (
{
closed = 1;
nodes = (
(133,-230,o),
(186,-186,o),
(186,-118,cs),
(186,-86,o),
(163,-51,o),
(130,-51,cs),
(100,-51,o),
(77,-72,o),
(77,-100,cs),
(77,-130,o),
(97,-143,o),
(123,-143,c),
(131,-143,o),
(140,-141,o),
(147,-136,c),
(143,-165,o),
(112,-188,o),
(76,-186,c),
(76,-226,l)
);
},
{
alignment = -1;
pos = (-11,0);
ref = l;
}
);
width = 290;
}
);
unicode = 316;
userData = {
com.schriftgestaltung.Glyphs.ColorIndex = 8;
com.typesupply.AccentFactory.compileType = manual;
};
},
{
color = 4;
glyphname = ldot;
lastChange = "2024-08-04 18:08:03 +0000";
layers = (
{
layerId = "4D0F633C-81E1-4D6C-A640-637CE706A5C5";
shapes = (
{
closed = 1;
nodes = (
(234,-7,o),
(259,0,o),
(277,10,c),
(254,101,l),
(238,93,o),
(230,91,o),
(221,91,cs),
(202,91,o),
(189,102,o),
(189,117,cs),
(189,740,l),
(75,740,l),
(75,118,l),
(75,35,o),
(129,-7,o),
(196,-7,c)
);
},
{
closed = 1;
nodes = (
(321,305,o),
(348,331,o),
(348,365,cs),
(348,398,o),
(321,425,o),
(288,425,cs),
(254,425,o),
(228,398,o),
(228,365,cs),
(228,331,o),
(254,305,o),
(288,305,cs)
);
}
);
width = 314;
},
{
layerId = "86171893-955A-4CD1-BD1B-2F7A53CC85DC";
shapes = (
{
closed = 1;
nodes = (
(285,-7,o),
(321,0,o),
(350,12,c),
(321,165,l),
(313,162,o),
(305,161,o),
(297,161,cs),
(273,161,o),
(252,174,o),
(252,203,cs),
(252,740,l),
(56,740,l),
(56,196,ls),
(56,43,o),
(155,-7,o),
(249,-7,cs)
);
},
{
closed = 1;
nodes = (
(403,284,o),
(438,318,o),
(438,363,cs),
(438,409,o),
(403,443,o),
(357,443,cs),
(313,443,o),
(278,409,o),
(278,363,cs),
(278,318,o),
(313,284,o),
(357,284,cs)
);
}
);
width = 409;
},
{
layerId = "6D7935D2-FE9A-430A-A298-15DA7AF44FAE";
shapes = (
{
closed = 1;
nodes = (
(200,-7,o),
(219,-2,o),
(232,6,c),
(216,59,l),
(208,56,o),
(201,55,o),
(194,55,cs),
(170,55,o),
(150,70,o),
(150,102,cs),
(150,740,l),
(80,740,l),
(80,96,l),
(80,21,o),
(133,-7,o),
(181,-7,cs)
);
},
{
closed = 1;
nodes = (
(280,322,o),
(301,343,o),
(301,368,cs),
(301,393,o),
(280,414,o),
(255,414,cs),
(229,414,o),
(209,393,o),
(209,368,cs),
(209,343,o),
(229,322,o),
(255,322,cs)
);
}
);
width = 278;
}
);
unicode = 320;
userData = {
com.typesupply.AccentFactory.compileType = manual;
};
},
{
color = 4;
glyphname = lslash;
lastChange = "2024-08-04 18:08:26 +0000";
layers = (
{
layerId = "4D0F633C-81E1-4D6C-A640-637CE706A5C5";
shapes = (
{
closed = 1;
nodes = (
(234,-7,o),
(259,0,o),
(277,10,c),
(254,101,l),
(238,93,o),
(230,91,o),
(221,91,cs),
(202,91,o),
(189,102,o),
(189,117,cs),
(189,740,l),
(75,740,l),
(75,118,l),
(75,35,o),
(129,-7,o),
(196,-7,c)
);
},
{
closed = 1;
nodes = (
(256,358,l),
(256,445,l),
(9,361,l),
(9,273,l)
);
}
);
width = 285;
},
{
layerId = "86171893-955A-4CD1-BD1B-2F7A53CC85DC";
shapes = (
{
closed = 1;
nodes = (
(304,-7,o),
(340,0,o),
(369,12,c),
(340,165,l),
(332,162,o),
(324,161,o),
(316,161,cs),
(292,161,o),
(271,174,o),
(271,203,cs),
(271,740,l),
(75,740,l),
(75,196,ls),
(75,43,o),
(174,-7,o),
(268,-7,cs)
);
},
{
closed = 1;
nodes = (
(337,343,l),
(337,513,l),
(10,419,l),
(10,249,l)
);
}
);
width = 380;
},
{
layerId = "6D7935D2-FE9A-430A-A298-15DA7AF44FAE";
shapes = (
{
closed = 1;
nodes = (
(203,-7,o),
(222,-2,o),
(235,6,c),
(219,59,l),
(211,56,o),
(204,55,o),
(197,55,cs),
(173,55,o),
(153,70,o),
(153,102,cs),
(153,740,l),
(83,740,l),
(83,96,l),
(83,21,o),
(136,-7,o),
(184,-7,cs)
);
},
{
closed = 1;
nodes = (
(230,439,l),
(230,494,l),
(9,398,l),
(9,343,l)
);
}
);
width = 248;
}
);
unicode = 322;
userData = {
com.schriftgestaltung.Glyphs.ColorIndex = 4;
};
},
{
color = 4;
glyphname = m;
lastChange = "2024-08-04 18:08:49 +0000";
layers = (
{
background = {
shapes = (
{
closed = 1;
nodes = (
(75,0,l),
(189,0,l),
(189,551,l),
(75,551,l)
);
},
{
closed = 1;
nodes = (
(466,0,l),
(579,0,l),
(579,325,ls),
(579,479,o),
(483,560,o),
(365,560,cs),
(266,560,o),
(187,504,o),
(165,400,c),
(189,308,l),
(189,409,o),
(244,461,o),
(328,461,cs),
(411,461,o),
(466,409,o),
(466,308,cs)
);
},
{
closed = 1;
nodes = (
(855,0,l),
(969,0,l),
(969,325,ls),
(969,479,o),
(874,560,o),
(752,560,cs),
(643,560,o),
(561,491,o),
(534,389,c),
(579,308,l),
(579,409,o),
(634,461,o),
(717,461,cs),
(801,461,o),
(855,409,o),
(855,308,cs)
);
}
);
};
layerId = "4D0F633C-81E1-4D6C-A640-637CE706A5C5";
shapes = (
{
closed = 1;
nodes = (
(189,0,l),
(189,286,ls),
(189,386,o),
(244,459,o),
(328,459,cs),
(411,459,o),
(466,397,o),
(466,296,cs),
(466,0,l),
(579,0,l),
(579,286,ls),
(579,386,o),
(634,459,o),
(718,459,cs),
(801,459,o),
(856,397,o),
(856,296,cs),
(856,0,l),
(969,0,l),
(969,323,ls),
(969,477,o),
(882,558,o),
(753,558,cs),
(661,558,o),
(584,493,o),
(560,408,c),
(543,499,o),
(467,558,o),
(363,558,cs),
(292,558,o),
(214,505,o),
(189,436,c),
(189,551,l),
(75,551,l),
(75,0,l)
);
}
);
width = 1039;
},
{
associatedMasterId = "4D0F633C-81E1-4D6C-A640-637CE706A5C5";
layerId = "CA51EDF8-FE7C-4192-A711-BF17F129972D";
name = "Sep 19 17, 16:56";
shapes = (
{
closed = 1;
nodes = (
(75,0,l),
(189,0,l),
(189,551,l),
(75,551,l)
);
},
{
closed = 1;
nodes = (
(466,0,l),
(579,0,l),
(579,325,ls),
(579,479,o),
(483,560,o),
(365,560,cs),
(266,560,o),
(187,504,o),
(165,400,c),
(189,308,l),
(189,409,o),
(244,461,o),
(328,461,cs),
(411,461,o),
(466,409,o),
(466,308,cs)
);
},
{
closed = 1;
nodes = (
(855,0,l),
(969,0,l),
(969,325,ls),
(969,479,o),
(874,560,o),
(752,560,cs),
(643,560,o),
(561,491,o),
(534,389,c),
(579,308,l),
(579,409,o),
(634,461,o),
(717,461,cs),
(801,461,o),
(855,409,o),
(855,308,cs)
);
}
);
width = 1039;
},
{
layerId = "86171893-955A-4CD1-BD1B-2F7A53CC85DC";
shapes = (
{
closed = 1;
nodes = (
(252,0,l),
(252,293,ls),
(252,357,o),
(290,406,o),
(346,406,cs),
(402,406,o),
(438,367,o),
(438,303,cs),
(438,0,l),
(634,0,l),
(634,293,ls),
(634,357,o),
(671,406,o),
(727,406,cs),
(783,406,o),
(820,367,o),
(820,303,cs),
(820,0,l),
(1016,0,l),
(1016,329,ls),
(1016,475,o),
(940,568,o),
(799,568,cs),
(707,568,o),
(624,517,o),
(602,394,c),
(588,504,o),
(524,568,o),
(425,568,cs),
(347,568,o),
(276,521,o),
(252,440,c),
(252,561,l),
(56,561,l),
(56,0,l)
);
}
);
width = 1067;
},
{
layerId = "6D7935D2-FE9A-430A-A298-15DA7AF44FAE";
shapes = (
{
closed = 1;
nodes = (
(150,0,l),
(150,281,ls),
(150,407,o),
(223,492,o),
(319,492,cs),
(416,492,o),
(480,422,o),
(480,301,cs),
(480,0,l),
(549,0,l),
(549,281,ls),
(549,414,o),
(619,492,o),
(718,492,cs),
(812,492,o),
(878,427,o),
(878,309,cs),
(878,0,l),
(947,0,l),
(947,324,ls),
(947,465,o),
(865,553,o),
(734,553,cs),
(637,553,o),
(559,492,o),
(536,411,c),
(510,500,o),
(433,553,o),
(335,553,cs),
(239,553,o),
(174,492,o),
(150,427,c),
(150,546,l),
(80,546,l),
(80,0,l)
);
}
);
width = 1022;
}
);
unicode = 109;
userData = {
com.schriftgestaltung.Glyphs.ColorIndex = 4;
com.typemytype.robofont.layerData = {
b = {
anchors = (
);
components = (
);
contours = (
{
points = (
{
segmentType = line;
smooth = 0;
x = 85;
y = 0;
},
{
segmentType = line;
smooth = 0;
x = 105;
y = 0;
},
{
segmentType = line;
smooth = 0;
x = 105;
y = 540;
},
{
segmentType = line;
smooth = 0;
x = 85;
y = 540;
}
);
},
{
points = (
{
segmentType = line;
smooth = 0;
x = 485;
y = 0;
},
{
segmentType = line;
smooth = 0;
x = 504;
y = 0;
},
{
segmentType = line;
smooth = 1;
x = 504;
y = 325;
},
{
smooth = 0;
x = 504;
y = 485;
},
{
smooth = 0;
x = 399;
y = 552;
},
{
segmentType = curve;
smooth = 1;
x = 292;
y = 552;
},
{
smooth = 0;
x = 189;
y = 552;
},
{
smooth = 0;
x = 91;
y = 494;
},
{
segmentType = curve;
smooth = 0;
x = 72;
y = 345;
},
{
segmentType = line;
smooth = 0;
x = 105;
y = 317;
},
{
smooth = 0;
x = 105;
y = 465;
},
{
smooth = 0;
x = 181;
y = 536;
},
{
segmentType = curve;
smooth = 1;
x = 296;
y = 536;
},
{
smooth = 0;
x = 410;
y = 536;
},
{
smooth = 0;
x = 485;
y = 465;
},
{
segmentType = curve;
smooth = 1;
x = 485;
y = 317;
}
);
},
{
points = (
{
segmentType = line;
smooth = 0;
x = 884;
y = 0;
},
{
segmentType = line;
smooth = 0;
x = 903;
y = 0;
},
{
segmentType = line;
smooth = 1;
x = 903;
y = 325;
},
{
smooth = 0;
x = 903;
y = 485;
},
{
smooth = 0;
x = 796;
y = 552;
},
{
segmentType = curve;
smooth = 1;
x = 694;
y = 552;
},
{
smooth = 0;
x = 580;
y = 552;
},
{
smooth = 0;
x = 492;
y = 487;
},
{
segmentType = curve;
smooth = 0;
x = 468;
y = 357;
},
{
segmentType = line;
smooth = 0;
x = 504;
y = 317;
},
{
smooth = 0;
x = 504;
y = 465;
},
{
smooth = 0;
x = 580;
y = 536;
},
{
segmentType = curve;
smooth = 1;
x = 695;
y = 536;
},
{
smooth = 0;
x = 809;
y = 536;
},
{
smooth = 0;
x = 884;
y = 465;
},
{
segmentType = curve;
smooth = 1;
x = 884;
y = 317;
}
);
}
);
lib = {
};
name = m;
unicodes = (
);
width = 1003;
};
};
com.typesupply.AccentFactory.yCoordinates = {
bottom = {
name = origin;
type = glyphMetric;
};
top = {
name = xHeight;
type = fontInfo;
};
};
};
},
{
color = 4;
glyphname = n;
lastChange = "2024-08-04 20:18:09 +0000";
layers = (
{
anchors = (
{
name = bottom;
pos = (325,0);
},
{
name = top;
pos = (325,551);
}
);
background = {
shapes = (
{
closed = 1;
nodes = (
(75,0,l),
(189,0,l),
(189,551,l),
(75,551,l)
);
},
{
closed = 1;
nodes = (
(466,0,l),
(579,0,l),
(579,325,ls),
(579,479,o),
(483,560,o),
(365,560,cs),
(266,560,o),
(187,504,o),
(165,400,c),
(189,308,l),
(189,409,o),
(244,461,o),
(328,461,cs),
(411,461,o),
(466,409,o),
(466,308,cs)
);
}
);
};
layerId = "4D0F633C-81E1-4D6C-A640-637CE706A5C5";
shapes = (
{
closed = 1;
nodes = (
(189,0,l),
(189,288,ls),
(189,388,o),
(248,459,o),
(328,459,cs),
(410,459,o),
(466,398,o),
(466,298,cs),
(466,0,l),
(579,0,l),
(579,325,ls),
(579,473,o),
(494,558,o),
(368,558,cs),
(293,558,o),
(214,505,o),
(189,436,c),
(189,551,l),
(75,551,l),
(75,0,l)
);
}
);
width = 649;
},
{
anchors = (
{
name = bottom;
pos = (325,0);
},
{
name = top;
pos = (335,551);
}
);
associatedMasterId = "4D0F633C-81E1-4D6C-A640-637CE706A5C5";
background = {
shapes = (
{
closed = 1;
nodes = (
(75,0,l),
(189,0,l),
(189,551,l),
(75,551,l)
);
},
{
closed = 1;
nodes = (
(466,0,l),
(579,0,l),
(579,325,ls),
(579,479,o),
(483,560,o),
(365,560,cs),
(266,560,o),
(187,504,o),
(165,400,c),
(189,308,l),
(189,409,o),
(244,461,o),
(328,461,cs),
(411,461,o),
(466,409,o),
(466,308,cs)
);
}
);
};
layerId = "BB94F266-7BE2-424B-94E2-63AFC42CD035";
name = "Sep 19 17, 16:53";
shapes = (
{
closed = 1;
nodes = (
(75,0,l),
(189,0,l),
(189,551,l),
(75,551,l)
);
},
{
closed = 1;
nodes = (
(466,0,l),
(579,0,l),
(579,325,ls),
(579,479,o),
(483,560,o),
(365,560,cs),
(266,560,o),
(187,504,o),
(165,400,c),
(189,308,l),
(189,409,o),
(244,461,o),
(328,461,cs),
(411,461,o),
(466,409,o),
(466,308,cs)
);
}
);
width = 649;
},
{
anchors = (
{
name = bottom;
pos = (343,0);
},
{
name = top;
pos = (343,561);
}
);
layerId = "86171893-955A-4CD1-BD1B-2F7A53CC85DC";
shapes = (
{
closed = 1;
nodes = (
(252,0,l),
(252,293,ls),
(252,357,o),
(286,406,o),
(346,406,cs),
(402,406,o),
(438,367,o),
(438,303,cs),
(438,0,l),
(634,0,l),
(634,329,ls),
(634,475,o),
(553,568,o),
(425,568,cs),
(347,568,o),
(276,521,o),
(252,440,c),
(252,561,l),
(56,561,l),
(56,0,l)
);
}
);
width = 686;
},
{
anchors = (
{
name = bottom;
pos = (317,0);
},
{
name = top;
pos = (317,546);
}
);
layerId = "6D7935D2-FE9A-430A-A298-15DA7AF44FAE";
shapes = (
{
closed = 1;
nodes = (
(150,0,l),
(150,281,ls),
(150,407,o),
(227,492,o),
(323,492,cs),
(421,492,o),
(489,422,o),
(489,301,cs),
(489,0,l),
(558,0,l),
(558,321,ls),
(558,455,o),
(478,553,o),
(344,553,cs),
(244,553,o),
(174,492,o),
(150,427,c),
(150,546,l),
(80,546,l),
(80,0,l)
);
}
);
width = 633;
}
);
unicode = 110;
userData = {
com.schriftgestaltung.Glyphs.ColorIndex = 4;
com.typesupply.AccentFactory.yCoordinates = {
bottom = {
name = origin;
type = glyphMetric;
};
top = {
name = xHeight;
type = fontInfo;
};
};
};
},
{
color = 4;
glyphname = ncommaaccent;
lastChange = "2024-06-18 14:45:25 +0000";
layers = (
{
layerId = "4D0F633C-81E1-4D6C-A640-637CE706A5C5";
shapes = (
{
closed = 1;
nodes = (
(324,-278,o),
(400,-224,o),
(400,-133,cs),
(400,-89,o),
(368,-45,o),
(321,-45,cs),
(281,-45,o),
(249,-72,o),
(249,-113,cs),
(249,-155,o),
(279,-172,o),
(311,-172,c),
(324,-172,o),
(338,-168,o),
(345,-161,c),
(343,-184,o),
(300,-224,o),
(246,-219,c),
(246,-271,l)
);
},
{
ref = n;
}
);
width = 649;
},
{
layerId = "86171893-955A-4CD1-BD1B-2F7A53CC85DC";
shapes = (
{
closed = 1;
nodes = (
(343,-326,o),
(442,-273,o),
(442,-152,cs),
(442,-94,o),
(400,-38,o),
(340,-38,cs),
(287,-38,o),
(246,-73,o),
(246,-126,cs),
(246,-180,o),
(283,-202,o),
(327,-202,c),
(336,-202,o),
(344,-201,o),
(352,-198,c),
(336,-227,o),
(293,-243,o),
(242,-241,c),
(242,-318,l)
);
},
{
alignment = -1;
ref = n;
}
);
width = 686;
},
{
layerId = "6D7935D2-FE9A-430A-A298-15DA7AF44FAE";
shapes = (
{
closed = 1;
nodes = (
(315,-230,o),
(368,-186,o),
(368,-118,cs),
(368,-86,o),
(345,-51,o),
(312,-51,cs),
(282,-51,o),
(259,-72,o),
(259,-100,cs),
(259,-130,o),
(279,-143,o),
(305,-143,c),
(313,-143,o),
(322,-141,o),
(329,-136,c),
(325,-165,o),
(294,-188,o),
(258,-186,c),
(258,-226,l)
);
},
{
alignment = -1;
ref = n;
}
);
width = 633;
}
);
unicode = 326;
userData = {
com.schriftgestaltung.Glyphs.ColorIndex = 8;
com.typesupply.AccentFactory.compileType = manual;
};
},
{
color = 4;
glyphname = o;
lastChange = "2024-08-04 21:12:36 +0000";
layers = (
{
anchors = (
{
name = top;
pos = (319,558);
}
);
layerId = "4D0F633C-81E1-4D6C-A640-637CE706A5C5";
shapes = (
{
closed = 1;
nodes = (
(472,-7,o),
(600,105,o),
(600,276,cs),
(600,447,o),
(476,558,o),
(319,558,cs),
(162,558,o),
(38,447,o),
(38,276,cs),
(38,105,o),
(157,-7,o),
(314,-7,cs)
);
},
{
closed = 1;
nodes = (
(228,92,o),
(154,153,o),
(154,276,cs),
(154,399,o),
(231,459,o),
(317,459,cs),
(402,459,o),
(483,399,o),
(483,276,cs),
(483,153,o),
(399,92,o),
(314,92,cs)
);
}
);
width = 638;
},
{
anchors = (
{
name = top;
pos = (337,563);
}
);
layerId = "86171893-955A-4CD1-BD1B-2F7A53CC85DC";
shapes = (
{
closed = 1;
nodes = (
(484,-7,o),
(612,102,o),
(612,281,cs),
(612,459,o),
(485,568,o),
(318,568,cs),
(151,568,o),
(24,459,o),
(24,281,cs),
(24,102,o),
(150,-7,o),
(317,-7,cs)
);
},
{
closed = 1;
nodes = (
(266,163,o),
(224,200,o),
(224,281,cs),
(224,361,o),
(268,398,o),
(318,398,cs),
(368,398,o),
(413,361,o),
(413,281,cs),
(413,200,o),
(367,163,o),
(317,163,cs)
);
}
);
width = 636;
},
{
anchors = (
{
name = top;
pos = (323,551);
}
);
layerId = "6D7935D2-FE9A-430A-A298-15DA7AF44FAE";
shapes = (
{
closed = 1;
nodes = (
(473,-7,o),
(594,100,o),
(594,273,c),
(594,447,o),
(475,553,o),
(321,553,c),
(168,553,o),
(48,447,o),
(48,273,c),
(48,100,o),
(165,-7,o),
(319,-7,c)
);
},
{
closed = 1;
nodes = (
(215,54,o),
(119,123,o),
(119,273,c),
(119,423,o),
(216,492,o),
(320,492,c),
(424,492,o),
(522,423,o),
(522,273,c),
(522,123,o),
(422,54,o),
(319,54,c)
);
}
);
width = 642;
}
);
unicode = 111;
userData = {
com.schriftgestaltung.Glyphs.ColorIndex = 4;
com.typesupply.AccentFactory.yCoordinates = {
bottom = {
name = origin;
type = glyphMetric;
};
top = {
name = xHeight;
type = fontInfo;
};
};
};
},
{
color = 4;
glyphname = oslash;
lastChange = "2024-06-18 09:52:37 +0000";
layers = (
{
layerId = "4D0F633C-81E1-4D6C-A640-637CE706A5C5";
shapes = (
{
closed = 1;
nodes = (
(28,0,l),
(107,0,l),
(610,551,l),
(531,551,l)
);
},
{
ref = o;
}
);
width = 638;
},
{
layerId = "86171893-955A-4CD1-BD1B-2F7A53CC85DC";
shapes = (
{
closed = 1;
nodes = (
(7,0,l),
(104,0,l),
(618,561,l),
(521,561,l)
);
},
{
alignment = -1;
pos = (-6,0);
ref = o;
}
);
width = 625;
},
{
layerId = "6D7935D2-FE9A-430A-A298-15DA7AF44FAE";
shapes = (
{
closed = 1;
nodes = (
(47,0,l),
(100,0,l),
(596,546,l),
(544,546,l)
);
},
{
alignment = -1;
ref = o;
}
);
width = 642;
}
);
unicode = 248;
userData = {
com.schriftgestaltung.Glyphs.ColorIndex = 4;
};
},
{
color = 4;
glyphname = oe;
lastChange = "2024-08-05 09:37:24 +0000";
layers = (
{
layerId = "4D0F633C-81E1-4D6C-A640-637CE706A5C5";
shapes = (
{
closed = 1;
nodes = (
(472,-7,o),
(600,105,o),
(600,276,cs),
(600,447,o),
(476,558,o),
(319,558,cs),
(162,558,o),
(38,447,o),
(38,276,cs),
(38,105,o),
(157,-7,o),
(314,-7,cs)
);
},
{
closed = 1;
nodes = (
(228,92,o),
(154,153,o),
(154,276,cs),
(154,399,o),
(231,459,o),
(317,459,cs),
(402,459,o),
(483,399,o),
(483,276,cs),
(483,153,o),
(399,92,o),
(314,92,cs)
);
},
{
closed = 1;
nodes = (
(901,-7,o),
(994,32,o),
(1061,121,c),
(976,182,l),
(938,127,o),
(868,89,o),
(800,89,cs),
(715,89,o),
(642,138,o),
(628,205,c),
(630,205,o),
(671,203,o),
(692,202,cs),
(848,195,o),
(1033,234,o),
(1033,376,cs),
(1033,477,o),
(936,558,o),
(798,558,cs),
(642,558,o),
(506,445,o),
(506,272,cs),
(506,113,o),
(621,-7,o),
(800,-7,cs)
);
},
{
closed = 1;
nodes = (
(668,293,o),
(639,294,o),
(621,296,c),
(624,384,o),
(700,462,o),
(804,462,cs),
(873,462,o),
(920,425,o),
(920,380,cs),
(920,308,o),
(800,293,o),
(702,293,cs)
);
}
);
width = 1099;
},
{
layerId = "86171893-955A-4CD1-BD1B-2F7A53CC85DC";
shapes = (
{
closed = 1;
nodes = (
(484,-7,o),
(612,102,o),
(612,281,cs),
(612,459,o),
(485,568,o),
(318,568,cs),
(151,568,o),
(24,459,o),
(24,281,cs),
(24,102,o),
(150,-7,o),
(317,-7,cs)
);
},
{
closed = 1;
nodes = (
(266,163,o),
(224,200,o),
(224,281,cs),
(224,361,o),
(268,398,o),
(318,398,cs),
(368,398,o),
(413,361,o),
(413,281,cs),
(413,200,o),
(367,163,o),
(317,163,cs)
);
},
{
closed = 1;
nodes = (
(843,-7,o),
(949,31,o),
(1008,107,c),
(888,204,l),
(857,170,o),
(804,136,o),
(743,136,cs),
(686,136,o),
(632,165,o),
(623,200,c),
(635,199,o),
(647,199,o),
(660,199,cs),
(805,199,o),
(981,242,o),
(981,380,cs),
(981,498,o),
(849,568,o),
(724,568,cs),
(562,568,o),
(428,447,o),
(428,276,cs),
(428,90,o),
(585,-7,o),
(739,-7,cs)
);
},
{
closed = 1;
nodes = (
(641,320,o),
(622,321,o),
(613,322,c),
(616,363,o),
(654,425,o),
(723,425,cs),
(757,425,o),
(795,408,o),
(795,380,cs),
(795,331,o),
(718,320,o),
(656,320,cs)
);
}
);
width = 1032;
},
{
layerId = "6D7935D2-FE9A-430A-A298-15DA7AF44FAE";
shapes = (
{
closed = 1;
nodes = (
(473,-7,o),
(594,100,o),
(594,273,c),
(594,447,o),
(475,553,o),
(321,553,c),
(168,553,o),
(48,447,o),
(48,273,c),
(48,100,o),
(165,-7,o),
(319,-7,c)
);
},
{
closed = 1;
nodes = (
(215,54,o),
(119,123,o),
(119,273,c),
(119,423,o),
(216,492,o),
(320,492,c),
(424,492,o),
(522,423,o),
(522,273,c),
(522,123,o),
(422,54,o),
(319,54,c)
);
},
{
closed = 1;
nodes = (
(941,-7,o),
(1031,58,o),
(1072,112,c),
(1021,152,l),
(987,113,o),
(913,54,o),
(821,54,cs),
(696,54,o),
(613,133,o),
(604,224,c),
(640,219,o),
(684,215,o),
(731,215,cs),
(879,215,o),
(1044,249,o),
(1044,388,cs),
(1044,480,o),
(952,553,o),
(821,553,cs),
(671,553,o),
(532,429,o),
(532,269,cs),
(532,94,o),
(659,-7,o),
(821,-7,cs)
);
},
{
closed = 1;
nodes = (
(673,276,o),
(628,279,o),
(600,284,c),
(605,387,o),
(700,492,o),
(825,492,cs),
(907,492,o),
(976,446,o),
(976,382,cs),
(976,301,o),
(839,276,o),
(724,276,cs)
);
}
);
width = 1120;
}
);
unicode = 339;
userData = {
com.schriftgestaltung.Glyphs.ColorIndex = 4;
com.typemytype.robofont.layerData = {
b = {
anchors = (
);
components = (
);
contours = (
{
points = (
{
segmentType = curve;
smooth = 1;
x = 569;
y = 270;
},
{
smooth = 0;
x = 569;
y = 98;
},
{
smooth = 0;
x = 444;
y = -1;
},
{
segmentType = curve;
smooth = 1;
x = 312;
y = -1;
},
{
smooth = 0;
x = 179;
y = -1;
},
{
smooth = 0;
x = 84;
y = 98;
},
{
segmentType = curve;
smooth = 1;
x = 84;
y = 270;
},
{
smooth = 0;
x = 84;
y = 444;
},
{
smooth = 0;
x = 191;
y = 541;
},
{
segmentType = curve;
smooth = 1;
x = 322;
y = 541;
},
{
smooth = 0;
x = 455;
y = 541;
},
{
smooth = 0;
x = 569;
y = 444;
}
);
},
{
points = (
{
segmentType = curve;
smooth = 1;
x = 64;
y = 270;
},
{
smooth = 0;
x = 64;
y = 103;
},
{
smooth = 0;
x = 162;
y = -12;
},
{
segmentType = curve;
smooth = 1;
x = 312;
y = -12;
},
{
smooth = 0;
x = 430;
y = -12;
},
{
smooth = 0;
x = 531;
y = 48;
},
{
segmentType = curve;
smooth = 0;
x = 578;
y = 146;
},
{
smooth = 0;
x = 620;
y = 48;
},
{
smooth = 0;
x = 709;
y = -12;
},
{
segmentType = curve;
smooth = 1;
x = 826;
y = -12;
},
{
smooth = 0;
x = 962;
y = -12;
},
{
smooth = 0;
x = 1026;
y = 66;
},
{
segmentType = curve;
smooth = 0;
x = 1059;
y = 137;
},
{
segmentType = line;
smooth = 0;
x = 1039;
y = 137;
},
{
smooth = 0;
x = 1015;
y = 60;
},
{
smooth = 0;
x = 934;
y = -1;
},
{
segmentType = curve;
smooth = 1;
x = 826;
y = -1;
},
{
smooth = 0;
x = 697;
y = -1;
},
{
smooth = 0;
x = 592;
y = 93;
},
{
segmentType = curve;
smooth = 1;
x = 592;
y = 269;
},
{
segmentType = line;
smooth = 1;
x = 592;
y = 274;
},
{
smooth = 0;
x = 592;
y = 447;
},
{
smooth = 0;
x = 694;
y = 541;
},
{
segmentType = curve;
smooth = 1;
x = 827;
y = 541;
},
{
smooth = 0;
x = 958;
y = 541;
},
{
smooth = 0;
x = 1062;
y = 448;
},
{
segmentType = curve;
smooth = 0;
x = 1059;
y = 290;
},
{
segmentType = line;
smooth = 0;
x = 570;
y = 290;
},
{
segmentType = line;
smooth = 0;
x = 571;
y = 261;
},
{
segmentType = line;
smooth = 0;
x = 1074;
y = 261;
},
{
smooth = 0;
x = 1077;
y = 280;
},
{
smooth = 0;
x = 1078;
y = 298;
},
{
segmentType = curve;
smooth = 1;
x = 1078;
y = 315;
},
{
smooth = 0;
x = 1078;
y = 434;
},
{
smooth = 0;
x = 993;
y = 552;
},
{
segmentType = curve;
smooth = 1;
x = 840;
y = 552;
},
{
smooth = 0;
x = 715;
y = 552;
},
{
smooth = 0;
x = 623;
y = 495;
},
{
segmentType = curve;
smooth = 0;
x = 582;
y = 400;
},
{
smooth = 0;
x = 537;
y = 495;
},
{
smooth = 0;
x = 442;
y = 552;
},
{
segmentType = curve;
smooth = 1;
x = 328;
y = 552;
},
{
smooth = 0;
x = 177;
y = 552;
},
{
smooth = 0;
x = 64;
y = 438;
}
);
}
);
lib = {
};
name = oe;
unicodes = (
);
width = 1135;
};
};
com.typesupply.AccentFactory.yCoordinates = {
bottom = {
name = origin;
type = glyphMetric;
};
top = {
name = xHeight;
type = fontInfo;
};
};
};
},
{
color = 4;
glyphname = p;
lastChange = "2024-08-04 21:13:32 +0000";
layers = (
{
background = {
shapes = (
{
closed = 1;
nodes = (
(264,453,c),
(264,551,l),
(150,551,l),
(150,-262,l),
(264,-262,l),
(264,103,l),
(300,39,o),
(365,-9,o),
(456,-9,cs),
(601,-9,o),
(715,108,o),
(715,278,cs),
(715,448,o),
(601,560,o),
(456,560,cs),
(365,560,o),
(299,514,o)
);
},
{
closed = 1;
nodes = (
(599,278,cs),
(599,159,o),
(517,90,o),
(431,90,cs),
(346,90,o),
(264,157,o),
(264,276,cs),
(264,394,o),
(346,461,o),
(431,461,cs),
(517,461,o),
(599,397,o)
);
}
);
};
guides = (
{
pos = (-149,84);
}
);
layerId = "4D0F633C-81E1-4D6C-A640-637CE706A5C5";
shapes = (
{
closed = 1;
nodes = (
(527,-7,o),
(641,106,o),
(641,276,cs),
(641,446,o),
(527,558,o),
(383,558,cs),
(293,558,o),
(221,510,o),
(190,432,c),
(190,551,l),
(75,551,l),
(75,-262,l),
(190,-262,l),
(190,120,l),
(221,41,o),
(293,-7,o),
(383,-7,cs)
);
},
{
closed = 1;
nodes = (
(272,92,o),
(190,157,o),
(190,276,cs),
(190,395,o),
(272,459,o),
(357,459,cs),
(442,459,o),
(524,395,o),
(524,276,cs),
(524,157,o),
(442,92,o),
(357,92,cs)
);
}
);
width = 679;
},
{
associatedMasterId = "4D0F633C-81E1-4D6C-A640-637CE706A5C5";
background = {
shapes = (
{
closed = 1;
nodes = (
(189,453,c),
(189,551,l),
(75,551,l),
(75,-262,l),
(189,-262,l),
(189,103,l),
(225,39,o),
(290,-9,o),
(381,-9,cs),
(526,-9,o),
(640,108,o),
(640,278,cs),
(640,448,o),
(526,560,o),
(381,560,cs),
(290,560,o),
(224,514,o)
);
},
{
closed = 1;
nodes = (
(524,278,cs),
(524,159,o),
(442,90,o),
(356,90,cs),
(271,90,o),
(189,157,o),
(189,276,cs),
(189,394,o),
(271,461,o),
(356,461,cs),
(442,461,o),
(524,397,o)
);
}
);
};
layerId = "E9CDC073-AD0C-455D-AC2D-D586502F74AA";
name = "Sep 19 17, 17:00";
shapes = (
{
closed = 1;
nodes = (
(189,453,c),
(189,551,l),
(75,551,l),
(75,-262,l),
(189,-262,l),
(189,103,l),
(225,39,o),
(290,-9,o),
(381,-9,cs),
(526,-9,o),
(640,108,o),
(640,278,cs),
(640,448,o),
(526,560,o),
(381,560,cs),
(290,560,o),
(224,514,o)
);
},
{
closed = 1;
nodes = (
(524,278,cs),
(524,159,o),
(442,90,o),
(356,90,cs),
(271,90,o),
(189,157,o),
(189,276,cs),
(189,394,o),
(271,461,o),
(356,461,cs),
(442,461,o),
(524,397,o)
);
}
);
width = 678;
},
{
layerId = "86171893-955A-4CD1-BD1B-2F7A53CC85DC";
shapes = (
{
closed = 1;
nodes = (
(571,-7,o),
(655,124,o),
(655,280,c),
(655,436,o),
(571,568,o),
(423,568,c),
(341,568,o),
(276,519,o),
(252,435,c),
(252,561,l),
(56,561,l),
(56,-267,l),
(252,-267,l),
(252,125,l),
(276,41,o),
(341,-7,o),
(423,-7,c)
);
},
{
closed = 1;
nodes = (
(296,165,o),
(252,208,o),
(252,280,c),
(252,352,o),
(296,397,o),
(354,397,c),
(412,397,o),
(455,352,o),
(455,280,c),
(455,208,o),
(412,165,o),
(354,165,c)
);
}
);
width = 680;
},
{
layerId = "6D7935D2-FE9A-430A-A298-15DA7AF44FAE";
shapes = (
{
closed = 1;
nodes = (
(512,-7,o),
(627,108,o),
(627,274,cs),
(627,440,o),
(512,553,o),
(370,553,cs),
(268,553,o),
(184,503,o),
(150,424,c),
(150,546,l),
(80,546,l),
(80,-258,l),
(150,-258,l),
(150,124,l),
(184,45,o),
(272,-7,o),
(370,-7,cs)
);
},
{
closed = 1;
nodes = (
(239,54,o),
(150,140,o),
(150,274,cs),
(150,408,o),
(239,492,o),
(353,492,cs),
(467,492,o),
(556,408,o),
(556,274,cs),
(556,140,o),
(467,54,o),
(353,54,cs)
);
}
);
width = 676;
}
);
unicode = 112;
userData = {
com.schriftgestaltung.Glyphs.ColorIndex = 4;
com.typemytype.robofont.guides = (
{
angle = 0;
isGlobal = 0;
magnetic = 5;
x = -74;
y = -254;
}
);
com.typesupply.AccentFactory.yCoordinates = {
top = {
name = xHeight;
type = fontInfo;
};
};
};
},
{
color = 4;
glyphname = thorn;
lastChange = "2024-08-04 18:10:58 +0000";
layers = (
{
layerId = "4D0F633C-81E1-4D6C-A640-637CE706A5C5";
shapes = (
{
closed = 1;
nodes = (
(189,453,c),
(189,740,l),
(75,740,l),
(75,-262,l),
(189,-262,l),
(189,103,l),
(225,40,o),
(290,-7,o),
(381,-7,cs),
(526,-7,o),
(640,108,o),
(640,278,cs),
(640,448,o),
(526,558,o),
(381,558,cs),
(290,558,o),
(224,513,o)
);
},
{
closed = 1;
nodes = (
(524,278,cs),
(524,159,o),
(442,92,o),
(356,92,cs),
(271,92,o),
(189,157,o),
(189,276,cs),
(189,394,o),
(271,459,o),
(356,459,cs),
(442,459,o),
(524,397,o)
);
}
);
width = 678;
},
{
layerId = "86171893-955A-4CD1-BD1B-2F7A53CC85DC";
shapes = (
{
closed = 1;
nodes = (
(252,500,c),
(252,740,l),
(56,740,l),
(56,-267,l),
(252,-267,l),
(252,72,l),
(290,21,o),
(337,-7,o),
(404,-7,cs),
(541,-7,o),
(655,109,o),
(655,279,cs),
(655,449,o),
(541,568,o),
(404,568,cs),
(337,568,o),
(289,545,o)
);
},
{
closed = 1;
nodes = (
(456,279,cs),
(456,196,o),
(400,164,o),
(354,164,cs),
(308,164,o),
(252,198,o),
(252,281,cs),
(252,363,o),
(308,398,o),
(354,398,cs),
(400,398,o),
(456,362,o)
);
}
);
width = 680;
},
{
layerId = "6D7935D2-FE9A-430A-A298-15DA7AF44FAE";
shapes = (
{
closed = 1;
nodes = (
(149,412,c),
(149,740,l),
(80,740,l),
(80,-258,l),
(149,-258,l),
(149,136,l),
(181,53,o),
(257,-7,o),
(366,-7,c),
(515,-7,o),
(626,103,o),
(626,274,c),
(626,445,o),
(515,553,o),
(366,553,c),
(257,553,o),
(181,494,o)
);
},
{
closed = 1;
nodes = (
(555,274,c),
(555,136,o),
(467,54,o),
(352,54,c),
(241,54,o),
(149,137,o),
(149,273,c),
(149,409,o),
(241,492,o),
(352,492,c),
(467,492,o),
(555,413,o)
);
}
);
width = 675;
}
);
unicode = 254;
userData = {
com.schriftgestaltung.Glyphs.ColorIndex = 4;
};
},
{
color = 4;
glyphname = q;
lastChange = "2024-08-04 18:11:12 +0000";
layers = (
{
anchors = (
{
name = bottom;
pos = (339,0);
},
{
name = top;
pos = (339,551);
}
);
background = {
shapes = (
{
closed = 1;
nodes = (
(-35,278,cs),
(-35,108,o),
(80,-9,o),
(225,-9,cs),
(315,-9,o),
(381,39,o),
(416,103,c),
(416,-262,l),
(531,-262,l),
(531,551,l),
(416,551,l),
(416,453,l),
(382,514,o),
(315,560,o),
(225,560,cs),
(80,560,o),
(-35,448,o)
);
},
{
closed = 1;
nodes = (
(416,276,cs),
(416,157,o),
(335,90,o),
(249,90,cs),
(164,90,o),
(82,159,o),
(82,278,cs),
(82,397,o),
(164,461,o),
(249,461,cs),
(335,461,o),
(416,394,o)
);
}
);
};
guides = (
{
pos = (-323,84);
}
);
layerId = "4D0F633C-81E1-4D6C-A640-637CE706A5C5";
shapes = (
{
closed = 1;
nodes = (
(603,-262,l),
(603,551,l),
(488,551,l),
(488,432,l),
(457,510,o),
(385,558,o),
(295,558,cs),
(151,558,o),
(37,446,o),
(37,276,cs),
(37,106,o),
(151,-7,o),
(295,-7,cs),
(385,-7,o),
(457,41,o),
(488,120,c),
(488,-262,l)
);
},
{
closed = 1;
nodes = (
(236,92,o),
(154,157,o),
(154,276,cs),
(154,395,o),
(236,459,o),
(321,459,cs),
(406,459,o),
(488,395,o),
(488,276,cs),
(488,157,o),
(406,92,o),
(321,92,cs)
);
}
);
width = 678;
},
{
associatedMasterId = "4D0F633C-81E1-4D6C-A640-637CE706A5C5";
background = {
shapes = (
{
closed = 1;
nodes = (
(37,278,cs),
(37,108,o),
(152,-9,o),
(297,-9,cs),
(387,-9,o),
(453,39,o),
(488,103,c),
(488,-262,l),
(603,-262,l),
(603,551,l),
(488,551,l),
(488,453,l),
(454,514,o),
(387,560,o),
(297,560,cs),
(152,560,o),
(37,448,o)
);
},
{
closed = 1;
nodes = (
(488,276,cs),
(488,157,o),
(407,90,o),
(321,90,cs),
(236,90,o),
(154,159,o),
(154,278,cs),
(154,397,o),
(236,461,o),
(321,461,cs),
(407,461,o),
(488,394,o)
);
}
);
};
guides = (
{
pos = (-251,467);
}
);
layerId = "47D07E84-9F73-4B5F-B2DA-24027F258064";
name = "Sep 19 17, 17:01";
shapes = (
{
closed = 1;
nodes = (
(37,278,cs),
(37,108,o),
(152,-9,o),
(297,-9,cs),
(387,-9,o),
(453,39,o),
(488,103,c),
(488,-262,l),
(603,-262,l),
(603,551,l),
(488,551,l),
(488,453,l),
(454,514,o),
(387,560,o),
(297,560,cs),
(152,560,o),
(37,448,o)
);
},
{
closed = 1;
nodes = (
(488,276,cs),
(488,157,o),
(407,90,o),
(321,90,cs),
(236,90,o),
(154,159,o),
(154,278,cs),
(154,397,o),
(236,461,o),
(321,461,cs),
(407,461,o),
(488,394,o)
);
}
);
width = 678;
},
{
anchors = (
{
name = bottom;
pos = (340,0);
},
{
name = top;
pos = (340,561);
}
);
layerId = "86171893-955A-4CD1-BD1B-2F7A53CC85DC";
shapes = (
{
closed = 1;
nodes = (
(623,-267,l),
(623,561,l),
(427,561,l),
(427,435,l),
(403,519,o),
(338,568,o),
(256,568,cs),
(108,568,o),
(24,436,o),
(24,280,cs),
(24,124,o),
(108,-7,o),
(256,-7,cs),
(338,-7,o),
(403,41,o),
(427,125,c),
(427,-267,l)
);
},
{
closed = 1;
nodes = (
(267,165,o),
(224,208,o),
(224,280,cs),
(224,352,o),
(267,397,o),
(325,397,cs),
(383,397,o),
(427,352,o),
(427,280,cs),
(427,208,o),
(383,165,o),
(325,165,cs)
);
}
);
width = 679;
},
{
anchors = (
{
name = bottom;
pos = (338,0);
},
{
name = top;
pos = (338,546);
}
);
layerId = "6D7935D2-FE9A-430A-A298-15DA7AF44FAE";
shapes = (
{
closed = 1;
nodes = (
(595,-258,l),
(595,546,l),
(525,546,l),
(525,424,l),
(491,503,o),
(407,553,o),
(305,553,cs),
(163,553,o),
(48,440,o),
(48,274,cs),
(48,108,o),
(163,-7,o),
(305,-7,cs),
(403,-7,o),
(491,45,o),
(525,124,c),
(525,-258,l)
);
},
{
closed = 1;
nodes = (
(208,54,o),
(119,140,o),
(119,274,cs),
(119,408,o),
(208,492,o),
(322,492,cs),
(436,492,o),
(525,408,o),
(525,274,cs),
(525,140,o),
(436,54,o),
(322,54,cs)
);
}
);
width = 675;
}
);
unicode = 113;
userData = {
com.schriftgestaltung.Glyphs.ColorIndex = 4;
com.typesupply.AccentFactory.yCoordinates = {
top = {
name = xHeight;
type = fontInfo;
};
};
};
},
{
color = 4;
glyphname = r;
lastChange = "2024-08-04 21:14:00 +0000";
layers = (
{
anchors = (
{
name = bottom;
pos = (132,0);
},
{
name = top;
pos = (241,551);
}
);
layerId = "4D0F633C-81E1-4D6C-A640-637CE706A5C5";
shapes = (
{
closed = 1;
nodes = (
(189,0,l),
(189,278,ls),
(189,388,o),
(245,443,o),
(327,443,cs),
(337,443,o),
(347,442,o),
(358,440,c),
(358,558,l),
(280,558,o),
(216,508,o),
(189,430,c),
(189,551,l),
(75,551,l),
(75,0,l)
);
}
);
width = 388;
},
{
anchors = (
{
name = bottom;
pos = (150,0);
},
{
name = top;
pos = (267,561);
}
);
layerId = "86171893-955A-4CD1-BD1B-2F7A53CC85DC";
shapes = (
{
closed = 1;
nodes = (
(252,0,l),
(252,221,ls),
(252,312,o),
(318,365,o),
(389,365,cs),
(403,365,o),
(418,364,o),
(434,360,c),
(434,566,l),
(334,566,o),
(274,511,o),
(252,420,c),
(252,561,l),
(56,561,l),
(56,0,l)
);
}
);
width = 448;
},
{
anchors = (
{
name = bottom;
pos = (117,0);
},
{
name = top;
pos = (222,546);
}
);
layerId = "6D7935D2-FE9A-430A-A298-15DA7AF44FAE";
shapes = (
{
closed = 1;
nodes = (
(150,0,l),
(150,283,ls),
(150,396,o),
(218,482,o),
(308,482,cs),
(317,482,o),
(327,481,o),
(337,479,c),
(337,553,l),
(242,553,o),
(174,507,o),
(150,424,c),
(150,546,l),
(80,546,l),
(80,0,l)
);
}
);
width = 362;
}
);
unicode = 114;
userData = {
com.schriftgestaltung.Glyphs.ColorIndex = 4;
com.typesupply.AccentFactory.yCoordinates = {
bottom = {
name = origin;
type = glyphMetric;
};
top = {
name = xHeight;
type = fontInfo;
};
};
};
},
{
color = 4;
glyphname = rcommaaccent;
lastChange = "2024-07-30 13:51:37 +0000";
layers = (
{
layerId = "4D0F633C-81E1-4D6C-A640-637CE706A5C5";
shapes = (
{
closed = 1;
nodes = (
(153,-278,o),
(229,-224,o),
(229,-133,cs),
(229,-89,o),
(197,-45,o),
(150,-45,cs),
(110,-45,o),
(78,-72,o),
(78,-113,cs),
(78,-155,o),
(108,-172,o),
(140,-172,c),
(153,-172,o),
(167,-168,o),
(174,-161,c),
(172,-184,o),
(129,-224,o),
(75,-219,c),
(75,-271,l)
);
},
{
pos = (17,0);
ref = r;
}
);
width = 405;
},
{
layerId = "86171893-955A-4CD1-BD1B-2F7A53CC85DC";
shapes = (
{
closed = 1;
nodes = (
(161,-326,o),
(260,-273,o),
(260,-152,cs),
(260,-94,o),
(218,-38,o),
(158,-38,cs),
(105,-38,o),
(64,-73,o),
(64,-126,cs),
(64,-180,o),
(101,-202,o),
(145,-202,c),
(154,-202,o),
(162,-201,o),
(170,-198,c),
(154,-227,o),
(111,-243,o),
(60,-241,c),
(60,-318,l)
);
},
{
alignment = -1;
ref = r;
}
);
width = 448;
},
{
layerId = "6D7935D2-FE9A-430A-A298-15DA7AF44FAE";
shapes = (
{
closed = 1;
nodes = (
(126,-230,o),
(179,-186,o),
(179,-118,cs),
(179,-86,o),
(156,-51,o),
(123,-51,cs),
(93,-51,o),
(70,-72,o),
(70,-100,cs),
(70,-130,o),
(90,-143,o),
(116,-143,c),
(124,-143,o),
(133,-141,o),
(140,-136,c),
(136,-165,o),
(105,-188,o),
(69,-186,c),
(69,-226,l)
);
},
{
alignment = -1;
pos = (3,0);
ref = r;
}
);
width = 365;
}
);
unicode = 343;
userData = {
com.schriftgestaltung.Glyphs.ColorIndex = 8;
com.typesupply.AccentFactory.compileType = manual;
};
},
{
color = 4;
glyphname = s;
lastChange = "2024-08-05 08:13:16 +0000";
layers = (
{
anchors = (
{
name = bottom;
pos = (258,0);
},
{
name = top;
pos = (257,558);
}
);
background = {
shapes = (
{
closed = 1;
nodes = (
(41,393,cs),
(41,194,o),
(363,283,o),
(363,155,cs),
(363,112,o),
(326,81,o),
(260,81,cs),
(200,81,o),
(162,114,o),
(158,168,c),
(40,168,l),
(48,53,o),
(134,-9,o),
(260,-9,cs),
(385,-9,o),
(475,57,o),
(475,153,cs),
(475,362,o),
(153,269,o),
(153,397,cs),
(153,438,o),
(188,470,o),
(251,470,cs),
(313,470,o),
(347,437,o),
(351,383,c),
(468,383,l),
(462,493,o),
(381,560,o),
(259,560,cs),
(121,560,o),
(41,483,o)
);
}
);
};
layerId = "4D0F633C-81E1-4D6C-A640-637CE706A5C5";
shapes = (
{
closed = 1;
nodes = (
(396,-7,o),
(477,68,o),
(477,155,cs),
(477,352,o),
(160,292,o),
(160,401,cs),
(160,438,o),
(192,462,o),
(253,462,cs),
(310,462,o),
(343,435,o),
(356,384,c),
(465,412,l),
(445,501,o),
(368,558,o),
(257,558,cs),
(127,558,o),
(45,488,o),
(45,400,cs),
(45,200,o),
(365,260,o),
(365,154,cs),
(365,116,o),
(330,89,o),
(264,89,cs),
(212,89,o),
(167,120,o),
(154,169,c),
(45,145,l),
(67,62,o),
(149,-7,o),
(266,-7,cs)
);
}
);
width = 525;
},
{
anchors = (
{
name = bottom;
pos = (301,0);
},
{
name = top;
pos = (301,563);
}
);
layerId = "86171893-955A-4CD1-BD1B-2F7A53CC85DC";
shapes = (
{
closed = 1;
nodes = (
(425,-7,o),
(518,61,o),
(518,162,cs),
(518,375,o),
(217,312,o),
(217,392,cs),
(217,413,o),
(234,428,o),
(266,428,cs),
(308,428,o),
(333,406,o),
(340,370,c),
(508,415,l),
(480,507,o),
(398,568,o),
(270,568,cs),
(118,568,o),
(36,485,o),
(36,387,cs),
(36,181,o),
(336,251,o),
(336,169,cs),
(336,149,o),
(316,132,o),
(283,132,cs),
(242,132,o),
(214,153,o),
(206,186,c),
(27,145,l),
(60,50,o),
(157,-7,o),
(284,-7,cs)
);
}
);
width = 545;
},
{
anchors = (
{
name = bottom;
pos = (253,0);
},
{
name = top;
pos = (253,551);
}
);
layerId = "6D7935D2-FE9A-430A-A298-15DA7AF44FAE";
shapes = (
{
closed = 1;
nodes = (
(378,-7,o),
(455,57,o),
(455,145,cs),
(455,338,o),
(129,259,o),
(129,407,c),
(129,455,o),
(175,493,o),
(248,493,cs),
(331,493,o),
(368,446,o),
(380,397,c),
(441,415,l),
(424,490,o),
(367,553,o),
(250,553,cs),
(135,553,o),
(58,487,o),
(58,406,c),
(58,205,o),
(386,280,o),
(386,145,c),
(386,93,o),
(342,53,o),
(264,53,cs),
(175,53,o),
(125,99,o),
(112,159,c),
(48,145,l),
(65,59,o),
(141,-7,o),
(265,-7,cs)
);
}
);
width = 507;
}
);
unicode = 115;
userData = {
com.schriftgestaltung.Glyphs.ColorIndex = 4;
com.typesupply.AccentFactory.yCoordinates = {
bottom = {
name = origin;
type = glyphMetric;
};
top = {
name = xHeight;
type = fontInfo;
};
};
};
},
{
color = 4;
glyphname = scedilla;
lastChange = "2024-08-04 21:41:31 +0000";
layers = (
{
anchors = (
{
name = bottom;
pos = (258,0);
},
{
name = top;
pos = (257,558);
}
);
layerId = "4D0F633C-81E1-4D6C-A640-637CE706A5C5";
shapes = (
{
closed = 1;
nodes = (
(396,-7,o),
(477,68,o),
(477,155,cs),
(477,352,o),
(160,292,o),
(160,401,cs),
(160,438,o),
(192,462,o),
(253,462,cs),
(310,462,o),
(343,435,o),
(356,384,c),
(465,412,l),
(445,501,o),
(368,558,o),
(257,558,cs),
(127,558,o),
(45,488,o),
(45,400,cs),
(45,200,o),
(365,260,o),
(365,154,cs),
(365,116,o),
(330,89,o),
(264,89,cs),
(212,89,o),
(167,120,o),
(154,169,c),
(45,145,l),
(67,62,o),
(149,-7,o),
(266,-7,cs)
);
},
{
closed = 1;
nodes = (
(299,7,l),
(224,7,l),
(224,-116,l),
(279,-116,ls),
(314,-116,o),
(335,-123,o),
(335,-153,cs),
(335,-183,o),
(314,-190,o),
(279,-190,cs),
(170,-190,l),
(170,-262,l),
(302,-262,ls),
(373,-262,o),
(429,-221,o),
(429,-153,cs),
(429,-84,o),
(373,-48,o),
(299,-48,c)
);
}
);
width = 525;
},
{
anchors = (
{
name = bottom;
pos = (301,0);
},
{
name = top;
pos = (301,563);
}
);
layerId = "86171893-955A-4CD1-BD1B-2F7A53CC85DC";
shapes = (
{
closed = 1;
nodes = (
(425,-7,o),
(518,61,o),
(518,162,cs),
(518,375,o),
(217,312,o),
(217,392,cs),
(217,413,o),
(234,426,o),
(266,426,cs),
(308,426,o),
(333,406,o),
(340,370,c),
(508,415,l),
(480,507,o),
(398,568,o),
(270,568,cs),
(118,568,o),
(36,485,o),
(36,387,cs),
(36,181,o),
(336,247,o),
(336,165,cs),
(336,145,o),
(316,128,o),
(283,128,cs),
(242,128,o),
(213,151,o),
(206,186,c),
(27,145,l),
(60,50,o),
(157,-7,o),
(284,-7,cs)
);
},
{
closed = 1;
nodes = (
(347,2,l),
(231,2,l),
(231,-129,l),
(309,-129,ls),
(330,-129,o),
(342,-135,o),
(342,-150,cs),
(342,-164,o),
(330,-171,o),
(309,-171,cs),
(169,-171,l),
(169,-274,l),
(332,-274,ls),
(400,-274,o),
(477,-244,o),
(477,-155,cs),
(477,-66,o),
(401,-37,o),
(347,-37,c)
);
}
);
width = 545;
},
{
anchors = (
{
name = bottom;
pos = (253,0);
},
{
name = top;
pos = (253,551);
}
);
layerId = "6D7935D2-FE9A-430A-A298-15DA7AF44FAE";
shapes = (
{
closed = 1;
nodes = (
(378,-7,o),
(455,57,o),
(455,145,cs),
(455,338,o),
(129,259,o),
(129,407,c),
(129,455,o),
(175,493,o),
(248,493,cs),
(331,493,o),
(368,446,o),
(380,397,c),
(441,415,l),
(424,490,o),
(367,553,o),
(250,553,cs),
(135,553,o),
(58,487,o),
(58,406,c),
(58,205,o),
(386,280,o),
(386,145,c),
(386,93,o),
(342,53,o),
(264,53,cs),
(175,53,o),
(125,99,o),
(112,159,c),
(48,145,l),
(65,59,o),
(141,-7,o),
(265,-7,cs)
);
},
{
closed = 1;
nodes = (
(281,7,l),
(232,7,l),
(232,-112,l),
(278,-112,ls),
(328,-112,o),
(350,-129,o),
(350,-160,cs),
(350,-194,o),
(328,-211,o),
(278,-211,cs),
(192,-211,l),
(192,-258,l),
(292,-258,ls),
(362,-258,o),
(409,-220,o),
(409,-160,cs),
(409,-98,o),
(359,-65,o),
(281,-67,c)
);
}
);
width = 507;
}
);
unicode = 351;
userData = {
com.schriftgestaltung.Glyphs.ColorIndex = 8;
};
},
{
color = 4;
glyphname = scommaaccent;
lastChange = "2024-08-04 21:14:43 +0000";
layers = (
{
layerId = "4D0F633C-81E1-4D6C-A640-637CE706A5C5";
shapes = (
{
closed = 1;
nodes = (
(278,-278,o),
(354,-224,o),
(354,-133,cs),
(354,-89,o),
(322,-45,o),
(275,-45,cs),
(235,-45,o),
(203,-72,o),
(203,-113,cs),
(203,-155,o),
(233,-172,o),
(265,-172,c),
(278,-172,o),
(292,-168,o),
(299,-161,c),
(297,-184,o),
(254,-224,o),
(200,-219,c),
(200,-271,l)
);
},
{
ref = s;
}
);
width = 525;
},
{
layerId = "86171893-955A-4CD1-BD1B-2F7A53CC85DC";
shapes = (
{
closed = 1;
nodes = (
(289,-326,o),
(388,-273,o),
(388,-152,cs),
(388,-94,o),
(346,-38,o),
(286,-38,cs),
(233,-38,o),
(192,-73,o),
(192,-126,cs),
(192,-180,o),
(229,-202,o),
(273,-202,c),
(282,-202,o),
(290,-201,o),
(298,-198,c),
(282,-227,o),
(239,-243,o),
(188,-241,c),
(188,-318,l)
);
},
{
alignment = -1;
ref = s;
}
);
width = 545;
},
{
layerId = "6D7935D2-FE9A-430A-A298-15DA7AF44FAE";
shapes = (
{
closed = 1;
nodes = (
(266,-230,o),
(319,-186,o),
(319,-118,cs),
(319,-86,o),
(296,-51,o),
(263,-51,cs),
(233,-51,o),
(210,-72,o),
(210,-100,cs),
(210,-130,o),
(230,-143,o),
(256,-143,c),
(264,-143,o),
(273,-141,o),
(280,-136,c),
(276,-165,o),
(245,-188,o),
(209,-186,c),
(209,-226,l)
);
},
{
alignment = -1;
ref = s;
}
);
width = 507;
}
);
unicode = 537;
userData = {
com.schriftgestaltung.Glyphs.ColorIndex = 8;
com.typesupply.AccentFactory.compileType = manual;
};
},
{
color = 4;
glyphname = germandbls;
lastChange = "2024-07-29 15:51:46 +0000";
layers = (
{
guides = (
{
angle = -30.0184;
pos = (493,363);
}
);
layerId = "4D0F633C-81E1-4D6C-A640-637CE706A5C5";
shapes = (
{
closed = 1;
nodes = (
(54,0,l),
(168,0,l),
(168,547,ls),
(168,630,o),
(201,678,o),
(300,678,cs),
(372,678,o),
(418,647,o),
(418,592,cs),
(418,511,o),
(282,475,o),
(282,374,cs),
(282,307,o),
(332,270,o),
(437,235,cs),
(507,212,o),
(528,189,o),
(528,146,cs),
(528,102,o),
(498,81,o),
(443,81,cs),
(382,81,o),
(348,117,o),
(348,173,c),
(232,173,l),
(241,56,o),
(323,-10,o),
(443,-10,cs),
(571,-10,o),
(645,58,o),
(645,155,cs),
(645,235,o),
(604,288,o),
(502,322,cs),
(416,351,o),
(397,367,o),
(397,390,cs),
(397,439,o),
(532,475,o),
(532,601,cs),
(532,687,o),
(455,773,o),
(302,773,cs),
(128,773,o),
(54,676,o),
(54,562,cs)
);
}
);
width = 699;
},
{
layerId = "86171893-955A-4CD1-BD1B-2F7A53CC85DC";
shapes = (
{
closed = 1;
nodes = (
(46,0,l),
(241,0,l),
(241,510,ls),
(241,567,o),
(274,603,o),
(335,603,cs),
(383,603,o),
(416,581,o),
(416,545,cs),
(416,490,o),
(316,441,o),
(316,362,cs),
(316,302,o),
(361,268,o),
(476,226,cs),
(543,201,o),
(556,187,o),
(556,164,cs),
(556,141,o),
(539,128,o),
(513,128,cs),
(480,128,o),
(455,151,o),
(449,184,c),
(273,184,l),
(294,59,o),
(379,-10,o),
(517,-10,cs),
(651,-10,o),
(741,63,o),
(741,173,cs),
(741,254,o),
(700,300,o),
(597,340,cs),
(521,370,o),
(511,380,o),
(511,396,cs),
(511,431,o),
(610,477,o),
(610,579,cs),
(610,682,o),
(502,765,o),
(346,765,cs),
(169,765,o),
(46,671,o),
(46,522,cs)
);
}
);
width = 788;
},
{
layerId = "6D7935D2-FE9A-430A-A298-15DA7AF44FAE";
shapes = (
{
closed = 1;
nodes = (
(66,0,l),
(136,0,l),
(136,552,ls),
(136,649,o),
(184,709,o),
(288,709,cs),
(374,709,o),
(427,668,o),
(427,604,cs),
(427,509,o),
(280,479,o),
(280,376,cs),
(280,316,o),
(321,283,o),
(426,249,cs),
(503,224,o),
(532,195,o),
(532,142,cs),
(532,83,o),
(492,47,o),
(424,47,cs),
(349,47,o),
(303,95,o),
(297,167,c),
(226,167,l),
(236,57,o),
(313,-10,o),
(424,-10,cs),
(537,-10,o),
(604,54,o),
(604,147,cs),
(604,222,o),
(564,271,o),
(468,302,cs),
(375,332,o),
(351,352,o),
(351,385,cs),
(351,453,o),
(497,486,o),
(497,609,cs),
(497,695,o),
(424,768,o),
(289,768,cs),
(140,768,o),
(66,679,o),
(66,560,cs)
);
}
);
width = 665;
}
);
unicode = 223;
userData = {
com.schriftgestaltung.Glyphs.ColorIndex = 4;
};
},
{
color = 4;
glyphname = t;
lastChange = "2024-08-04 20:21:45 +0000";
layers = (
{
anchors = (
{
name = bottom;
pos = (207,0);
},
{
name = topright;
pos = (223,828);
}
);
layerId = "4D0F633C-81E1-4D6C-A640-637CE706A5C5";
shapes = (
{
closed = 1;
nodes = (
(309,-7,o),
(345,8,o),
(383,44,c),
(324,115,l),
(309,100,o),
(294,94,o),
(274,94,cs),
(251,94,o),
(228,109,o),
(228,146,cs),
(228,458,l),
(362,458,l),
(362,551,l),
(174,551,l),
(204,558,o),
(228,587,o),
(228,615,cs),
(228,688,l),
(113,688,l),
(113,596,ls),
(113,568,o),
(97,551,o),
(69,551,cs),
(28,551,l),
(28,458,l),
(113,458,l),
(113,153,ls),
(113,54,o),
(176,-7,o),
(260,-7,cs)
);
}
);
width = 413;
},
{
anchors = (
{
name = bottom;
pos = (218,0);
},
{
name = topright;
pos = (264,915);
}
);
layerId = "86171893-955A-4CD1-BD1B-2F7A53CC85DC";
shapes = (
{
closed = 1;
nodes = (
(358,-7,o),
(392,3,o),
(422,13,c),
(389,163,l),
(379,160,o),
(370,158,o),
(361,158,cs),
(329,158,o),
(305,179,o),
(305,209,cs),
(305,402,l),
(404,402,l),
(404,561,l),
(237,561,l),
(283,568,o),
(305,614,o),
(305,644,c),
(305,697,l),
(116,697,l),
(116,614,l),
(116,583,o),
(93,561,o),
(63,561,c),
(18,561,l),
(18,402,l),
(108,402,l),
(108,209,ls),
(108,65,o),
(177,-7,o),
(320,-7,c)
);
}
);
width = 456;
},
{
anchors = (
{
name = bottom;
pos = (198,0);
},
{
name = topright;
pos = (199,780);
}
);
layerId = "6D7935D2-FE9A-430A-A298-15DA7AF44FAE";
shapes = (
{
closed = 1;
nodes = (
(278,-7,o),
(311,4,o),
(331,20,c),
(299,75,l),
(284,65,o),
(266,56,o),
(248,56,cs),
(216,56,o),
(195,80,o),
(195,112,cs),
(195,487,l),
(312,487,l),
(312,546,l),
(154,546,l),
(183,552,o),
(196,576,o),
(196,604,cs),
(196,683,l),
(125,683,l),
(125,591,ls),
(125,562,o),
(109,546,o),
(80,546,cs),
(24,546,l),
(24,487,l),
(125,487,l),
(125,112,ls),
(125,44,o),
(178,-7,o),
(246,-7,cs)
);
}
);
width = 361;
}
);
unicode = 116;
userData = {
com.schriftgestaltung.Glyphs.ColorIndex = 4;
com.typesupply.AccentFactory.yCoordinates = {
bottom = {
name = origin;
type = glyphMetric;
};
};
};
},
{
color = 4;
glyphname = tcaron;
lastChange = "2024-07-30 13:52:16 +0000";
layers = (
{
layerId = "4D0F633C-81E1-4D6C-A640-637CE706A5C5";
shapes = (
{
closed = 1;
nodes = (
(320,575,o),
(396,629,o),
(396,720,cs),
(396,764,o),
(364,808,o),
(317,808,cs),
(277,808,o),
(245,781,o),
(245,740,cs),
(245,698,o),
(275,681,o),
(307,681,c),
(320,681,o),
(334,685,o),
(341,692,c),
(339,669,o),
(296,629,o),
(242,634,c),
(242,582,l)
);
},
{
ref = t;
}
);
width = 375;
},
{
layerId = "86171893-955A-4CD1-BD1B-2F7A53CC85DC";
shapes = (
{
closed = 1;
nodes = (
(441,590,o),
(540,643,o),
(540,764,cs),
(540,822,o),
(498,878,o),
(438,878,cs),
(385,878,o),
(344,843,o),
(344,790,cs),
(344,736,o),
(381,714,o),
(425,714,c),
(434,714,o),
(442,715,o),
(450,718,c),
(434,689,o),
(391,673,o),
(340,675,c),
(340,598,l)
);
},
{
alignment = -1;
ref = t;
}
);
width = 471;
},
{
layerId = "6D7935D2-FE9A-430A-A298-15DA7AF44FAE";
shapes = (
{
closed = 1;
nodes = (
(273,586,o),
(326,630,o),
(326,698,cs),
(326,730,o),
(303,765,o),
(270,765,cs),
(240,765,o),
(217,744,o),
(217,716,cs),
(217,686,o),
(237,673,o),
(263,673,c),
(271,673,o),
(280,675,o),
(287,680,c),
(283,651,o),
(252,628,o),
(216,630,c),
(216,590,l)
);
},
{
alignment = -1;
ref = t;
}
);
width = 356;
}
);
unicode = 357;
userData = {
com.schriftgestaltung.Glyphs.ColorIndex = 5;
com.typesupply.AccentFactory.compileType = manual;
};
},
{
color = 4;
glyphname = tcedilla;
lastChange = "2024-08-04 18:13:36 +0000";
layers = (
{
layerId = "4D0F633C-81E1-4D6C-A640-637CE706A5C5";
shapes = (
{
closed = 1;
nodes = (
(309,-8,o),
(345,7,o),
(383,43,c),
(324,114,l),
(309,99,o),
(294,93,o),
(274,93,cs),
(251,93,o),
(228,108,o),
(228,145,cs),
(228,458,l),
(362,458,l),
(362,551,l),
(174,551,l),
(204,558,o),
(228,587,o),
(228,615,cs),
(228,688,l),
(113,688,l),
(113,596,ls),
(113,568,o),
(97,551,o),
(69,551,cs),
(28,551,l),
(28,458,l),
(113,458,l),
(113,152,ls),
(113,53,o),
(176,-8,o),
(260,-8,cs)
);
},
{
closed = 1;
nodes = (
(251,-262,ls),
(322,-262,o),
(378,-221,o),
(378,-153,cs),
(378,-84,o),
(322,-48,o),
(248,-48,c),
(248,60,l),
(173,60,l),
(173,-116,l),
(228,-116,ls),
(263,-116,o),
(284,-123,o),
(284,-153,cs),
(284,-183,o),
(263,-190,o),
(228,-190,cs),
(119,-190,l),
(119,-262,l)
);
}
);
width = 397;
},
{
layerId = "86171893-955A-4CD1-BD1B-2F7A53CC85DC";
shapes = (
{
closed = 1;
nodes = (
(358,-7,o),
(392,3,o),
(422,13,c),
(389,163,l),
(379,160,o),
(370,158,o),
(361,158,cs),
(329,158,o),
(305,179,o),
(305,209,cs),
(305,402,l),
(404,402,l),
(404,561,l),
(237,561,l),
(283,568,o),
(305,614,o),
(305,644,c),
(305,697,l),
(116,697,l),
(116,614,l),
(116,583,o),
(93,561,o),
(63,561,c),
(18,561,l),
(18,402,l),
(108,402,l),
(108,209,ls),
(108,65,o),
(177,-7,o),
(320,-7,c)
);
},
{
closed = 1;
nodes = (
(298,-269,ls),
(366,-269,o),
(442,-239,o),
(442,-150,cs),
(442,-61,o),
(366,-32,o),
(312,-32,c),
(312,96,l),
(197,96,l),
(197,-124,l),
(275,-124,ls),
(295,-124,o),
(308,-130,o),
(308,-145,cs),
(308,-159,o),
(295,-166,o),
(275,-166,cs),
(134,-166,l),
(134,-269,l)
);
}
);
width = 441;
},
{
layerId = "6D7935D2-FE9A-430A-A298-15DA7AF44FAE";
shapes = (
{
closed = 1;
nodes = (
(278,-7,o),
(311,4,o),
(331,20,c),
(299,75,l),
(284,65,o),
(266,56,o),
(248,56,cs),
(216,56,o),
(195,80,o),
(195,112,cs),
(195,487,l),
(312,487,l),
(312,546,l),
(154,546,l),
(183,552,o),
(196,576,o),
(196,604,cs),
(196,683,l),
(125,683,l),
(125,591,ls),
(125,562,o),
(109,546,o),
(80,546,cs),
(24,546,l),
(24,487,l),
(125,487,l),
(125,112,ls),
(125,44,o),
(178,-7,o),
(246,-7,cs)
);
},
{
closed = 1;
nodes = (
(261,-258,ls),
(331,-258,o),
(378,-220,o),
(378,-160,cs),
(378,-98,o),
(328,-65,o),
(250,-67,c),
(250,35,l),
(200,35,l),
(200,-112,l),
(247,-112,ls),
(297,-112,o),
(318,-129,o),
(318,-160,cs),
(318,-194,o),
(297,-211,o),
(247,-211,cs),
(161,-211,l),
(161,-258,l)
);
}
);
width = 380;
}
);
unicode = 355;
userData = {
com.schriftgestaltung.Glyphs.ColorIndex = 8;
};
},
